<svg width="30" height="30" viewBox="0 0 30 30" fill="none" xmlns="http://www.w3.org/2000/svg">
<g id="Frame" clip-path="url(#clip0_259_669)">
<path id="Vector" d="M24.375 4.6875H5.625C5.10723 4.6875 4.6875 5.10723 4.6875 5.625V24.375C4.6875 24.8928 5.10723 25.3125 5.625 25.3125H24.375C24.8928 25.3125 25.3125 24.8928 25.3125 24.375V5.625C25.3125 5.10723 24.8928 4.6875 24.375 4.6875Z" stroke="#8E939B" stroke-width="1.5" stroke-linecap="round" stroke-linejoin="round"/>
<path id="Vector_2" d="M20.625 2.8125V6.5625" stroke="#8E939B" stroke-width="1.5" stroke-linecap="round" stroke-linejoin="round"/>
<path id="Vector_3" d="M9.375 2.8125V6.5625" stroke="#8E939B" stroke-width="1.5" stroke-linecap="round" stroke-linejoin="round"/>
<path id="Vector_4" d="M4.6875 10.3125H25.3125" stroke="#8E939B" stroke-width="1.5" stroke-linecap="round" stroke-linejoin="round"/>
<path id="Vector_5" d="M12 19.6875C13.0355 19.6875 13.875 18.848 13.875 17.8125C13.875 16.777 13.0355 15.9375 12 15.9375C10.9645 15.9375 10.125 16.777 10.125 17.8125C10.125 18.848 10.9645 19.6875 12 19.6875Z" fill="#8E939B"/>
<path id="Vector_6" d="M18 19.6875C19.0355 19.6875 19.875 18.848 19.875 17.8125C19.875 16.777 19.0355 15.9375 18 15.9375C16.9645 15.9375 16.125 16.777 16.125 17.8125C16.125 18.848 16.9645 19.6875 18 19.6875Z" fill="#8E939B"/>
</g>
<defs>
<clipPath id="clip0_259_669">
<rect width="30" height="30" fill="white"/>
</clipPath>
</defs>
</svg>
