<svg width="61" height="61" viewBox="0 0 61 61" fill="none" xmlns="http://www.w3.org/2000/svg">
<g id="Company logo" clip-path="url(#clip0_71_508)">
<path id="XMLID_137_" d="M30.0534 60.042C46.3568 60.042 59.5734 46.8254 59.5734 30.522C59.5734 14.2185 46.3568 1.00195 30.0534 1.00195C13.7499 1.00195 0.533386 14.2185 0.533386 30.522C0.533386 46.8254 13.7499 60.042 30.0534 60.042Z" fill="#F3F4F7"/>
<path id="XMLID_141_" d="M49.2362 33.0246L47.7619 33.4703L48.0876 33.6074L47.5733 33.9331C47.6248 33.6417 47.6762 33.3331 47.7276 33.0246L48.5333 32.356L48.5505 32.716L49.459 31.4817L48.0705 32.116L48.4133 32.2017L47.779 32.7331C47.8305 32.356 47.8647 31.996 47.8819 31.6188L48.6705 30.7446L48.739 31.0874L49.4762 29.7331L48.1562 30.5731L48.5162 30.6074L47.8819 31.2931C47.8819 31.0531 47.899 30.8303 47.899 30.5903C47.899 28.8246 47.6419 27.1103 47.1619 25.4988C46.3562 25.5674 45.5505 25.3103 45.1733 25.2417C46.2019 25.8417 46.5619 26.4931 46.7162 27.2474C45.8933 27.436 44.7962 27.1617 44.1962 26.6988C44.779 27.2131 45.1562 28.0188 45.1905 28.8588C44.3505 28.8931 43.5619 28.4988 42.979 27.9331C43.3562 28.3446 43.819 29.3903 43.699 30.1274C42.9962 30.0588 42.1562 29.5788 41.7105 29.0303C42.0876 29.8531 42.259 30.5388 42.2248 31.276C41.5219 31.1388 40.9905 30.9503 40.3562 30.3331C40.6648 31.0874 40.7676 31.8588 40.699 32.476C39.8933 32.1846 39.3448 31.8588 38.8819 31.1046C39.1219 31.7731 39.2762 32.6646 39.1219 33.1788C38.4362 32.9731 37.9733 32.5617 37.6133 31.8588C37.9733 32.6131 37.9219 33.4703 37.8019 33.916C37.5105 33.8646 37.1333 33.6588 36.9448 33.436C36.9276 33.5731 36.9276 33.7103 36.9105 33.8303C36.8762 34.3274 36.7733 34.8074 36.6019 35.236C36.6533 35.3046 36.7905 35.4588 36.8076 35.4588C37.1676 35.8531 37.6648 36.2131 38.059 36.3331C37.8876 36.3503 37.6648 36.5046 37.4248 36.5217C37.6819 36.8131 38.2133 36.8817 38.539 37.2074C38.2819 37.2417 38.2305 37.4131 37.9219 37.3788C38.5047 37.8246 39.0533 37.8417 39.3448 37.876C39.4648 37.8931 39.859 37.9274 40.1162 37.8931C40.4762 37.8417 40.8362 38.0131 40.9733 38.0988C41.1962 38.2188 41.179 38.5274 41.1276 38.6817C41.0933 38.7674 41.059 38.8874 40.9048 38.956C40.819 38.9903 40.7505 38.9903 40.8533 38.9217C40.939 38.8531 41.0076 38.476 40.819 38.3388C40.6819 38.236 40.4762 38.1503 40.2362 38.1674C39.979 38.1846 39.5676 38.2017 39.379 38.1846C39.2076 38.1674 39.0876 38.4074 39.0705 38.4931C39.0019 38.7331 38.9333 39.0246 38.5905 38.8703C38.179 38.6303 37.579 38.6474 36.8933 38.3731C36.9962 38.5788 36.9448 38.7674 37.0476 39.0074C36.4305 38.8531 36.2762 38.5446 35.7105 38.3388C35.8133 38.5446 35.779 38.716 35.9162 38.9217C35.419 38.836 34.9733 38.3903 34.2876 38.2188C34.2705 38.2188 34.2533 38.236 34.219 38.236C33.979 38.3046 33.739 38.3731 33.5333 38.4417C34.0133 38.9903 34.4076 39.6588 34.5962 40.4646C34.5962 40.4646 34.2533 40.4817 33.7562 40.2931C33.8933 40.7388 33.9962 41.2017 33.9962 41.716C33.9962 41.716 33.619 41.6474 33.0876 41.3217C33.139 41.8017 33.1219 42.2988 33.019 42.8131C33.019 42.8131 32.5733 42.6246 32.059 42.1103C31.9905 42.6074 31.8705 43.1046 31.6647 43.6017C31.6647 43.6017 31.2533 43.3274 30.8419 42.6931C30.6705 43.1903 30.4305 43.6703 30.1048 44.1503C30.1048 44.1503 29.659 43.6874 29.3676 42.7617C28.9733 43.3617 28.5962 43.6188 28.5962 43.6188C28.3905 43.1217 28.2533 42.6246 28.2019 42.1274C27.6876 42.6588 27.2419 42.8474 27.2419 42.8474C27.139 42.3331 27.1219 41.836 27.1733 41.356C26.659 41.6817 26.2648 41.7503 26.2648 41.7503C26.2819 41.236 26.3676 40.7731 26.5048 40.3274C26.0076 40.4988 25.6648 40.4988 25.6648 40.4988C25.8533 39.676 26.4019 38.8188 26.7619 38.4417C26.5905 38.3903 26.3848 38.3217 26.179 38.2703C26.1619 38.2703 26.1448 38.2531 26.1105 38.2531C25.4248 38.4417 24.979 38.8703 24.4819 38.956C24.619 38.7503 24.5848 38.596 24.6876 38.3731C24.1048 38.5788 23.9505 38.8874 23.3505 39.0417C23.4533 38.8017 23.419 38.6303 23.5048 38.4074C22.939 38.6817 22.1676 38.8703 21.8247 38.956C21.4476 39.0417 21.4305 38.476 21.2933 38.3388C21.2419 38.2874 20.9333 38.2703 20.8133 38.2874C20.6248 38.3217 20.2648 38.3046 19.9905 38.3046C19.7162 38.3046 19.5276 38.3731 19.3905 38.4931C19.1848 38.6303 19.2876 39.0246 19.3733 39.0931C19.459 39.1617 19.4076 39.1446 19.3219 39.1274C19.1676 39.0417 19.1162 38.9388 19.099 38.8531C19.0648 38.6988 19.0476 38.4074 19.2705 38.2874C19.4076 38.2017 19.7676 38.0303 20.1276 38.0817C20.3676 38.116 20.7619 38.0817 20.8819 38.0646C21.0019 38.0474 21.8933 37.8931 22.4762 37.4303C22.1676 37.4646 22.1162 37.276 21.859 37.2588C22.1848 36.9331 22.7162 36.8646 22.9733 36.5731C22.7505 36.5388 22.5448 36.3674 22.3733 36.3331C22.8876 36.0417 23.2305 35.8874 23.5905 35.4931C23.5905 35.4931 23.7276 35.3388 23.779 35.2703C23.6076 34.8417 23.5219 34.3617 23.4705 33.8474C23.4705 33.7274 23.4533 33.5903 23.4533 33.4703C23.3333 33.6074 23.0762 33.7446 22.6476 33.8988C22.459 33.4188 22.5448 32.5274 22.8019 31.8417C22.4419 32.5446 22.0305 33.0074 21.3448 33.2131C21.1733 32.6988 21.2762 31.7903 21.5162 31.1217C21.0533 31.8931 20.5733 32.2703 19.7505 32.5617C19.6819 31.9446 19.7505 31.1046 20.0419 30.3503C19.4076 30.9503 18.8762 31.156 18.1733 31.2931C18.1219 30.556 18.3105 29.8703 18.6876 29.0474C18.2419 29.596 17.299 29.9731 16.5962 30.0588C16.6476 29.4074 17.1105 28.5331 17.3676 28.0188C16.699 28.4988 15.9962 28.8417 15.2248 28.876C15.3276 28.1388 15.6533 27.3503 16.219 26.716C15.5505 27.2131 14.539 27.4703 13.7848 27.3674C13.9733 26.5617 14.4705 25.7903 15.1219 25.3617C14.7276 25.4303 14.0419 25.6017 13.2362 25.516C12.7562 27.1103 12.499 28.7903 12.499 30.5217C12.1048 30.2131 11.8133 30.1274 11.539 29.8531C11.5905 30.2303 11.6419 30.436 11.6762 30.8988C11.7448 31.7388 12.0705 32.2188 12.6019 32.5274C12.619 32.7674 12.6533 33.0074 12.6876 33.2303C12.2933 32.9731 11.779 32.8188 11.0933 32.836C11.5048 34.2074 12.1047 34.3103 12.9105 34.4303C12.9447 34.5503 12.9619 34.6874 12.9962 34.8074C12.5676 34.6874 12.0533 34.6874 11.4705 34.8588C11.8819 35.4931 12.4305 35.8703 13.3219 36.0074V36.0246C12.7733 35.9731 12.1733 36.0588 11.6933 36.2988C12.379 36.8817 13.0476 37.1046 13.6819 37.036C13.7162 37.1217 13.7505 37.2074 13.7848 37.2931C13.2876 37.4303 12.8419 37.6874 12.5848 37.9274C13.1162 38.0988 13.6648 38.1846 14.1448 38.1331L14.1619 38.1674C13.8705 38.3903 13.6305 38.7503 13.4762 39.2988C13.8533 39.2131 14.2476 39.1788 14.6247 39.076C14.6933 39.2131 14.779 39.3674 14.8648 39.5046C14.659 39.8988 14.5905 40.3788 14.7105 40.9274C15.0362 40.8588 15.3105 40.7217 15.5162 40.5674C15.5848 40.6874 15.6705 40.7903 15.7562 40.9103C15.6705 41.5274 15.8248 42.1446 16.1848 42.5731C16.3562 42.3846 16.4933 42.196 16.6133 42.0074C19.8705 45.8988 24.7562 48.3846 30.2248 48.3846C37.8533 48.3846 44.3676 43.5674 46.8705 36.796L47.6762 36.4531L47.6076 36.8131L48.7733 35.8017L47.2648 36.1103L47.5733 36.2817L46.9562 36.5388C47.059 36.2303 47.1619 35.9046 47.2648 35.596L48.139 35.0988L48.1048 35.4588L49.1676 34.3446L47.6933 34.7903L48.019 34.9274L47.3162 35.3217C47.419 34.9788 47.5048 34.6188 47.5733 34.276L48.2419 33.8474L48.2076 34.2074L49.2362 33.0246Z" fill="#050F22"/>
<path id="XMLID_142_" d="M48.3791 19.7906C48.0362 19.9106 47.7105 19.9963 47.3848 20.0649C49.2534 23.1163 50.3334 26.7163 50.3334 30.5563C50.3334 41.6992 41.2991 50.7335 30.1734 50.7335C19.0305 50.7335 9.99624 41.6992 9.99624 30.5563C9.99624 26.5449 11.162 22.8077 13.1848 19.6535C12.8591 19.5677 12.5505 19.4477 12.242 19.2935C10.1848 22.5506 9.00195 26.4249 9.00195 30.5563C9.00195 42.2477 18.482 51.7277 30.1734 51.7277C41.8648 51.7277 51.3448 42.2477 51.3448 30.5563C51.3277 26.6306 50.2477 22.9449 48.3791 19.7906Z" fill="#050F22"/>
<path id="XMLID_143_" d="M18.4306 14.1675C21.7392 11.8018 25.7849 10.4132 30.1563 10.4132C35.042 10.4132 39.5163 12.1447 43.0134 15.0418C43.4077 14.9218 43.7849 14.8361 44.1791 14.7332C40.442 11.4247 35.5392 9.41895 30.1563 9.41895C25.3392 9.41895 20.882 11.0304 17.3334 13.7561C17.5049 13.8247 17.6763 13.8761 17.8477 13.9447C18.0363 13.9961 18.242 14.0818 18.4306 14.1675Z" fill="#050F22"/>
<path id="XMLID_146_" d="M30.1564 58.7218C14.6079 58.7218 2.00786 46.1218 2.00786 30.5732C2.00786 15.0247 14.6079 2.42467 30.1564 2.42467C45.705 2.42467 58.305 15.0247 58.305 30.5732C58.305 46.1218 45.705 58.7218 30.1564 58.7218ZM30.1564 0.573242C13.5964 0.573242 0.156433 14.0132 0.156433 30.5732C0.156433 47.1332 13.5964 60.5732 30.1564 60.5732C46.7336 60.5732 60.1564 47.1332 60.1564 30.5732C60.1564 14.0132 46.7164 0.573242 30.1564 0.573242Z" fill="#050F22"/>
<path id="XMLID_147_" d="M22.9219 24.5561C22.4934 24.3332 22.1162 24.0761 21.7219 23.7161C20.4362 22.5504 20.1276 21.3161 20.5048 19.8932C20.7276 19.0532 21.0705 18.6247 20.9505 17.7504C20.8819 17.2532 20.5219 16.8418 20.1619 16.4989C19.3048 15.6761 18.2762 15.1618 16.7676 14.6475C15.8419 14.3389 13.1334 13.4989 11.9334 12.4189C11.6591 13.2075 12.2419 14.2704 12.9276 14.4075C12.3105 14.4761 11.7962 14.7847 11.5562 15.1275C12.0191 15.6589 12.9276 16.2075 13.6991 16.2247C13.3562 16.4647 12.9276 16.9618 12.7734 17.2361C13.4248 17.5789 14.4705 17.8704 15.2762 17.8189C14.9334 18.0932 14.6419 18.4361 14.4534 18.7447C15.0019 18.9847 16.0476 19.3447 17.0591 19.4304C16.6819 19.6189 16.1505 20.2532 15.8934 20.6304C16.4591 20.8875 17.6934 21.0418 18.4476 21.1104C17.8991 21.4018 17.3334 21.9675 17.0248 22.4818C17.5734 22.7389 18.6191 23.0475 19.4591 23.0132C19.0476 23.4075 18.7734 23.9047 18.6019 24.3675C19.2362 24.5047 19.9219 24.5047 20.6934 24.4018C20.2134 25.0018 20.0248 25.7904 19.9562 26.3561C20.5905 26.3389 21.4305 26.2018 22.0305 25.8418C21.8934 26.3218 21.9276 26.9904 22.1334 27.4532C22.3905 27.4018 22.6648 27.2989 22.9905 27.1275C22.9905 26.2361 22.9391 25.3275 22.9219 24.5561Z" fill="#050F22"/>
<path id="XMLID_148_" d="M48.7734 13.876C47.5734 14.956 45.6705 15.2474 43.6648 15.916C42.1562 16.4131 41.2134 16.7045 39.8591 17.7845C39.4648 18.0931 39.1048 18.5388 39.1391 19.3274C39.1905 20.1845 39.3277 20.5617 39.3448 21.7617C39.3619 22.6188 39.0705 23.3217 38.6934 23.716C38.3162 24.1445 37.8191 24.5217 37.3734 24.7617C37.3562 25.4988 37.3219 26.236 37.2705 27.0931C37.5791 27.2645 37.9905 27.4188 38.2305 27.4874C38.4362 27.0245 38.4705 26.3731 38.3334 25.876C38.9334 26.236 39.7734 26.3731 40.4076 26.3903C40.3391 25.8245 40.1505 25.036 39.6705 24.436C40.4591 24.5388 41.1277 24.5388 41.7619 24.4017C41.6077 23.9388 41.3334 23.4417 40.9048 23.0474C41.7619 23.0817 42.7905 22.7731 43.3391 22.516C43.0305 22.0017 42.4648 21.436 41.9162 21.1445C42.6705 21.0588 43.9391 20.9217 44.5048 20.6645C44.2305 20.2703 43.6648 19.636 43.3048 19.4474C44.3162 19.3788 45.3619 19.0188 45.9105 18.7617C45.7219 18.4531 45.4305 18.1103 45.0877 17.836C46.0305 17.7674 46.9391 17.596 47.5905 17.2531C47.4534 16.9788 47.0248 16.4817 46.6648 16.2417C48.7391 15.676 48.7734 14.6645 48.7734 13.876Z" fill="#050F22"/>
<path id="XMLID_149_" d="M40.2706 16.019C37.4077 14.0305 33.9277 12.8647 30.1563 12.8647C26.7277 12.8647 23.5391 13.8419 20.8306 15.5219C21.5334 16.0705 21.9449 16.6533 22.0477 17.2533C22.1334 17.7847 22.202 18.419 21.8934 19.3447C21.5677 20.3219 21.3963 21.3333 22.1163 22.3619C22.8363 23.3733 23.7791 23.819 24.5506 23.9733C25.562 23.8019 26.6934 23.6476 27.8248 23.5619C27.962 23.0819 28.4077 22.6705 28.8363 22.3447C29.4706 21.8476 29.3334 21.419 29.1791 21.0933C29.0591 20.8362 28.8363 20.6133 28.5106 20.459C28.2191 20.3047 27.1906 20.2019 27.2248 20.8705C27.0534 20.6305 26.9163 20.3047 27.0191 19.8933C27.1563 19.3105 28.0991 19.1733 28.3391 19.1905C28.1506 19.0362 28.2706 18.7962 28.682 18.6762C29.1791 18.539 29.6591 18.5219 30.122 18.5219C31.0649 18.539 31.2191 18.779 31.6991 19.2076C32.282 19.7219 33.0534 19.9105 33.3449 19.5847C33.122 20.0819 32.4363 20.339 31.9906 20.2705C32.2134 20.9562 32.282 21.5562 32.3677 22.2762C32.402 22.6019 32.4706 23.1505 32.5563 23.5962C33.8249 23.699 35.1106 23.8705 36.2248 24.0933C36.6877 23.9562 37.1677 23.6819 37.5963 23.1847C38.0077 22.7219 38.3849 22.1219 38.2306 20.6133C38.1791 20.1847 37.9734 19.1047 38.0077 18.6076C38.0591 17.3733 38.9163 16.619 40.2706 16.019Z" fill="#050F22"/>
<path id="XMLID_150_" d="M28.4763 19.1734C28.6477 19.3105 28.7505 19.3277 28.8191 19.3105C28.8191 19.3448 28.8877 19.3791 28.9048 19.3963C28.9391 19.4305 28.9563 19.4648 28.9734 19.4991C29.0591 19.4648 29.2648 19.3791 29.4534 19.3105C29.642 19.242 29.9163 19.1562 29.9163 19.1562C29.0763 18.9848 28.9563 19.242 28.4763 19.1734Z" fill="#050F22"/>
<path id="XMLID_154_" d="M53.6419 22.6362C54.6876 22.1733 55.1676 21.0076 54.7219 19.9962C54.2762 18.9848 53.1105 18.5562 52.0648 19.0191C51.0191 19.4819 50.5391 20.6476 50.9848 21.6419C51.4134 22.6533 52.5962 23.0991 53.6419 22.6362ZM52.3905 19.7905C53.2134 19.4305 54.1562 19.6019 54.3962 20.1333C54.6362 20.6819 54.1219 21.4876 53.2991 21.8648C52.4762 22.2248 51.5162 22.0705 51.2762 21.5048C51.0362 20.9733 51.5505 20.1505 52.3905 19.7905Z" fill="#050F22"/>
<path id="XMLID_158_" d="M52.1848 25.3619L51.7734 23.7848L52.0134 23.7162L52.1334 24.1619L55.4762 23.3219L55.3562 22.8762L55.5962 22.8076L56.2134 25.2076L56.3677 25.1562L56.4534 25.4819L55.5277 25.7048L55.4419 25.3962L55.8705 25.2933L55.5619 24.0933L54.1905 24.4362L54.4305 25.3619L54.8248 25.259L54.9105 25.5676L53.7619 25.859L53.6762 25.5505L54.0877 25.4476L53.8477 24.5219L52.3219 24.9162L52.4248 25.2933L52.1848 25.3619Z" fill="#050F22"/>
<path id="XMLID_159_" d="M5.50477 21.1277L5.36762 21.6077L7.52762 22.2419C8.17905 22.4305 8.52191 22.7905 8.60762 23.3391C8.64191 23.6305 8.62477 23.9219 8.53905 24.2305C8.26477 25.1562 7.57905 25.6019 6.77334 25.3791L4.45905 24.6934L4.32191 25.1219L4.08191 25.0534L4.56191 23.4591L4.80191 23.5277L4.68191 23.9562L6.82477 24.5905C7.40762 24.7619 7.69905 24.7448 7.93905 24.4877C8.04191 24.3677 8.14477 24.2134 8.19619 24.0419C8.40191 23.3562 8.11048 22.8419 7.40762 22.6191L5.28191 21.9848L5.14477 22.4648L4.90477 22.3962L5.29905 21.0591L5.50477 21.1277Z" fill="#050F22"/>
<path id="XMLID_160_" d="M9.29339 22.0706C9.20768 22.2763 8.96768 22.362 8.76196 22.2763C8.55625 22.1906 8.47054 21.9506 8.55625 21.7449C8.64196 21.5392 8.88196 21.4363 9.08768 21.522C9.29339 21.6249 9.37911 21.8649 9.29339 22.0706Z" fill="#050F22"/>
<path id="XMLID_161_" d="M10.0477 20.3559L9.89344 20.6473L8.95058 20.1159L9.10486 19.8244L9.48201 20.0473C9.80772 19.9101 9.96201 19.773 10.1163 19.5159C10.3049 19.1901 10.2363 18.8473 9.96201 18.693C9.72201 18.5559 9.48201 18.6244 8.89915 18.933C8.28201 19.2587 8.19629 19.293 7.97343 19.3444C7.75058 19.3959 7.51058 19.3444 7.27058 19.2073C6.70486 18.8816 6.55058 18.2473 6.91058 17.613C7.03058 17.4073 7.15058 17.2701 7.33915 17.1159L7.18486 17.0301L7.33915 16.7559L8.23058 17.253L8.07629 17.5273L7.71629 17.3216C7.45915 17.4587 7.32201 17.5787 7.21915 17.7673C7.06486 18.0416 7.13343 18.3501 7.39058 18.4873C7.59629 18.6073 7.80201 18.5559 8.40201 18.2301C8.69343 18.0759 8.86486 17.973 8.95058 17.9559C9.10486 17.8873 9.27629 17.8359 9.46486 17.8359C9.68772 17.8187 9.87629 17.8701 10.082 17.9901C10.682 18.3159 10.8534 18.9844 10.5106 19.6016C10.3391 19.9101 10.1506 20.0816 9.87629 20.253L10.0477 20.3559Z" fill="#050F22"/>
<path id="XMLID_166_" d="M11.6077 17.6477C11.6077 17.8706 11.4363 18.042 11.2134 18.042C10.9906 18.042 10.8192 17.8706 10.8192 17.6477C10.8192 17.4248 10.9906 17.2534 11.2134 17.2534C11.4363 17.2534 11.6077 17.4248 11.6077 17.6477Z" fill="#050F22"/>
<path id="XMLID_167_" d="M20.8476 9.96729L18.3276 11.2702L18.2076 11.0302L18.6191 10.8244L17.0419 7.77301L16.6305 7.97872L16.5276 7.75587L18.7048 6.62444L18.6362 6.48729L18.9105 6.33301L19.3562 7.17301L19.0819 7.32729L18.8762 6.93301L17.7791 7.49872L18.4134 8.76729L19.2705 8.32158L19.0819 7.96158L19.3734 7.80729L19.9048 8.85301L19.6134 9.00729L19.4248 8.63015L18.5848 9.07587L19.2534 10.3959L20.4019 9.79587L20.2134 9.40158L20.4877 9.24729L20.8476 9.96729Z" fill="#050F22"/>
<path id="XMLID_168_" d="M23.2991 9.07601L21.6534 9.62458L21.5677 9.38458L21.9963 9.24744L20.9163 5.97315L20.4877 6.11029L20.402 5.87029L22.1163 5.30458C22.8191 5.06458 23.4191 5.33886 23.642 5.99029C23.8477 6.60744 23.4705 7.29315 22.802 7.51601C22.6991 7.55029 22.6477 7.56744 22.4763 7.58458L22.3905 7.31029C22.4763 7.31029 22.4934 7.29315 22.5448 7.27601C22.9391 7.15601 23.0591 6.79601 22.8877 6.29887C22.7163 5.76744 22.4077 5.56172 21.9963 5.69887L21.6534 5.81886L22.7163 9.00744L23.1963 8.85315L23.2991 9.07601Z" fill="#050F22"/>
<path id="XMLID_171_" d="M28.1506 7.75588L27.8934 7.79016L25.7848 4.27588L25.4248 4.34445L24.5506 8.37302L24.1906 8.44159L24.242 8.68159L25.4591 8.47588L25.4077 8.23588L24.9448 8.32159L25.1677 7.31017L26.5906 7.07016L27.122 7.96159L26.7106 8.03016L26.762 8.27016L28.202 8.01302L28.1506 7.75588ZM25.2363 6.89874L25.5791 5.32159L26.402 6.69302L25.2363 6.89874Z" fill="#050F22"/>
<path id="XMLID_174_" d="M32.282 7.75603H32.042C31.922 7.75603 31.8534 7.7046 31.7163 7.49888L30.8763 6.19603C31.442 6.0246 31.7163 5.68174 31.7163 5.13317C31.7163 4.80745 31.6306 4.56745 31.4248 4.36174C31.2191 4.15603 30.9277 4.07031 30.4134 4.07031H28.6477V4.32746H29.0934V7.77317H28.6306V8.03031H30.3106V7.77317H29.8648V6.2646H30.0191L30.9106 7.67031C31.1163 7.97888 31.1677 8.03031 31.5277 8.03031H32.282V7.75603ZM29.8477 4.39603H30.2248C30.6534 4.39603 30.8934 4.67031 30.8934 5.15031C30.8934 5.61317 30.602 5.95603 30.1906 5.95603H29.8306L29.8477 4.39603Z" fill="#050F22"/>
<path id="XMLID_175_" d="M34.9906 8.49343L33.0877 8.16772L33.122 7.91058L33.6877 8.01343L34.2534 4.72201L33.242 4.55058L33.1563 5.03058L32.8306 4.97915L33.002 3.98486L33.3277 4.03629L33.2934 4.19058L36.0877 4.67058L36.122 4.49915L36.4306 4.56772L36.2763 5.56201L35.9506 5.51058L36.0363 5.01343L35.0077 4.84201L34.4591 8.13343L35.0248 8.23629L34.9906 8.49343Z" fill="#050F22"/>
<path id="XMLID_176_" d="M40.5619 10.3787L38.9162 9.7273L39.0019 9.4873L39.4648 9.67587L40.4077 7.27587L38.1277 9.4873L37.8191 6.31587L36.8934 8.68158L37.3734 8.87016L37.2877 9.09301L35.9848 8.59587L36.0877 8.35587L36.5505 8.54444L37.8019 5.33873L37.3219 5.15016L37.4248 4.91016L38.4019 5.30444L38.7277 8.4073L40.8877 6.26444L41.9848 6.69301L41.8991 6.93301L41.4362 6.74444L40.1848 9.95016L40.6648 10.1387L40.5619 10.3787Z" fill="#050F22"/>
<path id="XMLID_177_" d="M43.4763 12.2817L41.0763 10.7388L41.2134 10.5331L41.5906 10.7731L43.4592 7.87594L43.0649 7.63594L43.202 7.41309L45.2763 8.75023L45.362 8.59594L45.6363 8.78451L45.1391 9.57309L44.8649 9.40166L45.0877 9.04166L44.042 8.37309L43.2877 9.57309L44.0934 10.0874L44.3163 9.74451L44.5906 9.8988L43.9563 10.8931L43.682 10.7388L43.9049 10.3788L43.0991 9.86451L42.3106 11.0988L43.3906 11.8017L43.6306 11.4417L43.9049 11.6131L43.4763 12.2817Z" fill="#050F22"/>
<path id="XMLID_180_" d="M16.202 12.4363L15.8077 12.7277L13.8705 10.0877L14.282 9.77916C14.8477 9.36773 15.7734 9.62487 16.2877 10.3277C16.8362 11.082 16.802 11.9906 16.202 12.4363ZM16.9562 9.83058C16.3048 8.93916 15.0877 8.76773 14.1791 9.4363L12.6705 10.5334L12.8248 10.7392L13.1848 10.4649L15.2248 13.242C15.3277 13.2763 15.4134 13.3106 15.5162 13.3449L16.5105 12.6077C16.9905 12.2649 17.2305 11.8877 17.3162 11.3734C17.4191 10.8249 17.282 10.2763 16.9562 9.83058Z" fill="#050F22"/>
<path id="XMLID_181_" d="M48.5676 11.4592L48.3962 11.6478L48.7391 11.9563L47.0419 13.8078L47.4705 10.4649L46.5962 9.65918L46.4248 9.84775L46.7505 10.1392L46.6819 10.4992L44.5734 12.8135L44.2134 12.4706L44.0419 12.6592L45.0362 13.5678L45.2076 13.3792L44.8648 13.0535L46.6305 11.1163L46.2534 14.1849C46.6134 14.082 47.0076 13.9792 47.4362 13.8763C47.4705 13.8592 47.5048 13.8592 47.5391 13.842L49.0476 12.1963L49.4248 12.5392L49.5962 12.3506L48.5676 11.4592Z" fill="#050F22"/>
<path id="XMLID_182_" d="M52.5962 15.7963L52.4591 15.8992L50.7448 13.6535L50.8819 13.5506L50.6762 13.2935L49.8705 13.9106L50.0762 14.1677L50.4705 13.8592L51.1048 14.682L48.4476 16.7049L48.3105 16.5163C48.2248 16.5506 48.1562 16.602 48.0705 16.6363L49.0476 17.922L49.2534 17.7677L48.9105 17.322L51.5676 15.282L52.1848 16.1049L51.7905 16.4135L51.9962 16.6706L52.8019 16.0535L52.5962 15.7963Z" fill="#050F22"/>
<path id="XMLID_183_" d="M35.1105 56.8531L34.7848 56.9217L34.5619 55.8759L34.8877 55.8074L34.9734 56.2359C35.2819 56.3902 35.5048 56.4245 35.7791 56.3559C36.1391 56.2702 36.3619 55.9959 36.2934 55.7045C36.2419 55.4474 36.0191 55.2931 35.4019 55.0531C34.7505 54.8131 34.6648 54.7788 34.4762 54.6245C34.2877 54.4874 34.1677 54.2645 34.1162 54.0074C33.9791 53.3731 34.3562 52.8417 35.0762 52.6702C35.2991 52.6188 35.4877 52.6188 35.7277 52.6531L35.6934 52.4817L36.0019 52.4131L36.2248 53.4074L35.9162 53.4759L35.8305 53.0817C35.5562 52.9788 35.3848 52.9445 35.1619 52.9959C34.8534 53.0645 34.6648 53.3388 34.7334 53.6131C34.7848 53.8531 34.9562 53.9559 35.5905 54.1959C35.8991 54.3159 36.0877 54.3845 36.1562 54.4017C36.3105 54.4702 36.4648 54.5731 36.6019 54.7102C36.7562 54.8645 36.8419 55.0531 36.8934 55.2759C37.0305 55.9445 36.6534 56.5102 35.9677 56.6645C35.6248 56.7331 35.3677 56.7159 35.0762 56.6302L35.1105 56.8531Z" fill="#050F22"/>
<path id="XMLID_184_" d="M41.1963 54.9332L38.5391 55.9789L38.4534 55.7389L38.882 55.5846L37.6134 52.3789L37.1848 52.5332L37.0991 52.3103L39.3963 51.4017L39.3277 51.2474L39.6363 51.1274L39.9791 52.0189L39.6877 52.1389L39.5334 51.7274L38.3677 52.1903L38.882 53.4932L39.7734 53.1503L39.6363 52.7732L39.9277 52.6532L40.3563 53.7503L40.0648 53.8703L39.9105 53.476L39.0191 53.8189L39.5505 55.2074L40.7677 54.7274L40.5963 54.316L40.9048 54.196L41.1963 54.9332Z" fill="#050F22"/>
<path id="XMLID_185_" d="M45.1734 52.5161C44.8305 52.9447 44.6076 53.1675 44.2134 53.3904C43.1334 54.0418 41.9334 53.7847 41.3162 52.7732C40.6991 51.7618 41.0248 50.5447 42.0534 49.9275C42.3791 49.7218 42.6362 49.6361 43.0134 49.5847L42.8762 49.3789L43.1505 49.2075L43.6991 50.1161L43.4248 50.2875L43.2191 49.9618C42.8077 49.9447 42.6019 49.9789 42.3276 50.1332C41.6248 50.5618 41.4876 51.4532 42.0019 52.3104C42.4991 53.1332 43.4419 53.4589 44.1448 53.0304C44.4019 52.8761 44.5562 52.7047 44.6934 52.4132L44.4534 52.0189L44.7448 51.8475L45.1734 52.5161Z" fill="#050F22"/>
<path id="XMLID_186_" d="M46.9734 46.3447L46.5962 46.6876L48.1048 48.3504C48.5677 48.8476 48.6705 49.3276 48.4648 49.8419C48.3448 50.1161 48.1734 50.3561 47.9505 50.5619C47.2305 51.2133 46.4077 51.2476 45.8591 50.6304L44.2305 48.8476L43.8877 49.1561L43.7162 48.9676L44.9505 47.8361L45.122 48.0247L44.7962 48.3333L46.3048 49.979C46.7162 50.4247 46.9734 50.5619 47.3162 50.4761C47.4705 50.4247 47.6248 50.339 47.762 50.219C48.2934 49.739 48.3105 49.139 47.8134 48.6076L46.322 46.9619L45.962 47.3047L45.7905 47.1161L46.8191 46.1904L46.9734 46.3447Z" fill="#050F22"/>
<path id="XMLID_187_" d="M53.6934 42.8647L52.8877 44.3219L52.6648 44.2019L52.8877 43.8076L49.8534 42.1619L49.6477 42.5733L49.4248 42.4533L50.2134 40.979L50.4362 41.099L50.2305 41.4933L53.2648 43.1219L53.4705 42.7447L53.6934 42.8647Z" fill="#050F22"/>
<path id="XMLID_188_" d="M55.2191 39.2817L54.5334 41.0817L54.3106 40.996L54.5163 40.4474L51.3791 39.2645L51.0191 40.2417L51.482 40.4131L51.362 40.7217L50.4191 40.3617L50.522 40.0531L50.6934 40.1045L51.6877 37.4645L51.5334 37.396L51.6363 37.0874L52.5963 37.4474L52.4763 37.756L52.0134 37.5845L51.6534 38.5445L54.7734 39.7274L54.9791 39.196L55.2191 39.2817Z" fill="#050F22"/>
<path id="XMLID_189_" d="M56.282 34.8759L55.9563 36.5216L55.6991 36.4702L55.802 36.0416L54.1734 35.7159L52.1849 36.5388L52.1163 36.8988L51.8763 36.8473L52.1849 35.2188L52.442 35.2702L52.3563 35.6988L53.7963 35.1159L52.6648 34.0873L52.562 34.5845L52.322 34.533L52.5963 33.1616L52.8363 33.213L52.7506 33.6416L54.1734 34.9273L55.9391 35.2702L56.0249 34.8245L56.282 34.8759Z" fill="#050F22"/>
<path id="XMLID_192_" d="M48.1048 44.9734L48.3276 44.6648C48.5848 44.322 48.9448 44.2877 49.339 44.5791C49.7162 44.8534 49.819 45.282 49.5619 45.6077L49.3562 45.882L48.1048 44.9734ZM52.2533 45.0077L52.099 45.2134C52.0305 45.3163 51.9448 45.3334 51.6876 45.3163L50.1276 45.2134C50.3333 44.6648 50.2133 44.2363 49.7848 43.9105C49.5276 43.722 49.2705 43.6534 48.9962 43.6877C48.6876 43.7391 48.4648 43.9105 48.1562 44.3391L47.1105 45.762L47.3162 45.9163L47.5905 45.5563L50.3505 47.6134L50.0762 47.9734L50.2819 48.1277L51.2762 46.7905L51.0705 46.6363L50.7962 46.9963L49.5962 46.0877L49.699 45.9677L51.3619 46.0877C51.739 46.1048 51.8076 46.0877 52.0133 45.7963L52.459 45.1791L52.2533 45.0077Z" fill="#050F22"/>
<path id="XMLID_193_" d="M4.88763 38.5791L4.4762 36.9505L4.7162 36.8991L4.83621 37.3277L6.36192 36.9505L5.89906 35.0648L4.37335 35.442L4.4762 35.8705L4.23621 35.9391L3.84192 34.3105L4.08192 34.242L4.18478 34.6877L7.52763 33.882L7.42478 33.4363L7.66478 33.3677L8.05906 34.9962L7.81906 35.0648L7.7162 34.6191L6.24192 34.9791L6.70478 36.8648L8.17906 36.5048L8.0762 36.0762L8.31621 36.0077L8.71049 37.6362L8.47049 37.7048L8.36763 37.2591L5.00763 38.082L5.12763 38.5277L4.88763 38.5791Z" fill="#050F22"/>
<path id="XMLID_196_" d="M8.45339 42.316C9.4991 41.836 9.94482 40.6703 9.4991 39.676C9.03625 38.6817 7.85339 38.2532 6.82482 38.7332C5.79625 39.2132 5.31625 40.3789 5.7791 41.3732C6.20768 42.3675 7.40768 42.796 8.45339 42.316ZM7.15053 39.4875C7.97339 39.1103 8.91625 39.2646 9.17339 39.8132C9.43053 40.3617 8.91625 41.1846 8.09339 41.5617C7.27053 41.9389 6.31053 41.7846 6.07053 41.236C5.81339 40.6875 6.32768 39.8646 7.15053 39.4875Z" fill="#050F22"/>
<path id="XMLID_197_" d="M9.96191 47.9902L8.91619 46.5502L9.12191 46.413L9.41334 46.8244L11.5048 45.2987L8.40191 45.933L9.84191 43.1044L7.80191 44.5787L8.09334 44.9902L7.88762 45.1444L7.08191 44.0302L7.28762 43.8759L7.57905 44.2873L10.3733 42.2644L10.0648 41.853L10.2705 41.6987L10.8876 42.5559L9.48191 45.3502L12.4648 44.7159L13.1676 45.6759L12.9619 45.8302L12.6533 45.4187L9.87619 47.4416L10.1676 47.853L9.96191 47.9902Z" fill="#050F22"/>
<path id="XMLID_198_" d="M13.082 51.0589L10.9734 49.1218L11.1448 48.9503L11.4877 49.2418L13.8191 46.7218L13.4934 46.4132L13.6648 46.2246L15.4648 47.8875L15.5848 47.7675L15.8248 47.9903L15.1734 48.6932L14.9505 48.4703L15.2248 48.1618L14.3162 47.3218L13.3562 48.3503L14.0591 49.0018L14.3505 48.6932L14.5905 48.916L13.7848 49.7732L13.5448 49.5675L13.8191 49.2589L13.1162 48.6075L12.122 49.6875L13.082 50.5789L13.3734 50.2532L13.6134 50.476L13.082 51.0589Z" fill="#050F22"/>
<path id="XMLID_199_" d="M16.6305 53.493L14.2991 51.9159L14.4362 51.7102L14.8134 51.9673L16.7334 49.1045L16.3562 48.8473L16.4934 48.6416L17.8819 49.5845L17.7448 49.7902L17.3676 49.533L15.5162 52.3102L16.5619 53.0302L16.8191 52.653L17.0762 52.8416L16.6305 53.493Z" fill="#050F22"/>
<path id="XMLID_202_" d="M20.9505 55.3274L20.7277 55.2246L20.9677 51.1274L20.642 50.9731L17.6591 53.8189L17.3162 53.6646L17.2134 53.8874L18.3448 54.4017L18.4477 54.1789L18.002 53.9731L18.7562 53.2531L20.0762 53.8531L20.0077 54.8817L19.6305 54.7103L19.5277 54.9331L20.8477 55.5331L20.9505 55.3274ZM19.0134 52.9789L20.1791 51.8646L20.0762 53.4589L19.0134 52.9789Z" fill="#050F22"/>
<path id="XMLID_203_" d="M25.0819 56.7333L24.6705 56.6476L23.3333 53.3048L22.7333 55.8419L23.179 55.9619L23.1276 56.2019L21.8076 55.8933L21.8762 55.6362L22.3562 55.7562L23.0762 52.7048L22.9733 52.3619L22.5448 52.259L22.6133 52.019L23.7619 52.2933L25.0133 55.4305L25.5962 52.9962L25.1333 52.8762L25.1848 52.6362L26.5048 52.9448L26.4362 53.2019L25.9562 53.0819L25.0819 56.7333Z" fill="#050F22"/>
<path id="XMLID_206_" d="M28.8191 57.0246C29.4019 57.0418 29.8305 56.9046 30.2248 56.5618C30.6534 56.1846 30.8934 55.6703 30.9105 55.1218C30.9448 54.0246 30.1048 53.1332 28.9734 53.0818L27.1048 53.0132V53.2703L27.5505 53.2875L27.4305 56.7332L26.9848 56.716V56.9732L28.8191 57.0246ZM28.3562 53.5446L28.8534 53.5618C29.5562 53.596 30.1219 54.3675 30.0877 55.2418C30.0534 56.1846 29.4534 56.8703 28.7162 56.836L28.2362 56.8189L28.3562 53.5446Z" fill="#050F22"/>
<path id="XMLID_207_" d="M30.1562 39.4877H29.9676C29.8648 38.8877 29.4362 38.5277 28.8019 38.322C28.3219 38.1677 27.6191 37.9449 26.1448 37.4991C24.4134 36.9677 23.5391 35.5791 23.4191 33.8306C23.2476 31.362 23.0077 27.0249 22.9219 24.2649C24.8762 23.7849 27.7391 23.4077 30.1734 23.4077C32.5905 23.4077 35.4705 23.7849 37.4248 24.2649C37.3391 27.0249 37.0819 31.362 36.9277 33.8306C36.8077 35.5791 35.9334 36.9677 34.2019 37.4991C32.7105 37.962 32.0248 38.1849 31.5448 38.322C30.9105 38.5106 30.4819 38.8877 30.3791 39.4877H30.1562Z" fill="#F3F4F7"/>
<path id="XMLID_208_" d="M29.6591 33.196L29.2991 33.0246L29.0762 32.4246L28.562 32.2017L27.9791 31.6874L27.6362 32.0646L27.122 32.1846L26.8477 32.6131L26.4362 33.0588L25.8705 33.3674L25.4762 34.036L25.2534 34.3274L24.8762 34.6188L24.6705 34.396L24.4477 34.6188L24.1734 35.1503C24.0191 34.756 23.9334 34.4646 23.882 33.8303C23.7962 32.6646 23.7105 31.2074 23.6248 29.7331C25.5448 29.3217 27.9791 29.0474 29.9505 29.0303V33.5388C29.8477 33.4531 29.762 33.4188 29.6591 33.196Z" fill="#050F22"/>
<path id="XMLID_209_" d="M29.9334 35.373H24.2419C24.3277 35.5445 24.4134 35.7159 24.5334 35.8702C24.9448 36.453 25.5277 36.8645 26.2648 37.1045C27.2762 37.413 27.9105 37.6188 28.3734 37.7559L28.9219 37.9273C29.3848 38.0645 29.6934 38.2702 29.9162 38.493L29.9334 35.373Z" fill="#050F22"/>
<path id="XMLID_210_" d="M35.9334 33.1616C36.0877 33.0416 36.2763 32.8873 36.4991 32.8016C36.5334 32.2702 36.5677 31.7045 36.602 31.1216C36.5334 31.1559 36.482 31.2245 36.3963 31.2759C36.122 31.4988 35.7791 31.7731 35.1963 31.7731C34.6306 31.7731 34.2706 31.5502 33.9791 31.3616C33.7391 31.2073 33.5506 31.1045 33.2763 31.1045C32.9677 31.1045 32.7106 31.2588 32.4191 31.4302C32.1106 31.6016 31.7677 31.8074 31.3563 31.8074C30.9277 31.8074 30.6191 31.6702 30.362 31.5331V33.1273C30.4134 33.1616 30.482 33.1959 30.5334 33.2302C30.7906 33.3845 31.0134 33.5216 31.3563 33.5216C31.5791 33.5216 31.7849 33.3845 32.042 33.2474C32.3849 33.0416 32.762 32.8188 33.2763 32.8188C33.7563 32.8188 34.082 33.0073 34.3734 33.1959C34.6306 33.3502 34.8534 33.4873 35.1963 33.4873C35.5391 33.5045 35.7106 33.3502 35.9334 33.1616Z" fill="#050F22"/>
<path id="XMLID_211_" d="M31.3733 36.8132C30.9447 36.8132 30.6362 36.676 30.379 36.5389V38.4932C30.6019 38.2703 30.9276 38.0646 31.3733 37.9274L31.9219 37.756C32.3847 37.6017 33.019 37.4132 34.0305 37.1046C34.3219 37.0189 34.5962 36.8989 34.8362 36.7446C34.4762 36.676 34.2019 36.5217 33.979 36.3846C33.739 36.2303 33.5505 36.1274 33.2762 36.1274C32.9676 36.1274 32.7105 36.2817 32.419 36.4532C32.1276 36.6074 31.7847 36.8132 31.3733 36.8132Z" fill="#050F22"/>
<path id="XMLID_212_" d="M35.9334 30.7104C36.122 30.5561 36.3449 30.3847 36.6534 30.3161C36.6706 30.1104 36.6706 29.9047 36.6877 29.6989C34.7677 29.2875 32.3506 29.0132 30.362 28.9961V30.6932C30.4134 30.7275 30.482 30.7618 30.5334 30.7961C30.7906 30.9504 31.0134 31.0875 31.3563 31.0875C31.5791 31.0875 31.7849 30.9504 32.042 30.8132C32.3849 30.6075 32.762 30.3847 33.2763 30.3847C33.7563 30.3847 34.082 30.5904 34.3734 30.7618C34.6306 30.9161 34.8534 31.0532 35.1963 31.0532C35.5391 31.0532 35.7106 30.8989 35.9334 30.7104Z" fill="#050F22"/>
<path id="XMLID_213_" d="M30.379 34.0188V35.6817C30.4305 35.716 30.499 35.7503 30.5505 35.7846C30.8076 35.9388 31.0305 36.076 31.3733 36.076C31.5962 36.076 31.8019 35.9388 32.059 35.8017C32.4019 35.596 32.779 35.3731 33.2933 35.3731C33.7733 35.3731 34.099 35.5617 34.3905 35.7503C34.6476 35.9046 34.8705 36.0417 35.2133 36.0417C35.4876 36.0417 35.659 35.9388 35.8305 35.8188C36.1905 35.2703 36.4133 34.6017 36.4647 33.8303C36.4647 33.796 36.4647 33.7617 36.4647 33.7274C36.4476 33.7446 36.4305 33.7446 36.4133 33.7617C36.139 33.9846 35.7962 34.2588 35.2133 34.2588C34.6476 34.2588 34.2876 34.036 33.9962 33.8646C33.7562 33.7103 33.5676 33.6074 33.2933 33.6074C32.9847 33.6074 32.7276 33.7617 32.4362 33.9331C32.1276 34.1046 31.7847 34.3103 31.3733 34.3103C30.9447 34.2931 30.6362 34.156 30.379 34.0188Z" fill="#050F22"/>
<path id="XMLID_214_" d="M23.5905 29.2706C23.5048 27.6077 23.4191 25.9449 23.3677 24.6249C25.3905 24.162 28.0477 23.8706 30.1562 23.8706C32.2477 23.8706 34.922 24.1792 36.9448 24.6249C36.8934 25.9449 36.8248 27.6249 36.722 29.2706C34.8191 28.8763 32.3162 28.5677 30.1562 28.5677C27.9962 28.5677 25.4934 28.8592 23.5905 29.2706Z" fill="#050F22"/>
<path id="XMLID_215_" d="M24.9105 25.7045L24.9791 25.3445L24.6534 25.2073L25.0134 25.1559L25.0477 24.7959L25.202 25.1388L25.562 25.053L25.2877 25.3102L25.4762 25.6188L25.1505 25.4302L24.9105 25.7045Z" fill="#F3F4F7"/>
<path id="XMLID_216_" d="M27.122 25.4132L26.8134 25.2075L26.5563 25.4818L26.6592 25.1218L26.3334 24.9675L26.6934 24.9332L26.7449 24.5732L26.882 24.9161L27.242 24.8647L26.9506 25.0875L27.122 25.4132Z" fill="#F3F4F7"/>
<path id="XMLID_217_" d="M28.7848 25.2932L28.4934 25.0704L28.2191 25.3275L28.3391 24.9675L28.0134 24.7961L28.3734 24.7789L28.4591 24.4189L28.5619 24.7789L28.9219 24.7275L28.6305 24.9504L28.7848 25.2932Z" fill="#F3F4F7"/>
<path id="XMLID_218_" d="M30.4477 25.242L30.1562 25.0191L29.8819 25.242L30.0191 24.9162L29.7105 24.7105L30.0705 24.7277L30.1562 24.3677L30.2591 24.7277L30.6191 24.7105L30.3105 24.9162L30.4477 25.242Z" fill="#F3F4F7"/>
<path id="XMLID_219_" d="M35.1619 25.4473L34.8534 25.6188L35.0419 25.3102L34.7676 25.053L35.1276 25.1388L35.2648 24.7959L35.2991 25.1559L35.6762 25.2073L35.3334 25.3616L35.4191 25.7045L35.1619 25.4473Z" fill="#F3F4F7"/>
<path id="XMLID_220_" d="M33.362 25.0875L33.0877 24.8647L33.4477 24.9161L33.5677 24.5732L33.6363 24.9332L33.9963 24.9504L33.6706 25.1218L33.7563 25.4818L33.4991 25.2075L33.1906 25.4132L33.362 25.0875Z" fill="#F3F4F7"/>
<path id="XMLID_221_" d="M31.6819 24.9503L31.4077 24.7275L31.7677 24.7789L31.8705 24.436L31.9562 24.796H32.3162L31.9905 24.9675L32.1105 25.3275L31.8362 25.0703L31.5448 25.2932L31.6819 24.9503Z" fill="#F3F4F7"/>
<path id="XMLID_222_" d="M25.1505 28.3959L25.2362 28.0359L24.8934 27.8816L25.2534 27.8473L25.3048 27.4873L25.4419 27.8302L25.8019 27.7444L25.5277 28.0016L25.7162 28.3102L25.3905 28.1216L25.1505 28.3959Z" fill="#F3F4F7"/>
<path id="XMLID_223_" d="M27.3105 28.1217L27.0019 27.916L26.7448 28.1732L26.8305 27.8303L26.5219 27.6589L26.8819 27.6417L26.9333 27.2817L27.0705 27.6246L27.4305 27.5732L27.1391 27.796L27.3105 28.1217Z" fill="#F3F4F7"/>
<path id="XMLID_224_" d="M28.9049 28.0017L28.6134 27.796L28.3391 28.036L28.4591 27.6931L28.1334 27.5045H28.4934L28.5791 27.1445L28.682 27.4874L29.042 27.4531L28.7506 27.676L28.9049 28.0017Z" fill="#F3F4F7"/>
<path id="XMLID_225_" d="M30.4991 27.9847L30.2248 27.7447L29.9334 27.9847L30.0705 27.6418L29.762 27.4361L30.122 27.4533L30.2248 27.0933L30.3105 27.4533L30.6705 27.4361L30.362 27.6418L30.4991 27.9847Z" fill="#F3F4F7"/>
<path id="XMLID_226_" d="M35.042 28.1392L34.7334 28.3277L34.9048 28.0192L34.6306 27.762L34.9906 27.8477L35.1448 27.5049L35.1791 27.8649L35.5391 27.8992L35.2134 28.0535L35.282 28.4135L35.042 28.1392Z" fill="#F3F4F7"/>
<path id="XMLID_227_" d="M33.2934 27.8131L33.0191 27.5731L33.3791 27.6417L33.4991 27.2988L33.5505 27.6588L33.9277 27.676L33.602 27.8474L33.6877 28.1903L33.4305 27.9331L33.122 28.1388L33.2934 27.8131Z" fill="#F3F4F7"/>
<path id="XMLID_228_" d="M31.682 27.6759L31.3906 27.4702L31.7506 27.5045L31.8706 27.1616L31.9391 27.5045L32.2991 27.5216L31.9906 27.693L32.0934 28.053L31.8191 27.7959L31.5277 28.0188L31.682 27.6759Z" fill="#F3F4F7"/>
<path id="XMLID_229_" d="M25.9391 26.8016L26.0248 26.4587L25.6991 26.2873L26.0591 26.2702L26.1105 25.9102L26.2477 26.2359L26.6077 26.1844L26.3334 26.4073L26.5048 26.733L26.1962 26.5444L25.9391 26.8016Z" fill="#F3F4F7"/>
<path id="XMLID_230_" d="M24.362 27.059L24.4306 26.699L24.1049 26.5618L24.4649 26.5104L24.4991 26.1504L24.6363 26.4761L24.9963 26.4075L24.722 26.6475L24.9106 26.9732L24.602 26.7847L24.362 27.059Z" fill="#F3F4F7"/>
<path id="XMLID_231_" d="M28.0991 26.5788L27.7905 26.3731L27.5333 26.6302L27.6362 26.2702L27.3105 26.0988H27.6876L27.7391 25.7388L27.8591 26.0816L28.2191 26.0302L27.9448 26.2531L28.0991 26.5788Z" fill="#F3F4F7"/>
<path id="XMLID_232_" d="M29.6762 26.5105L29.4019 26.2877L29.1277 26.5277L29.2477 26.1848L28.9391 25.9962H29.2991L29.3677 25.6362L29.4877 25.9962L29.8477 25.9619L29.5391 26.1677L29.6762 26.5105Z" fill="#F3F4F7"/>
<path id="XMLID_233_" d="M31.2705 26.5277L30.9962 26.2877L30.7048 26.5105L30.859 26.1677L30.5505 25.9619L30.9105 25.9962L31.0305 25.6362L31.099 25.9962H31.459L31.1505 26.1848L31.2705 26.5277Z" fill="#F3F4F7"/>
<path id="XMLID_234_" d="M35.7963 26.8018L35.4877 26.9732L35.6763 26.6646L35.402 26.4075L35.762 26.4932L35.9163 26.1675L35.9505 26.5275L36.3105 26.5789L35.9677 26.7161L36.0363 27.0761L35.7963 26.8018Z" fill="#F3F4F7"/>
<path id="XMLID_235_" d="M34.0648 26.4244L33.7905 26.1844L34.1505 26.253L34.2877 25.9102L34.3391 26.2702L34.6991 26.3044L34.3734 26.4587L34.4591 26.8187L34.202 26.5616L33.8934 26.7502L34.0648 26.4244Z" fill="#F3F4F7"/>
<path id="XMLID_236_" d="M32.4534 26.2702L32.1791 26.0302L32.5391 26.0816L32.6591 25.7388L32.7105 26.0988L33.0877 26.1159L32.7619 26.2873L32.8648 26.6302L32.6076 26.3902L32.2991 26.5959L32.4534 26.2702Z" fill="#F3F4F7"/>
<path id="XMLID_237_" d="M13.9906 34.6532C14.522 33.8989 15.5334 33.7275 15.0706 31.6875C13.9392 32.1846 13.4077 33.6075 13.9906 34.6532Z" fill="#F3F4F7"/>
<path id="XMLID_238_" d="M13.9219 29.5444C13.5619 29.6987 13.0476 30.1959 12.8076 30.8644C13.1848 31.3101 13.3562 31.8587 13.339 32.3387C14.0419 31.7216 14.2819 30.6244 13.9219 29.5444Z" fill="#F3F4F7"/>
<path id="XMLID_239_" d="M14.5905 36.6077C14.642 36.6077 14.642 36.6248 14.5905 36.6077C14.042 36.2991 13.6648 36.1962 12.9277 36.282C13.6134 36.3505 14.1105 36.4362 14.5905 36.6077Z" fill="#F3F4F7"/>
<path id="XMLID_240_" d="M16.8362 39.0933C16.8362 39.1104 16.8191 39.1275 16.8191 39.1447C16.8019 39.9675 17.3334 40.8933 16.3905 42.1961C16.3391 42.3504 16.2877 42.6933 16.7677 42.1104C17.7277 40.9618 16.9048 40.0361 16.8362 39.0933Z" fill="#F3F4F7"/>
<path id="XMLID_241_" d="M14.9334 40.3792C15.0191 39.8649 15.362 39.2477 15.8591 38.8363C16.202 38.5449 16.4077 38.442 16.1163 38.7506C15.6534 39.2134 15.1391 39.9677 14.9334 40.3792Z" fill="#F3F4F7"/>
<path id="XMLID_242_" d="M16.0305 41.7847C15.8419 41.3047 16.0133 40.5333 16.219 40.019C16.3562 39.6761 16.7162 39.1447 16.8362 39.0933C16.4248 39.6933 15.9962 41.3218 16.0305 41.7847Z" fill="#F3F4F7"/>
<path id="XMLID_243_" d="M14.419 35.0474C14.3848 34.8588 14.2133 34.7388 14.0248 34.7903C13.8362 34.8246 13.7162 34.996 13.7676 35.1845C13.8019 35.3731 13.9905 35.4931 14.1619 35.4588C14.3333 35.4074 14.4533 35.2188 14.419 35.0474Z" fill="#F3F4F7"/>
<path id="XMLID_244_" d="M17.3505 35.5104C17.3676 35.0132 17.2819 34.4818 17.3505 33.8989C16.3391 34.6361 15.9962 35.9218 16.4248 36.8132C16.3733 36.8132 16.3391 36.7961 16.2876 36.8132C16.0991 36.8475 15.9791 37.0361 16.0133 37.2246C16.0476 37.4132 16.2362 37.5332 16.4248 37.4989C16.6133 37.4646 16.7333 37.2761 16.6991 37.0875C16.6819 36.9846 16.6305 36.9161 16.5448 36.8646C16.3733 36.0761 16.5105 35.0818 16.9391 34.6532C16.8019 35.1504 16.5791 36.1961 16.7333 37.1561C16.9048 36.9675 17.0248 36.7961 17.1105 36.6075C17.1276 36.7618 17.1619 36.9161 17.2305 37.0875C17.2476 36.3161 17.5048 35.5618 18.3105 35.0304C17.7276 35.7675 17.4019 36.6246 17.3333 37.2761C17.7619 36.7446 18.7219 36.5732 18.7905 34.4646C18.2762 34.6189 17.6933 34.9789 17.3505 35.5104Z" fill="#F3F4F7"/>
<path id="XMLID_245_" d="M18.0191 37.6703C17.9849 37.4646 17.7791 37.3446 17.5906 37.3789C17.3849 37.4131 17.2649 37.6189 17.2991 37.8074C17.3334 38.0131 17.5391 38.1331 17.7277 38.0989C17.9334 38.0646 18.0706 37.8589 18.0191 37.6703Z" fill="#F3F4F7"/>
<path id="XMLID_246_" d="M17.899 38.7845C17.8648 38.5788 17.659 38.4588 17.4705 38.4931C17.2819 38.5274 17.1448 38.7331 17.179 38.9217C17.2133 39.1274 17.419 39.2474 17.6076 39.2131C17.8133 39.1617 17.9333 38.9731 17.899 38.7845Z" fill="#F3F4F7"/>
<path id="XMLID_247_" d="M15.7734 33.3677C15.0362 33.9848 14.8134 34.7734 14.8991 35.4591C14.8648 35.4591 14.8477 35.4591 14.8134 35.4591C14.6591 35.4934 14.5562 35.6477 14.5905 35.802C14.6248 35.9562 14.7791 36.0591 14.9162 36.0248C14.9505 36.0248 14.9848 36.0077 15.0191 35.9905C15.0877 36.1962 15.1905 36.3677 15.2934 36.522C15.2248 36.2991 15.1734 36.042 15.1562 35.7848C15.1562 35.7505 15.1562 35.7162 15.1562 35.6991V35.682C15.122 35.0991 15.2077 34.4991 15.5334 34.0534C15.4305 34.6877 15.2762 35.922 15.4305 36.6762C15.6362 35.8705 16.802 35.5105 15.7734 33.3677Z" fill="#F3F4F7"/>
<path id="XMLID_248_" d="M18.7563 38.1675C18.722 38.0132 18.5677 37.9103 18.4134 37.9446C18.2591 37.9789 18.1563 38.1332 18.1906 38.2703C18.2249 38.4246 18.3791 38.5275 18.5334 38.4932C18.6877 38.476 18.7734 38.3217 18.7563 38.1675Z" fill="#F3F4F7"/>
<path id="XMLID_249_" d="M17.1791 38.1162C17.1448 37.979 17.0076 37.8762 16.8705 37.9105C16.7334 37.9447 16.6305 38.0819 16.6648 38.219C16.6991 38.3562 16.8362 38.459 16.9734 38.4247C17.1105 38.3905 17.1962 38.2533 17.1791 38.1162Z" fill="#F3F4F7"/>
<path id="XMLID_251_" d="M13.5962 34.4988C13.5791 34.3788 13.4762 34.293 13.3562 34.293C12.9791 33.7959 12.4648 33.2645 11.5734 33.1616C12.0534 33.3845 12.7905 33.8302 13.2876 34.293C13.1676 34.3273 13.0819 34.4473 13.1162 34.5673C13.1334 34.7045 13.2705 34.7902 13.4076 34.773C13.5276 34.7559 13.6134 34.6359 13.5962 34.4988Z" fill="#F3F4F7"/>
<path id="XMLID_252_" d="M13.5963 32.819C13.562 32.6475 13.4077 32.5447 13.2363 32.579H13.2191C13.0134 31.7904 12.8248 31.1904 11.9334 30.5732C12.3791 31.139 12.8934 31.979 13.1848 32.5961C13.0477 32.6475 12.9791 32.7847 12.9963 32.939C13.0306 33.1104 13.1848 33.2132 13.3563 33.179C13.5277 33.1618 13.6306 32.9904 13.5963 32.819Z" fill="#F3F4F7"/>
<path id="XMLID_253_" d="M14.5048 35.9049C14.4876 35.7677 14.3676 35.682 14.2305 35.6992C14.1619 35.7163 14.1105 35.7506 14.0762 35.802C13.2876 35.0992 12.7562 35.0992 12.3276 35.082C12.5848 35.1677 13.4762 35.4249 14.0419 35.8363C14.0248 35.8877 14.0076 35.9392 14.0248 35.9906C14.0419 36.1277 14.1791 36.2135 14.2991 36.1963C14.4362 36.162 14.5219 36.042 14.5048 35.9049Z" fill="#F3F4F7"/>
<path id="XMLID_257_" d="M15.1562 36.8817C15.1219 36.6931 14.9334 36.5731 14.7448 36.6074C14.5562 36.6417 14.4362 36.8303 14.4705 37.0188C14.5048 37.2074 14.6934 37.3274 14.8819 37.2931C15.0705 37.2588 15.1905 37.0703 15.1562 36.8817Z" fill="#F3F4F7"/>
<path id="XMLID_258_" d="M15.6705 37.4989C15.6534 37.3618 15.5162 37.276 15.3962 37.2932C15.3105 37.3103 15.2419 37.3618 15.2077 37.4303C14.5219 37.3446 13.7848 37.4303 13.1505 37.7903C13.8534 37.636 14.5905 37.4818 15.1905 37.4818C15.1734 37.516 15.1734 37.5503 15.1905 37.5846C15.2248 37.7218 15.3448 37.8075 15.4819 37.7903C15.6019 37.756 15.6877 37.6189 15.6705 37.4989Z" fill="#F3F4F7"/>
<path id="XMLID_259_" d="M16.3734 37.8931C16.3391 37.7216 16.1677 37.6188 15.9963 37.6531C15.8248 37.6873 15.722 37.8588 15.7563 38.0302H15.7391C15.2248 38.0131 14.3848 38.1502 13.8705 38.7673C14.402 38.4588 15.242 38.1331 15.7563 38.0645H15.7734C15.8077 38.2188 15.9791 38.3216 16.1334 38.2873C16.3048 38.2359 16.4077 38.0645 16.3734 37.8931Z" fill="#F3F4F7"/>
<path id="XMLID_260_" d="M20.8134 39.4873C22.2534 40.5673 23.0763 42.093 23.282 43.293C23.0934 43.1559 22.7677 43.0187 22.5448 43.053C22.3563 41.7673 21.6877 40.7387 20.642 39.8987C20.6934 39.7102 20.762 39.5902 20.8134 39.4873Z" fill="#F3F4F7"/>
<path id="XMLID_261_" d="M19.7162 40.6188C20.0591 40.7559 20.2305 40.7045 20.3162 40.5845C20.5048 40.3274 20.4191 39.9845 20.2991 39.9159C20.3334 40.0188 20.3162 40.1388 20.2991 40.2588C20.2819 40.3617 20.2305 40.5331 20.0419 40.4988C19.9391 40.4817 19.7505 40.4302 19.6476 40.3617C19.5619 40.3102 19.5619 40.1731 19.6134 40.0531C19.6305 40.0017 19.6648 39.9159 19.7334 39.8645C19.6134 39.8988 19.5448 39.9502 19.4591 40.0188C19.3734 40.0874 19.2362 40.1045 19.1505 40.0188C19.0477 39.9159 18.9962 39.8302 18.9619 39.7617C18.8762 39.5731 19.1162 39.4359 19.2534 39.3674C19.0134 39.3674 18.9619 39.4531 18.7734 39.4359C18.5677 39.4017 18.5334 39.0931 18.5334 38.9902C18.5334 38.9217 18.6191 38.8359 18.7391 38.8188C18.8419 38.8017 18.9791 38.8017 19.0476 38.8188C19.0305 38.7674 19.0305 38.7159 19.0305 38.6474C18.8419 38.5959 18.4477 38.6645 18.3791 38.7674C18.2934 38.9045 18.3105 38.9731 18.3791 39.2302C18.4477 39.4702 18.4991 39.5559 18.6534 39.5731C18.6876 39.5731 18.7734 39.5902 18.8762 39.5559C18.8248 39.5902 18.7905 39.6074 18.7734 39.6759C18.7391 39.7445 18.7048 39.8474 18.8934 40.0702C19.0477 40.2588 19.2191 40.3445 19.3391 40.2588C19.4076 40.2245 19.4419 40.1731 19.4762 40.1388C19.4591 40.1902 19.4248 40.2417 19.4248 40.3102C19.3905 40.4817 19.5277 40.5502 19.7162 40.6188Z" fill="#F3F4F7"/>
<path id="XMLID_262_" d="M19.4591 39.1275C19.562 39.0075 19.802 38.9903 19.922 39.076C19.8362 39.2475 19.8191 39.5389 19.8705 39.676C19.5448 39.6246 19.4762 39.2989 19.4591 39.1275Z" fill="#F3F4F7"/>
<path id="XMLID_263_" d="M19.9905 39.0931C20.1963 39.076 20.2648 38.9731 20.2991 38.8874C20.3334 38.7846 20.4363 38.7331 20.4534 38.8874C20.4534 39.0417 20.4534 39.0931 20.3677 39.1446C20.282 39.1788 20.1277 39.1788 19.9905 39.0931Z" fill="#F3F4F7"/>
<path id="XMLID_264_" d="M20.0934 39.4189C20.0762 39.5218 20.0419 39.6247 19.9734 39.7275C19.9219 39.7961 19.8534 39.8475 19.8019 39.8989C19.8877 39.9675 20.0248 40.0018 20.1277 40.0018C20.2305 40.0018 20.2477 39.9847 20.2305 39.9332C20.2134 39.7447 20.1277 39.4875 20.0934 39.4189Z" fill="#F3F4F7"/>
<path id="XMLID_265_" d="M40.2191 38.9388C40.3048 39.1103 40.322 39.4017 40.2705 39.5388C40.6134 39.4874 40.6648 39.1617 40.6991 38.9903C40.5963 38.8703 40.3563 38.8531 40.2191 38.9388Z" fill="#F3F4F7"/>
<path id="XMLID_266_" d="M40.1676 38.9731C39.9619 38.9559 39.8934 38.8531 39.8591 38.7674C39.8248 38.6645 39.7219 38.6131 39.7219 38.7502C39.7219 38.9045 39.7219 38.9559 39.8076 39.0074C39.8762 39.0416 40.0134 39.0588 40.1676 38.9731Z" fill="#F3F4F7"/>
<path id="XMLID_267_" d="M40.1848 39.5903C40.1162 39.4875 40.082 39.3846 40.0648 39.2817C40.0305 39.3503 39.962 39.6075 39.9277 39.796C39.9277 39.8303 39.9277 39.8475 40.0305 39.8646C40.1334 39.8646 40.2705 39.8303 40.3562 39.7617C40.3048 39.7275 40.2362 39.676 40.1848 39.5903Z" fill="#F3F4F7"/>
<path id="XMLID_268_" d="M46.1334 34.1733L46.4762 34.2762L41.2819 38.3733L41.1619 38.4762H41.1448C41.1448 38.5276 41.1448 38.5962 41.1277 38.6476C41.1962 38.6476 41.2991 38.6476 41.3848 38.6647C41.5048 38.699 41.5905 38.7676 41.5905 38.8533C41.5905 38.9562 41.5391 39.2647 41.3334 39.299C41.1448 39.3333 41.0934 39.2304 40.8534 39.2304C40.9905 39.299 41.2305 39.4533 41.1448 39.6419C41.1105 39.7104 41.0419 39.7962 40.9562 39.899C40.8705 39.9847 40.7334 39.9676 40.6477 39.8819C40.5619 39.8133 40.4934 39.7447 40.3734 39.7104C40.4419 39.7619 40.4591 39.8476 40.4762 39.9162C40.5105 40.0362 40.5105 40.1733 40.4419 40.2247C40.3219 40.2933 40.1334 40.3447 40.0305 40.3447C39.8419 40.3619 39.7905 40.1904 39.7734 40.0876C39.7562 39.9676 39.7562 39.8476 39.7734 39.7447C39.6534 39.7962 39.5505 40.139 39.7391 40.4133C39.8248 40.5333 39.9962 40.5847 40.3391 40.4647C40.5277 40.3962 40.6648 40.3276 40.6477 40.139C40.6305 40.0876 40.6134 40.019 40.5962 39.9676C40.6305 40.0019 40.6477 40.0533 40.7334 40.1047C40.8705 40.1733 41.0248 40.1047 41.1962 39.9162C41.3848 39.6933 41.3505 39.5904 41.3334 39.5219C41.3162 39.4533 41.2819 39.4362 41.2305 39.4019C41.3162 39.4362 41.4019 39.4362 41.4362 39.419C41.5905 39.4019 41.6419 39.3162 41.7277 39.0933C41.8134 38.8533 41.8305 38.7847 41.7448 38.6304C41.7105 38.579 41.5905 38.5276 41.4362 38.4933L46.5962 34.4304L46.6134 34.7904L47.5391 33.5562L46.1334 34.1733Z" fill="#F3F4F7"/>
<path id="XMLID_269_" d="M43.3562 35.4419L47.0248 30.8133L47.1277 31.1562L47.7448 29.7505L46.5277 30.6762L46.8877 30.6933L43.5791 34.8933C43.322 35.2876 43.0477 35.6991 42.7905 36.0933C42.962 35.8876 43.1505 35.6648 43.3562 35.4419Z" fill="#F3F4F7"/>
<path id="XMLID_270_" d="M42.9277 36.8133C43.2362 36.5733 43.562 36.3162 43.8705 36.059L46.922 33.2305L46.9734 33.5905L47.7962 32.2876L46.442 33.0247L46.7848 33.0933L43.7162 35.9219C43.442 36.2476 43.1677 36.539 42.9277 36.8133Z" fill="#F3F4F7"/>
<path id="XMLID_271_" d="M46.3049 36.1445L42.002 38.2874C41.9334 38.3388 41.8649 38.3903 41.8306 38.4245C41.8649 38.4417 41.882 38.476 41.8991 38.5103L41.9163 38.5445L46.3734 36.316L46.3049 36.676L47.4534 35.6646L45.9448 35.9903L46.3049 36.1445Z" fill="#F3F4F7"/>
<path id="XMLID_272_" d="M39.8248 40.7049C39.7562 40.6878 39.7048 40.6535 39.6534 40.6021L38.882 42.1963L38.6077 42.282L37.6991 44.0306L38.1448 43.8935L38.2991 44.3221L39.1562 42.5563L39.0534 42.2649L39.8248 40.7049Z" fill="#F3F4F7"/>
<path id="XMLID_273_" d="M42.8076 37.6703C43.099 37.5161 43.4419 37.3446 43.7848 37.1732L46.6476 35.3046L46.6305 35.6646L47.659 34.5332L46.2019 35.0303L46.5276 35.1503L43.4248 37.1732C43.219 37.3618 42.9962 37.5161 42.8076 37.6703Z" fill="#F3F4F7"/>
<path id="XMLID_291_" d="M39.4648 40.2762C39.4477 40.1905 39.4305 40.1048 39.4477 40.019L38.4362 41.1333L38.1277 41.1505L38.0934 41.1676L36.6705 42.5905H36.7391H36.7562L37.0991 42.5733L37.1677 42.9162L38.3505 41.3733L38.5734 41.3219L39.4648 40.2762Z" fill="#F3F4F7"/>
<path id="XMLID_292_" d="M41.3505 38.0648C41.4705 37.9619 41.659 37.8248 41.8647 37.6533L46.8705 32.1848L46.939 32.5276L47.659 31.1733L46.3733 32.0133L46.7333 32.0476L41.4876 37.7733C41.4362 37.8762 41.3847 37.9791 41.3505 38.0648Z" fill="#F3F4F7"/>
<path id="XMLID_293_" d="M36.8591 41.8018L38.7277 40.4818C38.9334 40.2418 39.1734 40.0018 39.2591 39.8989L36.9277 41.4418L36.6362 41.3732L36.4648 41.4761L34.9734 42.4018L35.3848 42.4875L35.4362 42.7961L36.6362 41.7504L36.8591 41.8018Z" fill="#F3F4F7"/>
<path id="XMLID_294_" d="M35.3163 41.9732L36.0705 41.5103L36.7734 41.0303L37.0134 41.0818C37.0134 41.0818 38.7105 40.0361 39.122 39.7618C39.1391 39.7446 39.1563 39.7446 39.1563 39.7446H39.1734L36.9448 40.8589L36.6534 40.7732L34.8705 41.6132L35.2648 41.7675L35.3163 41.9732Z" fill="#F3F4F7"/>
<path id="XMLID_295_" d="M43.7334 31.6702L44.0763 31.6016L40.8705 38.0987C40.8877 38.1159 40.922 38.133 40.9391 38.133C40.9734 38.1502 41.0077 38.1844 41.042 38.2187L44.2648 31.6873L44.4363 31.9959L44.7448 30.4873L43.7334 31.6702Z" fill="#F3F4F7"/>
<path id="XMLID_296_" d="M44.1105 32.7673L44.4705 32.7502L42.4648 35.8016C42.2248 36.2816 42.0019 36.7445 41.7962 37.1559L41.8305 37.1216L44.6419 32.8531L44.7619 33.1959L45.2591 31.7388L44.1105 32.7673Z" fill="#F3F4F7"/>
</g>
<defs>
<clipPath id="clip0_71_508">
<rect width="60" height="60" fill="white" transform="translate(0.199951 0.5)"/>
</clipPath>
</defs>
</svg>
