<svg width="113" height="61" viewBox="0 0 113 61" fill="none" xmlns="http://www.w3.org/2000/svg">
<g id="Company logo" clip-path="url(#clip0_71_511)">
<path id="svg_2" d="M73.6022 13.0091C75.5535 16.0598 75.5225 20.9069 73.5071 23.9267C72.7195 25.1545 71.5249 26.3801 70.2971 27.1987C70.9586 27.6389 71.713 27.9221 72.3744 28.3004C73.0027 28.8357 73.6642 29.3711 74.2947 29.9043H60.7666V8.10228C65.7995 7.69301 70.9895 8.35448 73.6022 13.0091Z" fill="#F3F4F7"/>
<path id="svg_3" d="M108.365 13.1044C110.095 15.9361 110.19 20.3407 108.491 23.2034C107.704 24.7144 106.352 26.1302 104.967 27.1988C106.414 27.7961 107.799 28.6146 108.963 29.9044H95.4346V8.1024C100.532 7.7241 105.786 8.3546 108.365 13.1044Z" fill="#F3F4F7"/>
<path id="svg_4" d="M21.4371 29.8731H7.53296L14.8932 8.10205H21.4371V29.8731Z" fill="#F3F4F7"/>
<path id="svg_5" d="M36.0361 29.8731H22.2559V8.10205H28.7688L36.0361 29.8731Z" fill="#F3F4F7"/>
<path id="svg_6" d="M60.0108 8.10205H47.0801V29.904H60.0108V8.10205Z" fill="#F3F4F7"/>
<path id="svg_7" d="M94.651 8.10205H81.7822V29.904H94.651V8.10205Z" fill="#F3F4F7"/>
<path id="svg_8" d="M21.437 43.4964H14.0768L10.7097 52.5579H-0.36499L7.46868 30.7847H21.437V43.4964Z" fill="#F3F4F7"/>
<path id="svg_9" d="M44.153 52.5579H32.7951L29.7754 43.4964H22.2559V30.7847H36.1313L44.153 52.5579Z" fill="#F3F4F7"/>
<path id="svg_10" d="M60.0108 30.7847H47.0801V52.5557H60.0108V30.7847Z" fill="#F3F4F7"/>
<path id="svg_11" d="M75.1752 30.7847C78.5091 34.2447 79.1086 40.0984 77.1883 44.4079C76.0866 47.0825 73.6642 49.8833 70.8966 51.0469C67.9078 52.4628 64.3837 52.6198 60.7666 52.5579V30.7869L75.1752 30.7847Z" fill="#F3F4F7"/>
<path id="svg_12" d="M94.651 30.7847H81.7822V52.5557H94.651V30.7847Z" fill="#F3F4F7"/>
<path id="svg_13" d="M109.846 30.7847C112.489 34.0257 113.684 38.5564 112.363 42.804C111.452 46.3591 108.682 50.2284 105.001 51.4562C102.107 52.5269 98.8019 52.684 95.437 52.5889V30.8179H109.846V30.7847Z" fill="#F3F4F7"/>
</g>
<defs>
<clipPath id="clip0_71_511">
<rect width="112.5" height="60" fill="white" transform="translate(0.0500488 0.5)"/>
</clipPath>
</defs>
</svg>
