<svg width="60" height="61" viewBox="0 0 60 61" fill="none" xmlns="http://www.w3.org/2000/svg">
<g id="Company logo" clip-path="url(#clip0_71_512)">
<path id="XMLID_20_" d="M59.8863 0.637207H0.240234V60.5024H59.8863V40.7481C60.1184 40.406 60.2402 39.9665 60.2402 39.4286C60.2402 38.8181 60.1184 38.4395 59.8863 38.1208" fill="#F3F4F7"/>
<path id="Vector" d="M5.61538 26.539L4.46694 23.7417L3.33022 26.539M30.8939 25.4269C30.6619 25.5616 30.3935 25.5733 30.063 25.5733H28.0345V24.0101H30.0994C30.3923 24.0101 30.6982 24.0218 30.8939 24.1319C31.1142 24.2292 31.2478 24.4495 31.2478 24.7554C31.2478 25.0601 31.113 25.3167 30.8939 25.4269ZM45.4322 26.539L44.272 23.7417L43.1236 26.539H45.4322ZM18.3466 29.5683H16.624L16.6123 24.0698L14.1806 29.5683H12.7146L10.2712 24.0698V29.5683H6.86226L6.21421 28.005H2.73257L2.08452 29.5683H0.2646L3.25757 22.5558H5.75015L8.60952 29.1897V22.5558H11.3458L13.5455 27.3089L15.5611 22.5558H18.3466V29.5683ZM25.188 29.5683H19.5923V22.5558H25.188V24.0218H21.2658V25.2804H25.1025V26.7101H21.2787V28.1151H25.2009V29.5694H25.188V29.5683ZM33.0923 24.4366C33.0923 25.5605 32.347 26.1347 31.9076 26.3058C32.2744 26.4405 32.5919 26.6972 32.7384 26.8917C32.9705 27.2456 33.0197 27.5515 33.0197 28.1749V29.5554H31.3333L31.3216 28.6753C31.3216 28.2476 31.358 27.6487 31.0533 27.3065C30.8083 27.0616 30.4298 27.0007 29.831 27.0007H28.0345V29.5542H26.3611V22.5534H30.2212C31.0767 22.5534 31.7119 22.578 32.2498 22.8827C32.7748 23.2026 33.0923 23.655 33.0923 24.4366ZM35.7689 29.5683H34.058V22.5558H35.7689V29.5683ZM55.6216 29.5683H53.2509L50.074 24.303V29.5683H46.665L46.0169 28.005H42.5353L41.9001 29.5683H39.9326C39.1134 29.5683 38.088 29.3855 37.5009 28.7983C36.915 28.1995 36.6091 27.3933 36.6091 26.123C36.6091 25.0847 36.7919 24.1319 37.5126 23.3866C38.0505 22.8241 38.906 22.5675 40.0544 22.5675H41.6798V24.0698H40.0919C39.4814 24.0698 39.1392 24.1554 38.797 24.4847C38.5158 24.7776 38.3201 25.3401 38.3201 26.0726C38.3201 26.8296 38.4665 27.3675 38.7841 27.7214C39.0408 28.0026 39.5177 28.0882 39.9572 28.0882H40.7142L43.072 22.578H45.5892L48.424 29.212V22.5534H50.9775L53.9224 27.4401V22.5534H55.6451L55.6216 29.5683ZM0.23999 30.937H3.09937L3.74741 29.3737H5.18882L5.83686 30.937H11.4689V29.7522L11.9693 30.9499H14.8896L15.39 29.7405V30.9499H29.3904L29.3787 28.3964H29.647C29.8427 28.4081 29.8919 28.421 29.8919 28.7386V30.9616H37.1365V30.3628C37.7224 30.6804 38.6271 30.9616 39.8248 30.9616H42.8669L43.515 29.3983H44.9564L45.5915 30.9616H51.4685V29.4839L52.3603 30.9616H57.1134V21.1753H52.4587V22.3355L51.8107 21.1753H47.0341V22.3355L46.4353 21.1753H39.9841C38.9095 21.1753 37.9556 21.3218 37.1869 21.7495V21.1753H32.7279V21.7495C32.2392 21.3218 31.5794 21.1753 30.8341 21.1753H14.5462L13.4587 23.7042L12.3349 21.1753H7.20444V22.3355L6.64194 21.1753H2.26851L0.23999 25.8054V30.937Z" fill="#050F22"/>
<path id="Vector_2" d="M59.886 36.1169H56.8321C56.5263 36.1169 56.3188 36.1286 56.1478 36.2388C55.9767 36.3489 55.9028 36.52 55.9028 36.7392C55.9028 37.0075 56.0493 37.1786 56.2696 37.2642C56.4407 37.3251 56.6364 37.3497 56.9177 37.3497L57.8212 37.3743C58.7376 37.3989 59.3481 37.5571 59.7267 37.9368C59.8005 37.986 59.8368 38.047 59.886 38.1079M59.886 40.7481C59.4829 41.347 58.6884 41.6399 57.6138 41.6399H54.3759V40.1376H57.6009C57.9185 40.1376 58.1505 40.1013 58.2853 39.9665C58.4071 39.8563 58.481 39.6981 58.481 39.5142C58.481 39.3067 58.3954 39.1474 58.2735 39.0501C58.1517 38.9399 57.9806 38.8907 57.6876 38.8907C56.1114 38.8415 54.145 38.9399 54.145 36.7157C54.145 35.7021 54.7931 34.6263 56.552 34.6263H59.8872V33.2329H56.7841C55.8431 33.2329 55.1716 33.4532 54.6829 33.8071V33.2329H50.0892C49.3556 33.2329 48.4884 33.4157 48.0853 33.8071V33.2329H39.8868V33.8071C39.2388 33.3302 38.1395 33.2329 37.6263 33.2329H32.2263V33.8071C31.713 33.3067 30.5646 33.2329 29.8685 33.2329H23.8204L22.4399 34.7353L21.145 33.2329H12.104V43.0192H20.9739L22.4036 41.4923L23.7478 43.0192H29.2087V40.7224H29.7466C30.4673 40.7341 31.3228 40.7106 32.0798 40.3802V43.0192H36.588V40.4657H36.8083C37.0896 40.4657 37.1142 40.4774 37.1142 40.7587V43.0192H50.8099C51.677 43.0192 52.5935 42.7989 53.095 42.3958V43.0192H57.445C58.3485 43.0192 59.2286 42.8974 59.9013 42.5669V40.747H59.886V40.7481ZM53.2028 37.938C53.5321 38.2802 53.7032 38.7079 53.7032 39.4286C53.7032 40.9438 52.7622 41.6399 51.0642 41.6399H47.8017V40.1376H51.0513C51.3688 40.1376 51.5892 40.1013 51.7356 39.9665C51.8458 39.8563 51.9313 39.6981 51.9313 39.5142C51.9313 39.3067 51.8458 39.1474 51.7239 39.0501C51.6021 38.9399 51.4181 38.8907 51.1251 38.8907C49.5618 38.8415 47.5942 38.9399 47.5942 36.7157C47.5942 35.7021 48.2294 34.6263 49.9884 34.6263H53.3481V36.1169H50.2696C49.9638 36.1169 49.7692 36.1286 49.5981 36.2388C49.4153 36.3489 49.3415 36.52 49.3415 36.7392C49.3415 37.0075 49.5009 37.1786 49.7083 37.2642C49.8794 37.3251 50.0751 37.3497 50.3563 37.3497L51.2599 37.3743C52.2009 37.4001 52.8243 37.5583 53.2028 37.938ZM38.0774 37.5103C37.8571 37.645 37.577 37.6567 37.2466 37.6567H35.2063V36.0806H37.2712C37.5642 36.0806 37.87 36.0923 38.0657 36.2024C38.286 36.3126 38.4079 36.5317 38.4079 36.8376C38.4196 37.1317 38.2849 37.3755 38.0774 37.5103ZM39.0911 38.3774C39.4696 38.5122 39.7755 38.756 39.9103 38.9634C40.1423 39.3056 40.1786 39.6231 40.1915 40.2466V41.6399H38.5052V40.7599C38.5052 40.3321 38.5415 39.7087 38.2368 39.3911C37.9919 39.1345 37.6134 39.0853 37.0028 39.0853H35.2063V41.6505H33.52V34.638H37.3931C38.2356 34.638 38.8591 34.6743 39.4087 34.9673C39.9337 35.2849 40.2759 35.7243 40.2759 36.5306C40.2771 37.6321 39.5317 38.2063 39.0911 38.3774ZM41.2052 34.6263H46.8009V36.0806H42.8786V37.3509H46.7153V38.7806H42.8786V40.1739L46.8009 40.1856V41.6399H41.2052V34.6263ZM29.8919 37.8642H27.7298V36.0806H29.9165C30.5271 36.0806 30.9431 36.3255 30.9431 36.936C30.9431 37.5466 30.5388 37.8642 29.8919 37.8642ZM26.0552 41.0036L23.477 38.1442L26.0552 35.3833V41.0036ZM19.4095 40.1739H15.2927V38.7806H18.97V37.3509H15.2927V36.0806H19.495L21.3278 38.1208L19.4095 40.1739ZM32.7384 36.936C32.7384 38.8907 31.2841 39.2821 29.8181 39.2821H27.7286V41.6399H24.4661L22.4013 39.3185L20.2509 41.6399H13.6169V34.6274H20.361L22.4259 36.9243L24.5634 34.6274H29.9142C31.2478 34.6263 32.7384 34.9931 32.7384 36.936Z" fill="#050F22"/>
</g>
<defs>
<clipPath id="clip0_71_512">
<rect width="60" height="60" fill="white" transform="translate(0 0.5)"/>
</clipPath>
</defs>
</svg>
