<svg width="151" height="61" viewBox="0 0 151 61" fill="none" xmlns="http://www.w3.org/2000/svg">
<g id="Company logo" clip-path="url(#clip0_71_509)">
<path id="XMLID_31_" d="M56.9741 9.40674H52.7272V29.1453H56.8921C63.7643 29.1453 68.0111 25.3141 68.0111 19.1911C68.0082 13.238 63.6765 9.40674 56.9741 9.40674ZM55.6394 12.1141H56.2219C60.2609 12.1141 65.0931 13.3638 65.0931 19.276C65.0931 25.1882 60.2638 26.438 56.2219 26.438H55.6394V12.1141Z" fill="#F3F4F7"/>
<path id="XMLID_32_" d="M81.375 21.0233C81.375 24.9365 79.9584 26.8126 77.0023 26.8126C74.0462 26.8126 72.6297 24.9394 72.6297 21.0233V9.40381H69.7145V21.8136C69.7145 26.435 72.6297 29.558 77.0023 29.558C81.375 29.558 84.2901 26.435 84.2901 21.8136V9.40381H81.375V21.0233Z" fill="#F3F4F7"/>
<path id="XMLID_33_" d="M92.5351 18.3189L101.447 9.40674H97.5751L89.7868 17.3589V9.40674H86.8717V29.1453H89.7868V20.9823L90.4541 20.315L97.6161 29.1453H101.532L92.5351 18.3189Z" fill="#F3F4F7"/>
<path id="XMLID_34_" d="M113.441 26.438H105.53V19.6916H113.233V16.9843H105.53V12.1141H113.441V9.40674H102.615V29.1453H113.441V26.438Z" fill="#F3F4F7"/>
<path id="XMLID_35_" d="M52.9352 54.3396H63.8026V51.6323H55.8504V44.845H63.5538V42.1377H55.8504V37.3084H63.8026V34.6011H52.9352V54.3396Z" fill="#F3F4F7"/>
<path id="XMLID_36_" d="M85.9996 54.3396H96.826V51.6323H88.8709V44.845H96.5772V42.1377H88.8709V37.3084H96.826V34.6011H85.9996V54.3396Z" fill="#F3F4F7"/>
<path id="XMLID_37_" d="M85.9996 54.3396H96.826V51.6323H88.8709V44.845H96.5772V42.1377H88.8709V37.3084H96.826V34.6011H85.9996V54.3396Z" fill="#F3F4F7"/>
<path id="XMLID_38_" d="M80.5437 34.6011V48.4245V48.3835L67.9261 34.6011H66.0939V54.3396H69.0091V40.3874L81.5827 54.3396H83.4588V34.6011H80.5437Z" fill="#F3F4F7"/>
<path id="XMLID_42_" d="M110.4 40.3054C110.4 38.3064 109.402 36.4742 107.734 35.4762C106.11 34.5601 104.111 34.5601 102.527 34.5601H99.3634V54.2986H102.279V46.1796H102.902L108.565 54.2986H112.104L105.981 45.8869C108.568 45.3864 110.4 43.1357 110.4 40.3054ZM107.611 40.4313C107.611 42.6791 106.113 43.6801 102.782 43.6801H102.281V37.2264H102.656C106.028 37.2235 107.611 38.2654 107.611 40.4313Z" fill="#F3F4F7"/>
<path id="XMLID_43_" d="M123.103 46.8441H128.058C127.809 49.8002 124.686 52.051 122.02 52.051C118.189 52.051 114.817 48.5124 114.817 44.4295C114.817 40.1827 118.066 36.8929 122.231 36.8929C124.479 36.8929 126.685 38.0578 128.061 39.9339L128.228 40.1827L130.309 38.2246L130.142 38.0578C128.228 35.6431 125.228 34.2266 122.105 34.2266C116.482 34.2266 111.861 38.848 111.861 44.5553C111.861 50.0929 116.441 54.7583 121.815 54.7583C127.23 54.7583 131.184 50.7192 131.184 45.1817V44.1836H123.065V46.85H123.103V46.8441Z" fill="#F3F4F7"/>
<path id="XMLID_47_" d="M143.424 34.6011L138.843 42.5533L134.263 34.6011H130.932L137.386 45.7611V54.3396H140.301V45.7611L146.755 34.6011H143.424Z" fill="#F3F4F7"/>
<path id="XMLID_48_" d="M30.0299 48.925C29.9479 49.0069 28.1157 50.924 25.906 51.0499C23.4913 51.1757 21.1996 49.7181 20.4913 44.4294L10.9147 41.5962C15.1206 56.5055 26.7811 56.005 30.6942 49.4255C30.943 49.0098 30.9021 48.7581 30.6942 48.6762C30.4894 48.5503 30.2377 48.6352 30.0299 48.925Z" fill="#F3F4F7"/>
<path id="XMLID_49_" d="M29.9888 9.74059C26.1575 1.9523 12.4161 9.65864 10.0834 29.564C9.91656 30.8957 10.5839 31.563 11.1253 31.8557C12.3751 32.523 13.0395 32.7718 15.0385 33.1464C16.3292 33.3952 17.1195 33.4801 18.2463 33.3952C19.2034 33.3133 20.0785 32.646 20.1605 31.645C22.2005 10.2411 27.0736 5.45278 29.3624 10.0333C29.6141 10.6128 30.2785 10.364 29.9888 9.74059Z" fill="#F3F4F7"/>
<path id="XMLID_50_" d="M27.6558 16.4432C26.5729 16.4022 25.7417 16.651 25.2002 17.5261C24.6588 18.4012 24.3251 19.4403 24.1173 20.8159C23.9095 22.0247 23.7017 23.813 23.9095 24.3983C24.1173 24.9808 24.5329 25.4403 25.3261 25.4812C29.6988 25.73 42.5241 27.5622 44.2744 31.3115C45.4832 33.893 41.9007 34.5193 39.2783 35.2247C38.2802 35.4734 37.6539 36.1408 37.5719 36.931C37.2793 39.012 37.8207 40.0949 38.2802 40.7622C38.6139 41.2627 39.2373 41.5525 40.0714 41.0549C42.0295 39.89 43.61 37.8471 43.6949 37.7651C52.2266 25.8149 34.2354 16.61 27.6558 16.4432Z" fill="#F3F4F7"/>
<path id="XMLID_55_" d="M32.0698 36.0585C10.581 38.4321 -6.40926 28.6038 6.46001 26.2302C6.50099 26.2302 8.0844 25.8555 8.41806 24.9394C8.71074 24.0234 8.83367 23.6897 9.16733 22.399C9.41611 21.5648 9.58294 21.0673 9.79074 20.4409C10.1244 19.4429 9.49806 18.8165 8.0844 19.5248C-3.65804 25.2702 -0.160477 35.9736 9.37513 41.3473C19.7039 47.1775 29.2395 45.0526 30.1556 44.8038C31.0717 44.5551 31.9878 44.3034 32.9888 42.8458C33.5303 41.8477 34.3644 40.639 34.1537 37.9316C34.1098 37.8058 34.1098 35.8068 32.0698 36.0585Z" fill="#F3F4F7"/>
<path id="XMLID_60_" d="M144.506 51.4653C144.506 49.8 145.838 48.4683 147.504 48.4683C149.169 48.4683 150.501 49.8 150.501 51.4653C150.501 53.1307 149.169 54.4624 147.504 54.4624C145.838 54.5063 144.506 53.1717 144.506 51.4653ZM145.007 51.4653C145.007 52.8819 146.172 53.9648 147.547 53.9648C148.923 53.9648 150.088 52.8819 150.088 51.4653C150.088 50.0487 148.964 48.9658 147.547 48.9658C146.172 48.9658 145.007 50.0487 145.007 51.4653ZM148.92 53.1717H148.379L147.504 51.6322H146.88V53.1717H146.38V49.8H147.796C148.42 49.8 148.961 49.9668 148.961 50.6751C148.961 51.3424 148.502 51.5912 148.045 51.5912L148.92 53.1717ZM146.88 50.3005V51.1346H147.422C147.881 51.1346 148.505 51.2166 148.505 50.76C148.505 50.3444 148.13 50.3005 147.755 50.3005H146.88Z" fill="#F3F4F7"/>
</g>
<defs>
<clipPath id="clip0_71_509">
<rect width="150" height="60" fill="white" transform="translate(0.649963 0.5)"/>
</clipPath>
</defs>
</svg>
