<svg width="133" height="61" viewBox="0 0 133 61" fill="none" xmlns="http://www.w3.org/2000/svg">
<g id="Company logo" clip-path="url(#clip0_71_510)">
<path id="Vector" d="M8.0014 15.1815H13.9713C18.1788 15.1815 20.3817 17.6707 20.3817 22.9136C20.3817 26.7467 19.1701 30.7119 14.6542 30.7119H8.06748V15.1594M82.8118 8.8371H75.8727L67.8321 32.3641C67.3475 32.298 66.7968 32.2319 66.246 32.2319C66.7968 31.1965 67.1052 29.8528 67.1052 28.2006C67.1052 23.2661 64.4176 21.1293 60.0339 20.2041C57.7208 19.7194 51.6188 18.6841 49.6142 18.2435C48.4026 18.0012 47.8518 17.4504 47.8518 16.5472C47.8518 14.7188 49.3057 13.7936 51.9272 13.7936C55.5179 13.7936 56.8617 15.1374 57.0379 17.0759H66.0037C65.5191 10.4232 60.3423 8 51.7289 8C41.3092 8 39.4147 13.2429 39.4147 16.9658C39.4147 21.1072 41.3092 24.0371 46.1776 24.8962L54.1081 26.3061C56.8617 26.7907 57.831 27.3415 57.831 28.7954C57.831 30.5577 56.6634 31.2846 55.2756 31.593C53.8658 31.527 52.4779 31.4609 51.0681 31.4609C49.1075 30.9762 48.5127 29.8087 48.3805 28.2887H38.9962C39.0623 29.5664 39.3046 30.6678 39.6571 31.571C38.9962 31.571 38.3794 31.6371 37.7626 31.6371V8.90319H29.8321V32.1878C28.4884 32.32 27.1446 32.4301 25.8008 32.5623C27.3869 30.4916 28.2901 27.4957 28.2901 22.9797C28.2901 13.5954 24.3249 8.94725 17.0113 8.94725H-0.0391846V36.7478C0.0929894 36.7478 0.203134 36.6817 0.335308 36.6817C12.4072 34.8533 25.5144 33.9281 39.2826 34.2365C82.4373 35.1617 114.996 41.7925 132.135 53.7542C121.274 43.9293 101.581 36.4394 74.8373 33.2012C74.8373 33.2012 74.8373 33.2012 74.9034 33.2012L80.2785 15.7542L82.8118 8.8371Z" fill="#F3F4F7"/>
<path id="SVGID_1_" d="M78.2518 8.83691H85.191L99.3997 47.9163H91.1608L80.4988 15.6659L78.2518 8.83691Z" fill="#F3F4F7"/>
</g>
<defs>
<clipPath id="clip0_71_510">
<rect width="132.5" height="60" fill="white" transform="translate(0.0999756 0.5)"/>
</clipPath>
</defs>
</svg>
