<svg width="149" height="61" viewBox="0 0 149 61" fill="none" xmlns="http://www.w3.org/2000/svg">
<g id="Company logo" clip-path="url(#clip0_71_507)">
<path id="Vector" fill-rule="evenodd" clip-rule="evenodd" d="M64.2309 34.2599C66.2769 35.0412 68.323 35.8786 70.3126 36.8267C63.9405 39.3361 57.7823 42.3402 51.8967 45.8107C49.9071 44.8056 47.861 43.8021 45.815 42.9085C51.7259 39.5612 57.8649 36.6599 64.2309 34.2599ZM56.6138 31.6377C50.0257 33.7051 43.6503 36.3765 37.572 39.6166C39.5045 40.3425 41.4369 41.0676 43.313 41.8489C49.1759 38.4404 55.3627 35.6 61.7861 33.3679C60.0808 32.7535 58.3764 32.1398 56.6138 31.6377Z" fill="#EAECF0"/>
<path id="Vector_2" fill-rule="evenodd" clip-rule="evenodd" d="M104.528 43.9106C104.642 44.2451 104.927 44.3566 105.211 44.3566C105.381 44.3566 105.552 44.3566 105.666 44.2451C105.737 44.1686 105.777 44.0694 105.779 43.966C105.779 43.743 105.609 43.6315 105.381 43.6315L104.983 43.52C104.87 43.4638 104.698 43.4638 104.585 43.3523C104.471 43.2408 104.415 43.074 104.415 42.9064C104.415 42.4604 104.814 42.2936 105.211 42.2936C105.552 42.2936 105.893 42.4604 106.006 42.851L105.723 42.9064C105.723 42.6825 105.438 42.5157 105.154 42.5157C104.984 42.5157 104.699 42.6272 104.699 42.8502C104.699 43.1293 104.871 43.1847 105.098 43.2408L105.438 43.2962C105.609 43.3515 105.779 43.4077 105.893 43.463C106.006 43.6306 106.063 43.743 106.063 43.966C106.063 44.1328 106.006 44.3566 105.836 44.4681C105.666 44.5804 105.437 44.6358 105.211 44.6358C104.755 44.6358 104.472 44.4119 104.302 43.966L104.528 43.9106ZM106.745 44.5804H106.519V42.3489H106.915L107.656 44.1336L108.28 42.3489H108.735V44.5804H108.451V42.6272L107.711 44.5804H107.484L106.745 42.6272V44.5804ZM78.0419 33.9786C72.8222 31.53 67.4269 29.4597 61.8992 27.7844C59.9095 28.3419 57.9771 28.9555 56.101 29.57C61.791 31.2483 67.3401 33.3562 72.6989 35.8748C74.4614 35.205 76.2222 34.5922 78.0419 33.9786ZM86.5112 31.5232C81.2245 29.2355 75.7107 27.3384 70.0833 25.832C68.2644 26.1665 66.5028 26.5572 64.7411 27.0031C70.3113 28.6219 75.7671 30.6304 80.9974 33.0858C82.8154 32.5275 84.6915 31.97 86.5112 31.5232ZM100.152 35.9871C86.7939 40.3957 74.2889 46.7005 62.9786 54.5687C65.8205 56.2981 68.5488 58.0836 71.2199 60.036C81.9816 51.6644 93.8573 44.7746 106.518 39.5574C104.44 38.2925 102.317 37.1016 100.152 35.9871ZM90.944 31.7462C77.0744 35.3173 64.0588 41.1208 52.2925 48.8205C54.9072 50.1039 57.522 51.4435 60.0795 52.8938C71.6187 45.0817 84.408 38.9438 98.0487 34.9258C95.7192 33.8109 93.3879 32.6951 90.944 31.7462Z" fill="#F3F4F7"/>
<path id="Vector_3" fill-rule="evenodd" clip-rule="evenodd" d="M52.8054 5.13156C56.1588 5.13156 57.8641 7.58692 57.8641 10.8789C57.8641 14.2832 56.2152 16.6824 52.8054 16.6824C49.3385 16.6824 47.7467 14.2832 47.7467 10.8789C47.7467 7.58692 49.452 5.13156 52.8054 5.13156ZM52.8054 14.45C53.7149 14.45 54.1128 13.6687 54.1128 10.8789C54.1128 8.31204 53.8284 7.36393 52.8054 7.36393C51.7824 7.36393 51.498 8.31204 51.498 10.8789C51.498 13.6687 51.896 14.45 52.8054 14.45ZM60.1953 7.9214H58.7172V5.46604H60.1953V4.23878C60.1953 1.50427 61.5599 0.5 63.9467 0.5C64.629 0.5 65.1968 0.61149 65.7655 0.667656V3.40217C65.5449 3.33371 65.3155 3.29617 65.0841 3.29067C64.1183 3.29067 63.7767 3.68131 63.7767 4.35027V5.46688H65.7655V7.92223H63.7767V16.4594H60.1953V7.9214ZM17.9624 8.53503C17.9624 7.86523 17.6781 7.41926 17.0539 7.41926C16.1444 7.41926 15.8601 8.20054 15.8601 8.8695L12.6766 8.19971C13.0737 6.07967 15.1206 5.18689 17.1666 5.18689C19.3262 5.18689 21.6002 6.07883 21.6002 8.53419V14.6722C21.6002 15.8994 21.771 16.2901 21.9409 16.4577H18.1896C18.1332 16.1232 18.076 15.6203 18.076 15.4535C17.4509 16.0671 16.3707 16.6815 15.3477 16.6815C13.5288 16.6815 12.1643 15.4534 12.2215 13.4449C12.2778 10.5989 15.5749 9.70612 17.9624 9.4278V8.53503ZM17.9624 11.1572C16.7123 11.2687 15.7456 11.7708 15.7456 13.1657C15.7456 13.947 16.1436 14.3377 16.8259 14.3377C17.2238 14.3377 17.6789 14.0585 17.9624 13.6679V11.1572ZM27.3412 8.59035V16.4586H23.7034V5.46604H27.2276L27.2848 6.58264C28.0807 5.80136 29.0465 5.18773 30.4674 5.18773C32.0592 5.18773 32.9686 6.24733 32.9686 7.75458V16.4594H29.3308V8.87034C29.3308 8.25671 29.1028 7.92223 28.4778 7.92223C28.0807 7.9214 27.6819 8.14438 27.3412 8.59035ZM35.1854 0.834474H38.8231V8.75801H38.8795L41.5515 5.46604H45.132L42.1202 8.81418L45.132 16.4586H41.3807L39.619 11.6593H39.5618L38.8231 12.4968V16.4586H35.1854V0.834474ZM8.35658 8.31204C10.0619 8.87035 11.312 10.2653 11.312 12.2746C11.312 14.9522 9.15244 16.4594 6.08255 16.4594H0V0.834474H6.25249C9.09437 0.834474 10.9132 2.50854 10.9132 4.62858C10.9132 6.6933 9.4923 7.75374 8.35572 8.19971V8.31204H8.35658ZM3.8666 13.5572H5.3439C6.25334 13.5572 7.38992 13.1666 7.38992 11.604C7.38992 10.4329 6.65127 9.65163 5.3439 9.65163H3.8666V13.5572ZM3.8666 7.02778H5.23033C6.65127 7.02778 7.21999 6.24649 7.21999 5.3537C7.21999 3.84729 6.19698 3.62431 5.28754 3.62431H3.8666V7.02778ZM139.146 8.53503C139.146 7.86523 138.805 7.41926 138.181 7.41926C137.327 7.41926 137.043 8.20054 136.987 8.8695L133.861 8.19971C134.259 6.07967 136.305 5.18689 138.351 5.18689C140.511 5.18689 142.784 6.07883 142.784 8.53419V14.6722C142.784 15.8994 142.954 16.2901 143.069 16.4577H139.374C139.317 16.1232 139.26 15.6203 139.26 15.4535C138.635 16.0671 137.556 16.6815 136.474 16.6815C134.714 16.6815 133.292 15.4534 133.349 13.4449C133.463 10.5989 136.76 9.70612 139.146 9.4278V8.53503ZM139.146 11.1572C137.895 11.2687 136.93 11.7708 136.93 13.1657C136.93 13.947 137.327 14.3377 137.952 14.3377C138.407 14.3377 138.804 14.0585 139.146 13.6679V11.1572H139.146ZM101.917 11.7155C101.859 12.6636 102.144 14.3377 103.621 14.3377C104.473 14.3377 105.212 13.6679 105.382 12.8313L107.827 13.6687C107.657 14.1709 106.576 16.6824 103.335 16.6824C99.8673 16.6824 98.2764 13.9479 98.2764 10.8789C98.2764 7.75374 99.9826 5.13156 103.278 5.13156C106.746 5.13156 107.996 8.08906 107.996 10.9904V11.7155H101.917ZM104.643 9.59463C104.643 8.59035 104.53 7.36309 103.279 7.36309C102.257 7.36309 101.858 8.59035 101.916 9.59463H104.643ZM117.718 5.46604H121.356V16.4586H117.718V5.46604ZM117.718 0.834474H121.356V4.0158H117.718V0.834474ZM129.369 9.5393C129.369 9.09333 129.369 8.53503 129.199 8.14438C129.029 7.69757 128.744 7.36309 128.177 7.36309C126.983 7.36309 126.812 8.81334 126.812 11.0457C126.812 13.5011 127.209 14.3377 128.177 14.3377C129.426 14.3377 129.54 13.0543 129.54 12.2176L132.382 12.6083C132.098 15.2866 130.507 16.6815 127.892 16.6815C124.653 16.6815 122.946 13.8917 122.946 11.1572C122.946 8.14438 124.653 5.13156 128.062 5.13156C131.871 5.13156 132.496 8.42353 132.496 9.5393H129.369ZM72.0744 0.834474H77.3611L80.7153 16.4586H76.8496L76.2245 13.2781H72.5295L71.7909 16.4586H68.3239L72.0744 0.834474ZM73.041 10.5436H75.6549L74.5192 4.18261H74.4039L73.041 10.5436ZM109.475 5.46604H112.999V6.91712H113.055C113.794 5.74519 115.159 5.18773 116.58 5.18773V8.75885C116.124 8.59119 115.727 8.4797 115.102 8.4797C114.136 8.4797 113.511 8.81418 113.113 9.31715V16.4594H109.475V5.46604ZM91.1153 8.59035V16.4586H87.5348V8.92567C87.5348 8.31204 87.3649 7.9214 86.6826 7.9214C86.341 7.9214 85.774 8.20054 85.4888 8.59035V16.4586H81.9083V5.46604H85.4324L85.4888 6.58264C86.2847 5.85752 87.4221 5.18773 88.7295 5.18773C89.8652 5.18773 90.6038 5.80136 90.9463 6.63797H91.0026C91.6277 5.96818 92.7071 5.18773 94.1869 5.18773C95.7215 5.18773 96.7436 6.13584 96.7436 7.69841V16.4594H93.1631V8.92651C93.1631 8.31288 92.9931 7.92223 92.3108 7.92223C91.8548 7.9214 91.3442 8.31204 91.1153 8.59035ZM144.547 15.1751C144.547 14.3377 145.227 13.6687 146.138 13.6687C146.339 13.668 146.539 13.7064 146.726 13.7818C146.912 13.8572 147.082 13.9682 147.224 14.1082C147.367 14.2483 147.48 14.4146 147.557 14.5977C147.634 14.7809 147.673 14.9771 147.672 15.1751C147.673 15.3732 147.634 15.5694 147.557 15.7525C147.48 15.9356 147.367 16.102 147.224 16.2421C147.082 16.3821 146.912 16.493 146.726 16.5685C146.539 16.6439 146.339 16.6823 146.138 16.6815C145.227 16.6824 144.547 16.0118 144.547 15.1751ZM144.83 15.1751C144.83 15.8441 145.399 16.3462 146.138 16.3462C146.82 16.3462 147.389 15.8441 147.389 15.1751C147.389 14.5053 146.82 13.947 146.138 13.947C145.399 13.947 144.83 14.5053 144.83 15.1751Z" fill="#F3F4F7"/>
<path id="Vector_4" fill-rule="evenodd" clip-rule="evenodd" d="M146.877 16.0168H146.594L146.081 15.2356H145.796V16.0168H145.513V14.3428H146.309C146.422 14.3428 146.594 14.3428 146.707 14.3981C146.877 14.5096 146.934 14.6211 146.934 14.7887C146.934 15.1232 146.651 15.2356 146.366 15.2356L146.877 16.0168ZM146.082 15.0126C146.309 15.0126 146.651 15.0679 146.651 14.7887C146.651 14.5658 146.479 14.5096 146.252 14.5096H145.797V15.0117L146.082 15.0126Z" fill="#F3F4F7"/>
</g>
<defs>
<clipPath id="clip0_71_507">
<rect width="148.75" height="60" fill="white" transform="translate(0 0.5)"/>
</clipPath>
</defs>
</svg>
