<svg width="170" height="40" viewBox="0 0 170 40" fill="none" xmlns="http://www.w3.org/2000/svg">
<g id="Group">
<g id="Layer_1">
<g id="Group_2">
<path id="Vector" d="M134.923 5.90164V10.623H134.136V5.90164H132.562V5.11475H136.496V5.90164H134.923Z" fill="white"/>
<path id="Vector_2" d="M138.07 10.623H137.283V5.11475H138.07V10.623Z" fill="white"/>
<path id="Vector_3" d="M142.923 5.11475H143.709V10.623H142.923V6.81969L141.742 9.18033H141.087L139.906 6.81969V10.623H139.119V5.11475H139.906L141.349 8.13116L142.791 5.11475H142.923Z" fill="white"/>
<path id="Vector_4" d="M145.808 10.623H145.021V5.11475H145.808V10.623Z" fill="white"/>
<path id="Vector_5" d="M146.595 8.91805H147.513C147.513 9.57379 148.037 9.83606 148.693 9.83606C149.349 9.83606 149.611 9.57377 149.611 9.18033C149.611 8.78688 149.349 8.52458 148.824 8.39343L147.906 8.13116C147.119 8.00001 146.726 7.34426 146.726 6.55737C146.726 5.77049 147.513 4.98363 148.562 4.98363C149.611 4.98363 150.267 5.63934 150.398 6.55737H149.48C149.48 6.16393 148.955 5.90164 148.431 5.90164C147.906 5.90164 147.513 6.16394 147.513 6.68853C147.513 7.21312 147.775 7.34428 148.169 7.47542L149.087 7.73769C150.005 7.99999 150.398 8.5246 150.398 9.31148C150.398 10.0984 149.742 10.8853 148.562 10.8853C147.382 10.8853 146.595 10.0984 146.595 9.04917V8.91805Z" fill="white"/>
<path id="Vector_6" d="M151.185 6.95084C151.185 5.77051 151.972 4.98363 153.152 4.98363C154.332 4.98363 155.119 5.77051 155.119 6.95084V8.7869C155.119 9.96723 154.332 10.7541 153.152 10.7541C151.972 10.7541 151.185 9.96723 151.185 8.7869V6.95084ZM154.332 6.95084C154.332 6.16396 153.808 5.90164 153.152 5.90164C152.496 5.90164 151.972 6.2951 151.972 6.95084V8.7869C151.972 9.57378 152.496 9.83606 153.152 9.83606C153.808 9.83606 154.332 9.44264 154.332 8.7869V6.95084Z" fill="white"/>
<path id="Vector_7" d="M158.923 9.31148H156.824L156.3 10.623H155.382L157.349 5.11475H158.267L160.234 10.623H159.316L158.791 9.31148H158.923ZM158.66 8.52459L157.873 6.29511L157.087 8.52459H158.66Z" fill="white"/>
<path id="Vector_8" d="M161.677 8.26232V10.623H160.89V5.11475H162.988C164.037 5.11475 164.693 5.7705 164.693 6.68853C164.693 7.60657 164.3 8.00002 163.513 8.26232L164.955 10.623H164.037L162.595 8.26232H161.677ZM163.119 5.90164H161.808V7.34427H163.119C163.644 7.34427 163.906 7.08197 163.906 6.55738C163.906 6.03279 163.644 5.77048 163.119 5.77048V5.90164Z" fill="white"/>
<path id="Vector_9" d="M168.628 9.31148H166.529L166.005 10.623H165.087L167.054 5.11475H167.972L169.939 10.623H169.021L168.496 9.31148H168.628ZM168.234 8.52459L167.447 6.29511L166.66 8.52459H168.234Z" fill="white"/>
</g>
<g id="Group_3">
<path id="Vector_10" d="M55.4472 27.8033C51.9062 27.8033 49.4144 25.5738 49.4144 21.9017V16.5246C49.4144 12.9836 51.775 10.623 55.4472 10.623C59.1193 10.623 61.2177 12.7213 61.3488 16H58.857C58.5947 14.0328 57.0209 13.1148 55.4472 13.1148C53.8734 13.1148 52.0373 14.1639 52.0373 16.5246V21.9017C52.0373 24.2623 53.7422 25.3115 55.4472 25.3115C57.1521 25.3115 58.5947 24.3935 58.857 22.4262H61.3488C61.0865 25.7049 58.857 27.8033 55.4472 27.8033Z" fill="white"/>
<path id="Vector_11" d="M68.0373 30.2951C67.6439 31.3443 66.857 31.8689 65.2832 31.8689H63.9718V29.5082H64.4963C65.6767 29.5082 65.8078 29.2459 66.2013 28.3279L66.5947 27.4098L62.2668 15.3443H64.8898L67.9062 24.1311L70.9226 15.3443H73.5455L68.0373 30.4263V30.2951Z" fill="white"/>
<path id="Vector_12" d="M85.0865 22.6886C85.0865 26.4918 82.3324 27.8033 80.2341 27.8033C78.1357 27.8033 77.7423 27.1476 77.3488 26.3607V27.541H74.857V10.8853H77.3488V16.3934C77.7423 15.7377 78.9226 14.9508 80.2341 14.9508C82.3324 14.9508 85.0865 16.2623 85.0865 20.0656V22.6886ZM82.5947 20.0656C82.5947 18.2295 81.5456 17.3115 79.9718 17.3115C78.398 17.3115 77.3488 18.2295 77.3488 20.0656V22.6886C77.3488 24.5246 78.398 25.4426 79.9718 25.4426C81.5456 25.4426 82.5947 24.5246 82.5947 22.6886V20.0656Z" fill="white"/>
<path id="Vector_13" d="M95.0538 23.6066H97.5456C97.1521 26.8853 94.5291 27.8033 92.5619 27.8033C90.5947 27.8033 87.4472 26.7541 87.4472 22.6886V20.0656C87.4472 16 90.4636 14.9508 92.5619 14.9508C94.6603 14.9508 97.6767 16 97.6767 20.0656V22.2951H89.939V22.6886C89.939 24.5246 90.9882 25.4426 92.5619 25.4426C94.1357 25.4426 94.7915 24.9181 95.0538 23.7377V23.6066ZM89.939 19.9345H95.1849C95.1849 18.0984 94.1357 17.1803 92.5619 17.1803C90.9882 17.1803 89.939 18.0984 89.939 19.8033V19.9345Z" fill="white"/>
<path id="Vector_14" d="M105.414 17.4427C103.841 17.4427 102.791 18.3607 102.791 20.1967V27.541H100.3V15.2131H102.791V16.3935C103.185 15.7377 104.365 14.9508 105.677 14.9508H106.595V17.4427H105.414Z" fill="white"/>
<path id="Vector_15" d="M110.398 27.541H108.562V10.8853H118.005V12.7213H110.398V18.2295H118.005V20.0656H110.398V27.541Z" fill="white"/>
<path id="Vector_16" d="M130.07 22.9508C130.07 26.623 127.578 27.8033 125.218 27.8033C122.857 27.8033 120.365 26.623 120.365 22.9508V19.6721C120.365 16 122.857 14.8197 125.218 14.8197C127.578 14.8197 130.07 16 130.07 19.6721V22.9508ZM128.234 19.6721C128.234 17.5738 126.791 16.6558 125.218 16.6558C123.644 16.6558 122.201 17.7049 122.201 19.6721V22.9508C122.201 25.0492 123.644 25.9672 125.218 25.9672C126.791 25.9672 128.234 24.918 128.234 22.9508V19.6721Z" fill="white"/>
<path id="Vector_17" d="M134.791 16.5246C135.447 15.4754 136.759 15.082 137.808 15.082H138.595V16.7869H137.808C136.234 16.7869 134.791 17.8361 134.791 19.8033V27.541H132.955V15.2131H134.791V16.5246Z" fill="white"/>
<path id="Vector_18" d="M140.431 23.082V15.3443H142.267V22.9508C142.267 25.1803 143.709 26.0984 145.152 26.0984C146.595 26.0984 148.037 25.0492 148.037 23.082V15.3443H149.873V27.6721H148.037V26.3607C147.382 27.2787 146.07 27.8033 145.152 27.8033C143.185 27.8033 140.431 26.7541 140.431 23.082Z" fill="white"/>
<path id="Vector_19" d="M168.234 27.541V19.541C168.234 17.7049 166.791 16.6558 165.349 16.6558C163.906 16.6558 162.464 17.7049 162.464 19.6721V27.541H160.628V19.541C160.628 17.7049 159.185 16.6558 157.742 16.6558C156.3 16.6558 154.857 17.7049 154.857 19.6721V27.541H153.021V15.2131H154.857V16.3935C155.513 15.3443 156.824 14.9508 157.742 14.9508C159.185 14.9508 160.628 15.4754 161.414 16.918C162.201 15.6066 163.775 14.9508 165.087 14.9508C167.316 14.9508 169.677 16.2623 169.677 19.8033V27.6722H167.841L168.234 27.541Z" fill="white"/>
</g>
<g id="Group 219">
<path id="Vector_20" d="M29.8734 11.2787C29.48 11.2787 29.0865 10.8852 29.0865 10.4918C29.0865 8.91801 28.5619 7.73768 28.0373 7.08194C27.2504 7.08194 25.939 7.08195 24.7586 7.86883C24.3652 8.13113 23.8406 7.86886 23.7095 7.60656C23.4472 7.21312 23.7095 6.6885 23.9718 6.55736C25.939 5.37703 27.9062 5.5082 28.6931 5.63935C28.8242 5.63935 29.0865 5.77047 29.2177 5.90162C29.7422 6.55736 30.9226 8.26228 30.7914 10.6229C30.7914 11.0164 30.398 11.4098 30.0045 11.4098L29.8734 11.2787Z" fill="white"/>
<path id="Vector_21" d="M27.3816 34.2295C26.3324 34.2295 24.8898 33.9672 23.4472 33.0492C23.0537 32.7869 23.0537 32.2623 23.316 32C23.5783 31.6066 24.1029 31.6066 24.3652 31.8689C25.6767 32.7869 27.1193 32.7869 27.9062 32.7869C28.2996 32.1312 29.0865 30.9508 28.9554 29.377C28.9554 28.9836 29.2176 28.5902 29.7422 28.5902C30.1357 28.5902 30.5291 28.8525 30.5291 29.377C30.6603 31.7377 29.4799 33.4426 28.9554 34.0984C28.9554 34.2295 28.6931 34.3607 28.4308 34.3607C28.1685 34.3607 27.775 34.3607 27.3816 34.3607V34.2295Z" fill="white"/>
<path id="Vector_22" d="M13.7422 34.2295C13.2176 34.2295 12.8242 34.2295 12.5619 34.2295C12.4308 34.2295 12.1685 34.0984 12.0373 33.9672C11.5127 33.3115 10.3324 31.4754 10.4635 29.1148C10.4635 28.7213 10.857 28.3279 11.3816 28.459C11.775 28.459 12.1685 28.8524 12.0373 29.377C11.9062 30.9508 12.5619 32.2623 13.0865 32.918C13.8734 32.918 15.316 32.918 16.6275 32C17.0209 31.7377 17.4144 31.8688 17.6767 32.1311C17.939 32.5246 17.8078 32.9181 17.5455 33.1803C16.234 34.0984 14.6603 34.3607 13.6111 34.3607L13.7422 34.2295Z" fill="white"/>
<path id="Vector_23" d="M11.3816 11.2787C10.9881 11.2787 10.5947 11.0164 10.5947 10.4918C10.4635 8.13115 11.6439 6.42622 12.1685 5.77048C12.1685 5.63933 12.4307 5.50821 12.693 5.50821C13.4799 5.37706 15.7094 5.2459 17.6767 6.55738C18.0701 6.81967 18.0701 7.34429 17.8078 7.60658C17.5455 8.00002 17.0209 7.99999 16.7586 7.7377C15.4472 6.81966 14.0045 6.81969 13.2176 6.81969C12.8242 7.47543 12.0373 8.65576 12.1685 10.2295C12.1685 10.623 11.9062 11.0164 11.3816 11.0164V11.2787Z" fill="white"/>
<path id="Vector_24" d="M20.5619 36.1967C20.5619 36.1967 20.4308 36.1967 20.2996 36.1967C19.3816 35.8033 16.234 34.3607 15.9717 30.4263C15.1849 30.0328 14.5291 29.6394 13.8734 29.2459C10.3324 30.9509 7.44716 28.9836 6.66027 28.3279C6.52913 28.3279 6.39798 28.0656 6.39798 27.8033C6.26684 26.8853 6.00454 23.8689 8.62749 21.6394C9.02093 21.3771 9.41438 21.3771 9.67667 21.6394C9.93897 21.9017 9.93897 22.4263 9.67667 22.6886C7.97175 24.1312 7.8406 26.0984 7.97175 27.1476C8.88978 27.8033 11.1193 28.9836 13.6111 27.4098C13.8734 27.2787 14.2668 27.4098 14.5291 27.4098C15.316 28.0656 16.234 28.5902 17.1521 28.9836C17.4144 28.9836 17.6767 29.3771 17.6767 29.7705C17.6767 32.7869 19.6439 34.0984 20.8242 34.4918C21.8734 33.9673 23.9718 32.6558 23.9718 29.7705C23.9718 29.5082 24.234 29.1148 24.4963 28.9836C25.4144 28.5902 26.3324 28.0656 27.1193 27.541C27.3816 27.2787 27.775 27.2787 28.0373 27.541C30.6603 28.9836 32.7586 27.9345 33.6767 27.2787C33.6767 26.2295 33.6767 24.3935 32.1029 22.9508C31.8406 22.6885 31.7095 22.164 32.1029 21.9017C32.3652 21.6394 32.8898 21.5082 33.1521 21.9017C35.6439 24.1312 35.3816 27.1476 35.2505 27.9345C35.2505 28.0656 35.1193 28.3279 34.9881 28.459C34.2013 29.1148 31.316 31.082 27.775 29.3771C27.1193 29.9016 26.3324 30.2951 25.6767 30.5574C25.4144 34.4918 22.2668 35.9345 21.3488 36.3279C21.3488 36.3279 21.2177 36.3279 21.0865 36.3279L20.5619 36.1967Z" fill="white"/>
<g id="Group_4">
<path id="Vector_25" d="M37.3488 39.8688H3.90618C3.25044 39.8688 2.72586 39.6066 2.46357 39.082C2.20127 38.5574 2.20127 37.9016 2.46357 37.5082L5.74226 32.1311C6.00455 31.7377 6.39798 31.6066 6.79142 31.8689C7.18486 32.1312 7.31603 32.5246 7.05373 32.918L3.77504 38.2951H37.2177L33.939 32.918C33.6767 32.5246 33.939 32 34.2013 31.8689C34.5947 31.6066 35.1193 31.8689 35.2505 32.1311L38.5291 37.5082C38.7914 38.0328 38.7914 38.6885 38.5291 39.2131C38.2668 39.7377 37.7423 40 37.0865 40L37.3488 39.8688Z" fill="white"/>
<path id="Vector_26" d="M34.7259 8.13117C34.5947 8.13117 34.4636 8.13117 34.3324 8.13117C33.939 7.86887 33.8078 7.4754 34.0701 7.08196L37.3488 1.70494H3.90618L7.18487 7.08196C7.44716 7.4754 7.18487 8.00002 6.92257 8.13117C6.52913 8.39346 6.00454 8.13115 5.87339 7.86885L2.5947 2.4918C2.33241 1.96721 2.33241 1.31148 2.5947 0.786893C2.857 0.262303 3.38159 0 4.03733 0H37.48C38.1357 0 38.6603 0.262303 38.9226 0.786893C39.1849 1.31148 39.1849 1.96724 38.9226 2.36068L35.6439 7.7377C35.5127 7.99999 35.2504 8.13117 34.9881 8.13117H34.7259Z" fill="white"/>
<path id="Vector_27" d="M39.316 22.9508H1.80782C1.02094 22.9508 0.365196 22.4262 0.102901 21.7705C-0.159394 21.1148 0.102893 20.3279 0.627483 19.8033L3.38159 17.5738C3.77503 17.3115 4.16848 17.3115 4.43077 17.5738C4.69307 17.9672 4.69307 18.3607 4.43077 18.623L1.67667 20.8525C1.67667 20.8525 1.67667 20.9836 1.67667 21.1148C1.67667 21.1148 1.67668 21.1148 1.80782 21.1148H39.316H39.4472C39.4472 21.1148 39.4472 20.9836 39.4472 20.8525L36.6931 18.623C36.2996 18.3607 36.2996 17.8361 36.6931 17.5738C36.9554 17.1803 37.48 17.1803 37.7422 17.5738L40.4964 19.8033C41.1521 20.3279 41.2832 21.1148 41.0209 21.7705C40.7586 22.4262 40.1029 22.9508 39.316 22.9508Z" fill="white"/>
</g>
<path id="Vector_28" d="M31.1849 19.0164C30.9226 19.0164 30.6603 18.8853 30.5291 18.623C30.2668 18.2295 30.5291 17.7049 30.7914 17.5738C33.4144 16.1312 33.5455 13.7705 33.4144 12.459C32.4963 11.8033 30.2668 10.623 27.775 12.1968C27.5127 12.3279 27.1193 12.3279 26.857 12.1968C26.0701 11.541 25.1521 11.0164 24.234 10.623C23.9718 10.623 23.7095 10.2295 23.7095 9.83607C23.7095 6.81968 21.7422 5.5082 20.5619 5.11475C19.5127 5.63934 17.4144 6.95083 17.4144 9.83607C17.4144 10.0984 17.1521 10.4918 16.8898 10.623C15.9718 11.0164 15.0537 11.541 14.2668 12.0656C14.0045 12.3279 13.6111 12.3279 13.3488 12.0656C10.7258 10.623 8.6275 11.6721 7.70947 12.3279C7.70947 13.5082 7.70947 15.8689 10.3324 17.4427C10.7259 17.705 10.857 18.0984 10.5947 18.4918C10.3324 18.8853 9.93897 19.0164 9.54552 18.7541C5.74224 16.5246 6.13569 12.8525 6.26683 11.8033C6.26683 11.6721 6.39798 11.4099 6.52913 11.2787C7.31601 10.623 10.2013 8.65574 13.7422 10.3607C14.398 9.83607 15.0537 9.44263 15.8406 9.18034C16.1029 5.24591 19.2505 3.67215 20.1685 3.40985C20.2996 3.40985 20.5619 3.40985 20.6931 3.40985C21.6111 3.80329 24.7586 5.24591 25.0209 9.18034C25.8078 9.57378 26.4636 9.96721 27.1193 10.3607C30.6603 8.65574 33.5455 10.623 34.3324 11.2787C34.4636 11.2787 34.5947 11.541 34.5947 11.8033C34.7259 12.8525 34.9882 16.6558 31.316 18.7541C31.316 18.7541 31.0537 18.7541 30.9226 18.7541L31.1849 19.0164Z" fill="white"/>
</g>
</g>
</g>
</svg>
