<svg width="42" height="53" viewBox="0 0 42 53" fill="none" xmlns="http://www.w3.org/2000/svg">
<path d="M22.5846 22.14L21.0246 17.6L19.4646 22.14H22.5846ZM23.5046 24.68H18.5446L17.5446 27.5H14.7446L19.7446 13.5H22.3046L27.3046 27.5H24.5046L23.5046 24.68Z" fill="white"/>
<path fill-rule="evenodd" clip-rule="evenodd" d="M23.2548 52.1476C28.5555 47.8269 41.5662 35.7239 41.5662 21.0188C41.5662 15.5769 39.4044 10.3578 35.5564 6.50982C31.7084 2.6618 26.4893 0.5 21.0474 0.5C15.6055 0.5 10.3864 2.6618 6.53839 6.50982C2.69036 10.3578 0.528564 15.5769 0.528564 21.0188C0.528564 35.7239 13.5392 47.8269 18.8399 52.1476C20.1431 53.2098 21.9517 53.2098 23.2548 52.1476ZM33.6152 21.0188C33.6152 27.9598 27.9884 33.5866 21.0474 33.5866C14.1064 33.5866 8.47961 27.9598 8.47961 21.0188C8.47961 14.0778 14.1064 8.45104 21.0474 8.45104C27.9884 8.45104 33.6152 14.0778 33.6152 21.0188Z" fill="url(#paint0_linear_133_764)"/>
<defs>
<linearGradient id="paint0_linear_133_764" x1="0.528564" y1="52.9443" x2="51.4341" y2="13.1107" gradientUnits="userSpaceOnUse">
<stop stop-color="#E64E05"/>
<stop offset="1" stop-color="#FDBD0D"/>
</linearGradient>
</defs>
</svg>
