<svg width="40" height="30" viewBox="0 0 40 30" fill="none" xmlns="http://www.w3.org/2000/svg">
<g id="Group">
<g id="Layer_1">
<g id="Group_2">
<path id="Vector" d="M39.542 16.3819L35.3444 12.9979C35.0382 12.7562 34.5951 12.8046 34.3533 13.1027C34.1116 13.4088 34.16 13.852 34.4581 14.0937C35.2316 14.7141 36.3676 15.6326 37.2942 16.3738H9.69086C9.64252 16.3738 9.58613 16.3738 9.53778 16.3738H2.70545L5.54151 14.0937C5.84768 13.852 5.89602 13.4088 5.64625 13.1027C5.40454 12.7965 4.96141 12.7482 4.65524 12.9979L0.264178 16.535C0.0305245 16.7203 -0.0581039 17.0345 0.0385801 17.3165C0.135264 17.5985 0.401146 17.7838 0.699255 17.7838H8.06335C6.92732 19.5402 7.08845 21.4417 7.19319 22.0862L7.23348 22.3521L7.44296 22.5213C7.95861 22.9403 9.36858 23.9232 11.262 23.9393L12.5189 27.9195L16.6038 27.0252C17.5626 28.6607 19.1176 29.3939 19.7379 29.6356L19.9877 29.7323L20.2375 29.6356C20.8579 29.402 22.4129 28.6688 23.3717 27.0332L27.4404 27.9276L28.786 23.9474C30.6471 23.9071 32.0329 22.9483 32.5486 22.5374L32.7581 22.3682L32.7983 22.1023C32.9031 21.4658 33.0803 19.5483 31.9282 17.7838H39.2923C39.5904 17.7838 39.8563 17.5985 39.953 17.3165C40.1222 16.8492 39.7999 16.5914 39.542 16.3819ZM13.4777 26.2759L12.6881 23.7782C13.0829 23.6815 13.4938 23.5365 13.9127 23.327C14.509 23.7621 15.1455 24.1327 15.8222 24.4308C15.8545 24.8981 15.935 25.3171 16.0478 25.7119L13.4777 26.2759ZM23.9437 25.7199C24.0565 25.3251 24.1371 24.8981 24.1693 24.4308C24.8461 24.1327 25.4906 23.7621 26.0788 23.327C26.5139 23.5365 26.9409 23.6896 27.3518 23.7863L26.5139 26.2759L23.9437 25.7119V25.7199ZM31.4448 21.6109C30.5585 22.2474 28.6651 23.1981 26.3608 21.8848L25.9418 21.6512L25.5712 21.9493C24.8703 22.5133 24.0807 22.9644 23.2266 23.2948L22.7835 23.472V23.9474C22.7754 24.7128 22.6224 25.3493 22.3887 25.8891C22.3726 25.9214 22.3565 25.9536 22.3404 25.9858C21.7522 27.2508 20.6806 27.9034 19.9958 28.2176C19.3029 27.9034 18.2393 27.2508 17.6512 25.9858C17.6351 25.9455 17.619 25.9133 17.6028 25.873C17.3692 25.3413 17.2242 24.7048 17.2161 23.9474V23.472L16.7649 23.2948C15.9109 22.9644 15.1213 22.5052 14.4203 21.9412L14.0497 21.6431L13.6307 21.8767C12.962 22.2554 12.3255 22.4488 11.7454 22.5133C11.7132 22.5133 11.689 22.5133 11.6568 22.5213C10.2629 22.6422 9.15911 22.0459 8.54677 21.6028C8.45815 20.7327 8.5226 19.089 9.87618 17.7918H30.0912C31.4689 19.0971 31.5253 20.7488 31.4367 21.6189L31.4448 21.6109Z" fill="white"/>
<path id="Vector_2" d="M10.1501 14.142C10.4885 14.3353 10.9155 14.2225 11.1169 13.8922C11.3103 13.5538 11.1975 13.1268 10.8672 12.9254C8.56288 11.5799 8.45008 9.46086 8.56288 8.38122C9.44915 7.74472 11.3425 6.79399 13.6468 8.10728L14.0658 8.34094L14.4364 8.04283C15.1374 7.47884 15.9189 7.02764 16.773 6.69731L17.2161 6.52005V6.04469C17.2322 3.37783 19.0048 2.21762 19.9958 1.77448C20.9868 2.21762 22.7593 3.38588 22.7835 6.04469V6.52005L23.2347 6.69731C24.0887 7.02764 24.8783 7.48689 25.5793 8.05088L25.9499 8.34899L26.3688 8.11534C28.6812 6.80205 30.5746 7.75277 31.4528 8.38928C31.5656 9.47697 31.4367 11.596 29.1405 12.9334C28.8021 13.1268 28.6893 13.5619 28.8907 13.9003C29.0196 14.1259 29.2613 14.2467 29.503 14.2467C29.7447 14.2467 29.7447 14.2145 29.8575 14.15C33.2012 12.1922 32.9675 8.8727 32.8144 7.8978L32.7742 7.63192L32.5647 7.46272C32.0571 7.05182 30.6713 6.08498 28.8021 6.05275L27.4807 2.0887L23.3475 2.87829C22.3806 1.30717 20.874 0.598159 20.2697 0.364506L20.0199 0.267822L19.7702 0.364506C19.1498 0.598159 17.6028 1.33135 16.636 2.96692L12.5672 2.07259L11.2378 6.05275C9.37664 6.09303 7.99083 7.05182 7.48324 7.45467L7.27376 7.62386L7.23347 7.88974C7.08039 8.85658 6.82257 12.1761 10.1823 14.142H10.1501ZM26.5219 3.70816L27.3599 6.21389C26.949 6.31057 26.5219 6.46365 26.0869 6.67314C25.4906 6.23806 24.8541 5.86744 24.1773 5.56933C24.1451 5.06979 24.0565 4.6186 23.9276 4.19964L26.5219 3.7001V3.70816ZM16.0559 4.28826C15.9431 4.68306 15.8625 5.11008 15.8303 5.57738C15.1535 5.87549 14.517 6.23806 13.9288 6.67314C13.4857 6.4556 13.0587 6.31057 12.6478 6.20583L13.4776 3.71622L16.0559 4.28021V4.28826Z" fill="white"/>
</g>
</g>
</g>
</svg>
