<svg width="64" height="64" viewBox="0 0 64 64" fill="none" xmlns="http://www.w3.org/2000/svg">
<g clip-path="url(#clip0_259_571)">
<rect width="64" height="64" rx="4" fill="#313C4E"/>
<rect x="50.6011" y="13" width="57" height="53.1759" transform="rotate(45 50.6011 13)" fill="url(#paint0_linear_259_571)"/>
<g clip-path="url(#clip1_259_571)">
<rect x="12" y="12" width="40" height="40" rx="4" fill="url(#paint1_linear_259_571)"/>
<g clip-path="url(#clip2_259_571)">
<path d="M42 20.75H22C21.4477 20.75 21 21.1977 21 21.75V41.75C21 42.3023 21.4477 42.75 22 42.75H42C42.5523 42.75 43 42.3023 43 41.75V21.75C43 21.1977 42.5523 20.75 42 20.75Z" stroke="#080F21" stroke-width="1.5" stroke-miterlimit="10"/>
<path d="M38 18.75V22.75" stroke="#080F21" stroke-width="1.5" stroke-miterlimit="10"/>
<path d="M26 18.75V22.75" stroke="#080F21" stroke-width="1.5" stroke-miterlimit="10"/>
<path d="M21 26.75H43" stroke="#080F21" stroke-width="1.5" stroke-miterlimit="10"/>
<path d="M32 33.75C32.8284 33.75 33.5 33.0784 33.5 32.25C33.5 31.4216 32.8284 30.75 32 30.75C31.1716 30.75 30.5 31.4216 30.5 32.25C30.5 33.0784 31.1716 33.75 32 33.75Z" fill="black"/>
<path d="M37.5 33.75C38.3284 33.75 39 33.0784 39 32.25C39 31.4216 38.3284 30.75 37.5 30.75C36.6716 30.75 36 31.4216 36 32.25C36 33.0784 36.6716 33.75 37.5 33.75Z" fill="black"/>
<path d="M26.5 38.75C27.3284 38.75 28 38.0784 28 37.25C28 36.4216 27.3284 35.75 26.5 35.75C25.6716 35.75 25 36.4216 25 37.25C25 38.0784 25.6716 38.75 26.5 38.75Z" fill="black"/>
<path d="M32 38.75C32.8284 38.75 33.5 38.0784 33.5 37.25C33.5 36.4216 32.8284 35.75 32 35.75C31.1716 35.75 30.5 36.4216 30.5 37.25C30.5 38.0784 31.1716 38.75 32 38.75Z" fill="black"/>
<path d="M37.5 38.75C38.3284 38.75 39 38.0784 39 37.25C39 36.4216 38.3284 35.75 37.5 35.75C36.6716 35.75 36 36.4216 36 37.25C36 38.0784 36.6716 38.75 37.5 38.75Z" fill="black"/>
</g>
</g>
</g>
<defs>
<linearGradient id="paint0_linear_259_571" x1="52.5131" y1="13" x2="105.689" y2="66.1759" gradientUnits="userSpaceOnUse">
<stop stop-color="#141E2F"/>
<stop offset="1" stop-color="#313C4E"/>
</linearGradient>
<linearGradient id="paint1_linear_259_571" x1="12" y1="52" x2="52" y2="12" gradientUnits="userSpaceOnUse">
<stop stop-color="#E64E05"/>
<stop offset="1" stop-color="#FDBD0D"/>
</linearGradient>
<clipPath id="clip0_259_571">
<rect width="64" height="64" rx="4" fill="white"/>
</clipPath>
<clipPath id="clip1_259_571">
<rect x="12" y="12" width="40" height="40" rx="4" fill="white"/>
</clipPath>
<clipPath id="clip2_259_571">
<rect width="40" height="40" fill="white" transform="translate(12 12)"/>
</clipPath>
</defs>
</svg>
