<svg width="64" height="64" viewBox="0 0 64 64" fill="none" xmlns="http://www.w3.org/2000/svg">
<g clip-path="url(#clip0_259_578)">
<rect width="64" height="64" rx="4" fill="#313C4E"/>
<rect x="50.6011" y="13" width="57" height="53.1759" transform="rotate(45 50.6011 13)" fill="url(#paint0_linear_259_578)"/>
<g clip-path="url(#clip1_259_578)">
<rect x="12" y="12" width="40" height="40" rx="4" fill="url(#paint1_linear_259_578)"/>
<g clip-path="url(#clip2_259_578)">
<path d="M32.0034 31.9987L44.9942 19.0079" stroke="#080F21" stroke-width="1.5" stroke-miterlimit="10"/>
<path d="M41.189 22.8132C38.888 20.5176 35.8092 19.1693 32.5618 19.0349C29.3143 18.9005 26.1347 19.9899 23.6519 22.0876C21.1692 24.1852 19.5641 27.1383 19.1543 30.3626C18.7446 33.5869 19.5599 36.8476 21.439 39.4996C23.3181 42.1516 26.1242 44.0017 29.302 44.6839C32.4798 45.3662 35.798 44.8308 38.6001 43.1838C41.4021 41.5368 43.4839 38.8981 44.4337 35.7897C45.3834 32.6813 45.1319 29.3297 43.729 26.3978" stroke="#080F21" stroke-width="1.5" stroke-miterlimit="10"/>
<path d="M36.5961 27.4059C35.5216 26.3327 34.105 25.67 32.5926 25.5328C31.0802 25.3956 29.5675 25.7927 28.3175 26.6551C27.0674 27.5174 26.1591 28.7905 25.7503 30.2531C25.3415 31.7157 25.4581 33.2753 26.0798 34.6608C26.7015 36.0463 27.789 37.1702 29.1534 37.8372C30.5177 38.5041 32.0726 38.6719 33.5479 38.3114C35.0231 37.9509 36.3253 37.0849 37.2283 35.8638C38.1313 34.6428 38.5779 33.144 38.4906 31.6279" stroke="#080F21" stroke-width="1.5" stroke-miterlimit="10"/>
</g>
</g>
</g>
<defs>
<linearGradient id="paint0_linear_259_578" x1="52.5131" y1="13" x2="105.689" y2="66.1759" gradientUnits="userSpaceOnUse">
<stop stop-color="#141E2F"/>
<stop offset="1" stop-color="#313C4E"/>
</linearGradient>
<linearGradient id="paint1_linear_259_578" x1="12" y1="52" x2="52" y2="12" gradientUnits="userSpaceOnUse">
<stop stop-color="#E64E05"/>
<stop offset="1" stop-color="#FDBD0D"/>
</linearGradient>
<clipPath id="clip0_259_578">
<rect width="64" height="64" rx="4" fill="white"/>
</clipPath>
<clipPath id="clip1_259_578">
<rect x="12" y="12" width="40" height="40" rx="4" fill="white"/>
</clipPath>
<clipPath id="clip2_259_578">
<rect width="40" height="40" fill="white" transform="translate(12 12)"/>
</clipPath>
</defs>
</svg>
