<svg width="64" height="64" viewBox="0 0 64 64" fill="none" xmlns="http://www.w3.org/2000/svg">
<g clip-path="url(#clip0_259_601)">
<rect width="64" height="64" rx="4" fill="#313C4E"/>
<rect x="50.6011" y="13" width="57" height="53.1759" transform="rotate(45 50.6011 13)" fill="url(#paint0_linear_259_601)"/>
<g clip-path="url(#clip1_259_601)">
<rect x="12" y="12" width="40" height="40" rx="4" fill="url(#paint1_linear_259_601)"/>
<g clip-path="url(#clip2_259_601)">
<path d="M23 45H41" stroke="#080F21" stroke-width="1.5" stroke-miterlimit="10"/>
<path d="M32 33C34.2091 33 36 31.2091 36 29C36 26.7909 34.2091 25 32 25C29.7909 25 28 26.7909 28 29C28 31.2091 29.7909 33 32 33Z" stroke="#080F21" stroke-width="1.5" stroke-miterlimit="10"/>
<path d="M42 29C42 38 32 45 32 45C32 45 22 38 22 29C22 26.3478 23.0536 23.8043 24.9289 21.9289C26.8043 20.0536 29.3478 19 32 19C34.6522 19 37.1957 20.0536 39.0711 21.9289C40.9464 23.8043 42 26.3478 42 29Z" stroke="#080F21" stroke-width="1.5" stroke-miterlimit="10"/>
</g>
</g>
</g>
<defs>
<linearGradient id="paint0_linear_259_601" x1="52.5131" y1="13" x2="105.689" y2="66.1759" gradientUnits="userSpaceOnUse">
<stop stop-color="#141E2F"/>
<stop offset="1" stop-color="#313C4E"/>
</linearGradient>
<linearGradient id="paint1_linear_259_601" x1="12" y1="52" x2="52" y2="12" gradientUnits="userSpaceOnUse">
<stop stop-color="#E64E05"/>
<stop offset="1" stop-color="#FDBD0D"/>
</linearGradient>
<clipPath id="clip0_259_601">
<rect width="64" height="64" rx="4" fill="white"/>
</clipPath>
<clipPath id="clip1_259_601">
<rect x="12" y="12" width="40" height="40" rx="4" fill="white"/>
</clipPath>
<clipPath id="clip2_259_601">
<rect width="40" height="40" fill="white" transform="translate(12 12)"/>
</clipPath>
</defs>
</svg>
