<?xml version="1.0" encoding="UTF-8"?>
<svg id="Layer_1" data-name="Layer 1" xmlns="http://www.w3.org/2000/svg" xmlns:xlink="http://www.w3.org/1999/xlink" width="720" height="500" viewBox="0 0 720 500">
  <defs>
    <style>
      .cls-1 {
        fill: #007800;
      }

      .cls-2 {
        stroke: #4a5160;
        stroke-miterlimit: 10;
      }

      .cls-2, .cls-3 {
        fill: #161e2e;
      }

      .cls-4 {
        fill: #fff;
      }

      .cls-5 {
        fill: #202c4b;
      }

      .cls-6 {
        fill: #8f939a;
      }

      .cls-7 {
        fill: url(#linear-gradient);
        fill-rule: evenodd;
      }

      .cls-8 {
        fill: #333c4c;
      }

      .cls-9 {
        fill: #4a5160;
      }
    </style>
    <linearGradient id="linear-gradient" x1="428.65" y1="232.42" x2="461.62" y2="258.22" gradientTransform="translate(0 500.11) scale(1 -1)" gradientUnits="userSpaceOnUse">
      <stop offset="0" stop-color="#e64e05"/>
      <stop offset="1" stop-color="#fdbd0d"/>
    </linearGradient>
  </defs>
  <path class="cls-2" d="M347.91,282.57l-6.48-28.81,3.35-.91-5.31-29.49h-11.47l3.01-32.51h1.83l.37-8.23h-5.2l6.67-68.76,100.76,8.06s1.34-15.74,1.65-18.73,2.13-6.58,7.68-6.28,16.46,1.4,18.9,1.65,10.36,1.71,15.3,9.27c4.94,7.56,29.7,46.44,30.98,48.39,1.29,1.95,2.36,7.27-1.6,6.96-3.96-.3-24.63-1.83-24.63-1.83l-1.34,13.65,27.98,2.32-1.1,18.1,5.79.37-5.18,74.25-4.94-.37-.61,6.89-16.46-1.4,1.46-21.09-25.05-2.19-1.16,11.7-15.09-.67-100.1,19.66Z"/>
  <polygon class="cls-1" points="399.82 358.92 403.4 295.53 483.39 282.94 480.4 353.92 399.82 358.92"/>
  <polygon class="cls-1" points="228.42 241.34 260.85 237.92 248.66 315.7 234.76 316.92 228.42 241.34"/>
  <polygon class="cls-6" points="348.12 283.5 447.35 264.02 459.79 264.75 459.79 271.33 350.19 292.79 348.12 283.5"/>
  <rect class="cls-5" x="398.04" y="272.26" width="15.43" height="7.73" transform="translate(-45.6 83.34) rotate(-11.11)"/>
  <rect class="cls-5" x="442.01" y="268.33" width="7.79" height="7.59" transform="translate(-43.98 90.74) rotate(-11.08)"/>
  <polygon class="cls-9" points="351.42 306.94 395.32 311.62 390.98 354.35 360.26 355.69 351.42 306.94"/>
  <polygon class="cls-9" points="295.19 248.66 323.4 282.55 279.99 290.4 295.19 248.66"/>
  <polygon class="cls-9" points="496.16 293.14 526.26 295.25 525.83 301.88 531.22 302.27 529.16 340.55 513.59 339.44 513.59 346.43 496.91 347.38 495.95 338.17 487.9 337.22 490.29 299.41 495.73 299.76 496.16 293.14"/>
  <polygon class="cls-9" points="514.57 202.45 523.08 203.03 523.08 199.86 534.18 200.7 530.26 260.63 510.39 259.21 514.57 202.45"/>
  <polygon class="cls-1" points="137.44 0 149.95 40.3 224.82 49.03 292.5 56.52 430.11 75.84 490.77 69.44 510.39 0 137.44 0"/>
  <rect class="cls-9" x="237.44" y="127.57" width="106.62" height="22.96" transform="translate(457.28 -136.89) rotate(95.55)"/>
  <path class="cls-8" d="M652.31,360.9c.44-1.79.68-3.67.68-5.59,0-12.94-10.53-23.46-23.46-23.46-.56,0-1.12.03-1.67.07-7.21-10.88-31.48-47.73-42.3-66.73-12.79-22.46-21.91-55.52-26.81-73.29-.71-2.58-1.34-4.85-1.88-6.76-2.9-10.16-16.89-32.79-33.49-59.14-5.84-9.27-11.37-18.03-12.62-20.67-2.91-6.14.65-14.16.68-14.24h0c1.19-2.5,1.87-5.3,1.87-8.25,0-3.21-.8-6.23-2.2-8.9h0c-.03-.07-3.37-6.41-1.52-13.03C512.11,51.87,526.56.5,526.7,0h-23.83c-4.39,21.54-13.28,56.67-20.07,67.33-.87.63-1.68,1.34-2.43,2.11-7.98.61-33.29,2.52-37.88,2.72-3.66.15-24.72-2.11-56.32-6.06-17.59-2.2-100.65-14.67-112.5-16.89-9.99-1.87-40.71-4.57-61.04-6.36-4.01-.35-7.52-.66-10.26-.91-13.51-1.23-43.52-6.34-51.76-7.77L137.44,0h-10.41l86.53,224.4c.9,15.43,5.64,95.53,9.87,152.66-2.49,1.13-4.92,2.2-7.29,3.22-3.68.96-7.9,1.28-11.73-.34-5.21-2.21-14.51-17.9-19.45-28.33l-.6-1.26-10.64-6.84L-.31,102.96v16.57l166.05,229.51,2.2,12.45.67.91c.05.07,5.39,7.39,9.94,15.44,3.73,6.6-1.9,13.59-8.41,17.93-3.71,2.47-23.01,8.34-41.67,14.01-26.86,8.17-60.29,18.33-77.37,26.98C23.08,450.95-.05,466.55-.31,466.73v21.86c.3-.27,33.69-29.34,78.89-44.17,12.8-4.2,44.7-13.24,76.04-21.95,4.23.48,24.32,3.38,33.34,15.84,1.94,4,4.75,7.52,8.79,9.91,12.36,7.29,35.38,16.27,42.59,19.02,5.6,16.65,10.77,31.57,11.19,32.77h16.81c-.09-.27-5.31-16.09-10.06-31.82,3.83-.33,8.94-1.13,14.51-3,10.63-3.56,25.03-11.78,33.22-30.74,8.13-18.81,10.35-35.68,6.66-50.34,2.28-1.99,7.17-5.21,15.25-5.63,3.33-.17,20.82-1.23,45.65-2.75-8.1,5.14-36.19,23.03-38.98,25.45-1.57,1.36-2.31,3.99-3.43,7.97-1.26,4.46-2.98,10.57-6.83,18.11-2.07,4.05-5.68,9.08-8.58,13.13-1.61,2.25-3.01,4.19-3.64,5.3-1.67,2.93-4.98,13.52-9.47,28.16-4.03,13.16-6.84,26.02-6.86,26.14h.65c.03-.13,2.81-12.82,6.84-25.95,3.46-11.28,7.36-24.01,9.21-27.67,1.53,1.43,8.36,7.98,9.22,11.33.98,3.8.39,7.84-1.21,18.61l-.04.26c-1.61,10.88-7.78,23.29-7.84,23.42h.73c.06-.12,6.13-12.34,7.75-23.32l.04-.26c1.61-10.87,2.21-14.94,1.19-18.87-.95-3.66-8.21-10.53-9.52-11.75.67-1.11,1.97-2.93,3.47-5.03,2.91-4.06,6.53-9.11,8.63-13.21,3.89-7.6,5.62-13.75,6.88-18.23,1.09-3.87,1.81-6.43,3.23-7.66,2.85-2.47,33.58-22.01,39.9-26.02,72.09-4.41,203.76-12.57,232.91-14.37,2.6,9.89,11.52,17.25,22.16,17.49,5.02.78,18.98,4.35,22.83,11.4l31.66,57.71c2.16,6.22,3.41,11.44,3.33,15.05-.3,12.35-2.07,36.84-2.08,37.09h11.69c.07-1,1.74-24.17,2.05-36.8.56-23.28-37.33-87.64-46.16-102.3ZM571.78,311.91l-.09-5.44c.32-.15.63-.33.92-.57l7.02-5.71c4.13,4.26,8.05,8.36,10.82,11.44l-7.12.11c-.14-.03-.28-.05-.43-.05-.17,0-.32.03-.48.07l-10.63.16ZM580.95,315.66v11.83l-8.9.1-.2-11.79,9.1-.13ZM575.42,270.94c3.43,6.03,8.11,13.7,13.16,21.74-2.7-2.79-5.7-5.86-8.98-9.22-8.2-8.4-17.49-17.9-19.48-20.63-1.34-2.86-1.58-15.93-1.73-24.61-.05-2.53-.09-5.03-.15-7.47,4.67,13.79,10.41,28.28,17.19,40.18ZM550.52,269.45c.05.06.11.14.16.21-1.98.29-4.3.63-6.54.97-.52.08-.96.13-1.36.17.58-1.04.91-2.23.91-3.49,0-.8-.14-1.57-.38-2.29,1.23-.74,2.88-1.97,4.52-3.9.54,3.88,1.37,6.46,2.68,8.33ZM497.4,63.69c0,.08-.01.15-.01.23-.02,0-.05,0-.07-.01.03-.07.06-.14.09-.22ZM490.57,76.18l.12.1c.07-.08.14-.18.21-.26.97-.46,2.05-.72,3.2-.72,4.15,0,7.53,3.38,7.53,7.53s-3.38,7.53-7.53,7.53-7.53-3.38-7.53-7.53c0-2.87,1.62-5.37,3.99-6.64ZM498.06,101.96c-.07-.11-.14-.22-.21-.33.06-.01.12-.02.18-.04,0,.12.01.24.02.36ZM384.73,77.67c12.28,1.53,22.67,2.78,31.17,3.75-7.63,15.98-14.44,15.61-19.08,15.35l-.72-.04c-4.12-.2-9.57-6.12-14.37-11.34l-.47-.51c-2.12-2.3-4.22-5.49-5.98-8.48,4,.56,7.24,1,9.46,1.27ZM305.77,66.12c5.13.78,10.54,1.61,16.03,2.43-.47,7.22-1.25,19.21-1.5,22.95-.22,3.3,1.22,9.4,2.61,15.3,1,4.23,2.03,8.61,1.96,10.16-.18,4.02-6.33,78-6.4,78.74-.03.31-.09.54-.18.61-.08.07-.62.41-2.72.18l-.51-.06c-3.91-.43-7.82-.8-11.72-1.12.41-4.56,1.31-14.85,1.46-18.02.11-2.42,3.48-20.55,5.95-33.8,1.52-8.18,2.72-14.64,3-16.48.76-5.14,3.16-30.35,3.56-35.42.52-6.48-1.5-8.17-6.23-9.52-2.72-.78-17.6-5.81-25.68-8.56,3.45-3.33,12.28-6.65,20.37-7.41ZM310,85.82c3.12.89,3.77,1.08,3.42,5.47-.46,5.82-2.82,30.32-3.53,35.16-.26,1.77-1.52,8.52-2.97,16.34-3.33,17.93-5.89,31.84-6.01,34.33-.14,3.06-1.05,13.39-1.45,17.89-9.62-.69-19.06-1.02-27.98-.97.79-8.16,1.3-15.43,1.3-19.76,0-30.12,7.67-85.37,10.78-97.28,7.96,2.7,23.53,7.98,26.43,8.81ZM202.67,53.67c2.52.23,5.55.49,8.95.79,16.12,1.42,41.51,3.65,54.46,5.37,3.42,2.48,8.96,8.04,7.49,17.29-2.31,10.32-5.37,31.37-7.59,52.64-10.92-1.56-37.08-4.99-49.93-4.05-7.68-21.15-14.3-39.83-15.23-43.74-1.62-6.81.46-20.61,1.85-28.31ZM265.58,133.64c-1.49,14.99-2.51,29.77-2.51,40.65,0,6.01-.98,17.25-2.26,28.58-4.09-.49-9.93-1.22-12.65-1.66-3.38-.55-4.56-2.06-6.08-5.46-1.27-2.84-13.74-36.23-24.66-66.22,12.73-.65,37.75,2.63,48.15,4.11ZM222.69,221.08L155.5,46.84c11.53,1.95,31.35,5.18,43.27,6.46-1.45,8.04-3.52,22.14-1.74,29.58,2.71,11.37,41.2,113.77,41.51,114.45,1.58,3.55,3.46,6.8,9,7.71,2.81.46,8.71,1.19,12.82,1.69-1.52,12.75-3.35,24.86-4.5,28.88-.05.18-.13.38-.23.59-10.73-.41-19.91,2.12-20.35,2.24-1.03.29-1.64,1.36-1.35,2.39.24.86,1.02,1.42,1.87,1.42.17,0,.35-.02.52-.07.09-.03,7.54-2.06,16.57-2.13-4.17,4.85-12.06,11.97-20.27,18.62-.6-7.11-1.02-12.03-1.18-13.8-1.06-11.71-7.13-21.39-8.74-23.79ZM259.05,264.61c.53.62,1.03,1.16,1.49,1.67,2.5,2.73,3.25,3.56,1.77,7.75-1.55,4.4-3.23,8.53-4.46,11.54-.49,1.21-.91,2.24-1.22,3.03-.4,1.04-1.45,1.9-1.75,1.92,0,0-.78-.55-1.05-3.76-.13-1.54-.24-3.45-.35-5.48-.45-7.93-1.04-18.15-3.56-24.58.8-.72,1.58-1.45,2.36-2.18,1.86,3.13,4.61,7.54,6.77,10.07ZM188.9,377.71c2.95,4.05,6.14,7.67,9.29,9.81-3.98,1.5-7.67,2.8-11.01,3.94,2.28-4.5,2.91-9.22,1.73-13.76ZM173.87,417.14c3.44-.95,6.83-1.88,10.12-2.79-.09,2.25-.1,4.88.09,7.68-3.34-2.04-6.84-3.64-10.22-4.9ZM139.63,416.55c12.93-3.95,22.42-6.95,28.63-9.31,2.89-.67,22.48-5.46,51.24-17.82,1.72-.49,3.31-1.07,4.74-1.66.14,1.84.28,3.64.42,5.41-12.19,3.31-49.85,13.55-85.04,23.38ZM201.7,439.84c-8.16-4.81-8.57-19.94-7.82-28.21,13.78-3.78,25.18-6.88,31.59-8.62,1.42,16.97,2.68,29.1,3.58,32.33,1.15,4.1,3.52,11.49,6.29,19.89-9.83-3.92-24.89-10.22-33.65-15.39ZM239.65,341.34c4.75.92,11.9,2.6,19.72,5.43l-17.72,17.81c-.66-7.59-1.33-15.41-2.01-23.24ZM296.11,430.59c-10.57,24.44-33.12,27.73-41.64,28.07-3.13-10.84-5.83-21.16-6.6-26.92-.73-5.48-2.74-27.52-5.11-54.49l26.3-26.44c4.67,2.22,9.33,4.88,13.64,8.07.66.62,2.3,2.07,4.68,3.8,3.98,3.56,7.5,7.65,10.23,12.37,8.55,14.76,8.04,33.44-1.51,55.54ZM308.29,374.53c-.49-1.06-1.02-2.11-1.59-3.15,1.82.32,3.7.51,5.61.51h.14c.17,0,.39,0,.65-.01-1.85.83-3.45,1.74-4.81,2.65ZM345.32,360.28c-18.18,1.16-30.4,1.89-32.91,1.9h-.1c-7.38,0-14.37-3.93-18.7-7-18.58-16.49-44.86-22.23-54.82-23.89-.27-3.17-.54-6.33-.81-9.45,6.96-1.32,14.52-2.74,22.25-4.18,1.75,2.98,4.81,8.08,7.07,11.41.01.02.03.04.04.06h0c.65.96,1.24,1.77,1.71,2.33,2.84,3.41,8.13,6.78,13.82,8.81,2.27.81,5.39,2.98,8.4,5.07,3.45,2.39,7.01,4.87,10.22,6.07,6.57,2.46,15.43,5.05,23.69,5.05,2.14,0,4.25-.17,6.26-.57,4.93-.97,7.57-1.56,8.98-3.41,1.48-1.94,1.03-4.27.23-8.52-.17-.87-.35-1.85-.54-2.93-1.8-10.26-5.08-27.61-5.68-30.59-.5-2.5-3.61-2.2-8.65-1.49-3.91.55-9.27,1.52-14.95,2.55-1.62.29-3.27.59-4.94.89-1.69.3-3.4.6-5.1.9-5.56.97-10.8,1.89-14.74,2.79-4.78,1.09-8.13,2.07-7.76,4.71.18,1.28.6,3.66,1.08,6.27-3.46.63-7.69.82-8.96-.32-1.09-1.77-1.15-6.7-.8-10.84,30.49-5.63,60.77-11,64.55-11,3.39,0,5.19,1.87,6.21,12.5.12,1.19.22,2.32.37,3.36.22,1.59.43,3.66.66,5.85.94,9.22,1.78,16.01,3.97,19.3.54.8,1.09,1.57,1.62,2.32,1.02,1.42,2.72,3.79,2.69,4.61-.68,1.44-2.71,4.77-4.39,7.44ZM264.3,316.9c.46-.09.92-.17,1.38-.26-.05.74-.09,1.55-.12,2.38-.45-.75-.88-1.46-1.27-2.12ZM274.67,331.47c2-.02,3.98-.3,5.43-.58.3,1.58.59,3.1.83,4.38-2.34-1.1-4.51-2.42-6.27-3.8ZM325.63,352.56c-2.89.03-6.1-.29-9.55-.96l-6.78-35.86c.75-.14,1.5-.27,2.24-.41,2.11-.38,4.34-.79,6.54-1.17l7.55,38.4ZM321.91,313.5c3.94-.66,7.34-1.14,8.95-1.15.95,4.89,3.81,20.05,5.44,29.36.19,1.1.38,2.09.55,2.98.52,2.72.92,4.88.5,5.44-.58.76-3.8,1.4-6.64,1.95-.38.07-.77.14-1.17.19l-7.62-38.78ZM311.94,350.66c-2.91-.75-5.94-1.7-9.08-2.88-.37-.14-.75-.3-1.13-.48l-5.23-29.3c1.71-.31,3.41-.6,4.98-.88,1.32-.23,2.66-.47,3.99-.7l6.47,34.24ZM297.33,344.77c-1.27-.83-2.56-1.72-3.84-2.61-2.95-2.05-5.76-4-8.26-5.11-.59-3.04-2.3-11.96-2.93-15.86,1.61-.71,5.77-1.6,10.38-2.48l4.65,26.06ZM353.24,359.77c.99-1.66,1.89-3.23,2.36-4.23,1.83-3.92-.91-7.73-3.32-11.09-.5-.7-1.02-1.42-1.49-2.13-1.47-2.21-2.38-11.07-2.92-16.36-.23-2.25-.45-4.38-.68-6.08-.13-.91-.23-1.97-.34-3.09-.38-3.99-.92-9.54-3.44-13.49,11.47-1.84,46.08-7.38,75.1-12.03l2.39,11.33-4.28,6.77-16.36-.27.88-14.84-.65-.04-3.73,62.65c-16.07,1.08-30.9,2.06-43.52,2.88ZM461.59,316c-.65-.44-1.31-.84-1.98-1.19-4-2.04-16.49-8.09-18.04-8.84l-1.87-18.09c12.98-2.08,22.14-3.54,22.98-3.67l.2-.03c2.1-.32,4.97-.77,6.61.47.76.58,1.2,1.46,1.35,2.69,2.27,18.85-9.27,28.39-9.39,28.48l.14.17ZM463.29,331.14c-2.5,0-4.53,2.03-4.53,4.53,0,.07,0,.13,0,.19l-14.17,3.01-6.33-9.07c.39-.12.79-.26,1.19-.42,2.49-.98,7.12-2.81,9.29-6.06.36-.54.68-1.09.99-1.62,1.44-2.46,2.81-4.79,8.24-6.99.5.25.95.48,1.33.67,4.49,2.29,8.45,6.89,10.08,11.7,1.03,3.04,1.4,4.88,1.56,6.19l-3.44.73c-.66-1.68-2.3-2.87-4.21-2.87ZM467.18,335.67c0,2.14-1.74,3.88-3.88,3.88s-3.88-1.74-3.88-3.88,1.74-3.88,3.88-3.88,3.88,1.74,3.88,3.88ZM423.31,319.99c.16.57,1.9,6.47,5.52,8.73.74.46,1.5.82,2.28,1.09-.14.83-.68,3.7-2.04,6.73-1.36,3.01-4.21,5.76-5.06,6.55-1.4-1.74-3.54-2.86-5.94-2.86-3.78,0-6.91,2.77-7.5,6.38l-12.61.89,2.25-37.74,16.4.27,6.7,9.97ZM417.18,309.7l4.07-6.45,4.93,7.6-2.67,8.27-6.33-9.42ZM429.18,328.18c-3.28-2.05-5-7.55-5.23-8.32l2.84-8.8,14.44-4.53c1.16.56,10.78,5.22,15.98,7.81-5.2,2.22-6.64,4.67-8.03,7.04-.31.52-.62,1.06-.97,1.59-2.06,3.09-6.57,4.87-8.99,5.82-3.69,1.46-7.07,1.25-10.05-.61ZM440.91,305.96l-14.24,4.46-5.14-7.88-2.4-11.37c7.14-1.14,13.92-2.23,19.91-3.19l1.85,17.97ZM397.41,356.85l.52-8.7,12.57-.88c-.01.19-.03.38-.03.58,0,4.18,3.38,7.58,7.55,7.61-7.03.48-13.93.94-20.61,1.39ZM411.11,347.85c0-3.84,3.12-6.96,6.96-6.96s6.96,3.12,6.96,6.96-3.12,6.96-6.96,6.96-6.96-3.12-6.96-6.96ZM419.09,355.38c3.72-.5,6.59-3.68,6.59-7.54,0-1.56-.48-3.02-1.29-4.23.84-.76,3.82-3.59,5.27-6.8,1.36-3.02,1.91-5.83,2.07-6.8.91.25,1.85.38,2.82.38s2-.15,3.04-.41l6.55,9.38,2.57,14.14c-9.34.64-18.6,1.27-27.63,1.88ZM447.37,353.46l-2.54-13.97,14.01-2.98c.4,2.1,2.24,3.69,4.45,3.69,2.5,0,4.53-2.03,4.53-4.53,0-.36-.05-.71-.13-1.04l3.32-.7c.02.27.04.52.06.75.02.27.04.51.06.76.16,1.62,1.37,5.77,2.38,7.79,1.44,2.89,1.42,5.67-.07,8.45-8.68.6-17.41,1.19-26.07,1.78ZM474.19,351.63c1.4-2.84,1.37-5.76-.09-8.69-.97-1.93-2.16-6.03-2.32-7.57-.02-.24-.04-.48-.06-.74-.1-1.43-.24-3.38-1.72-7.74-1.39-4.11-4.43-8.05-8.05-10.64,1.08-.93,11.74-10.64,9.53-28.98-.17-1.4-.71-2.45-1.6-3.13-1.86-1.41-4.89-.94-7.1-.6l-.2.03c-2.82.43-99.57,15.93-119.57,19.13-1.82-2.53-4.58-4.28-8.81-4.28-6.96,0-77.83,13.34-96.76,16.92-1.32-15.45-2.54-29.86-3.5-41.28-.11-1.3-.22-2.56-.32-3.8,3.33-2.57,8.22-6.45,13.19-10.78,1.88,6,2.43,15.64,2.8,22.03.12,2.05.23,3.99.36,5.58.37,4.46,1.82,6.9,4.31,7.26.19.03.38.04.57.04,2.56,0,4.68-2.48,5.42-4.39.3-.77.71-1.78,1.2-2.97,1.24-3.05,2.94-7.22,4.53-11.71,2.26-6.39.13-8.72-2.57-11.67-.44-.48-.91-1-1.41-1.58-2.15-2.51-5.08-7.3-6.85-10.32,4.99-4.98,9-9.86,10.04-13.47,1.68-5.86,4.23-24.17,5.9-40.35,13.68-.09,28.63.71,43.54,2.36l.52.06c.62.07,1.19.1,1.71.1,1.72,0,2.96-.37,3.9-1.15.93-.77,1.46-1.87,1.58-3.29.06-.74,6.22-74.8,6.41-78.89.1-2.09-.9-6.32-2.06-11.23-1.26-5.36-2.7-11.44-2.52-14.15.25-3.69,1.01-15.38,1.48-22.63,14.82,2.23,29.93,4.46,41.56,6.12,2.15,4.06,5.61,10.03,9.27,14l.47.51c5.92,6.44,12.05,13.1,18.83,13.43l.67.04c.76.04,1.6.09,2.52.09,6.04,0,15.15-2.07,23.7-21.15,4.53.49,8.34.87,11.44,1.14l-4.26,38.41,3.86.43,4.28-38.53c1.89.13,3.34.2,4.34.2.25,0,.48,0,.68-.01.66-.03,1.72-.09,3.06-.18,14.86,5.34,25.42,7.1,30.85,7.69,1.04,2.1,2.46,3.99,4.17,5.57,5.14,8.09,56.14,88.67,63.63,113.47,1.61,5.33,1.83,17.42,2.02,28.08.12,6.84.26,12.25.53,16.57-2.06,4.04-4.69,5.99-6.13,6.81-1.25-1.05-2.86-1.69-4.62-1.69-.07,0-.14,0-.22.01.11-4.97.47-20.58.57-24.97.06-2.64.58-7.08,1.17-12.22.54-4.67,1.15-9.97,1.51-14.74.79-10.67-2.03-14.52-4.76-18.24-2.62-3.58-25.08-37.62-25.3-37.96-.59-.9-1.8-1.14-2.69-.55-.9.59-1.14,1.8-.55,2.69.93,1.41,22.73,34.46,25.41,38.12,2.52,3.44,4.7,6.41,4.02,15.65-.35,4.69-.96,9.95-1.49,14.58-.61,5.24-1.13,9.76-1.19,12.58-.12,5.01-.57,24.62-.61,26.36-.88.62-1.61,1.43-2.14,2.38-9.45-.24-10.79,8.11-11.69,13.73-.09.59-.19,1.18-.29,1.74-.89,5.06-5.37,7.36-8.93,7.8-3.92.48-17.43,1.32-17.56,1.33-1.07.07-1.88.99-1.82,2.06.06,1.03.92,1.82,1.94,1.82.04,0,.08,0,.12,0,.56-.03,13.76-.86,17.79-1.35,4.88-.59,11.02-3.82,12.29-10.98.1-.58.2-1.19.3-1.8.99-6.2,2.03-10.18,6.96-10.44.21,3.77,3.34,6.78,7.17,6.78.68,0,1.34-.1,1.96-.28.72.37,1.68.55,2.94.55.93,0,2.03-.1,3.31-.29,3.2-.49,6.58-.98,8.88-1.31,3.54,3.96,9.49,10.08,17.66,18.44,1.82,1.87,3.74,3.83,5.65,5.79l-6.75,5.49c-.1.08-.25.07-.34-.03l-8.09-9.4c-1.33-1.55-3.56-1.89-5.29-.82l-11.23,6.95c-1.18.73-1.92,2-1.97,3.39l-.94,24.48c-.04,1.12.38,2.23,1.17,3.04.77.8,1.85,1.25,2.96,1.25h.04l23.7-.26h0l12.02-.13c.22.08.45.13.69.13.26,0,.52-.05.75-.15l12.52-.14c1.07-.01,1.93-.89,1.92-1.96-.01-1.07-.88-1.92-1.94-1.92h-.02l-11.28.12v-11.84l8.89-.13c.11.15.21.28.3.41,3.59,5.13,11.14,19.33,14.84,26.41-14.02.98-72.96,5.1-134.68,9.33ZM539.8,267.31c0,1.82-1.48,3.3-3.3,3.3s-3.3-1.48-3.3-3.3c0-.24.03-.47.08-.7.05-.12.09-.24.12-.37.45-1.29,1.66-2.22,3.1-2.22,1.82,0,3.3,1.48,3.3,3.3ZM558.18,304.31l-4.16-5.6,4.46-2.76c.1-.06.23-.04.3.05l8.09,9.4c.28.32.59.59.93.8l.13,7.54c0,.06-.02.11-.01.17,0,.06.01.12.02.18l.23,13.54-9.16.1v-20.91c0-.9-.29-1.79-.83-2.51ZM555.12,306.82v20.96l-8.69.1h0c-.07,0-.13-.02-.18-.07-.05-.05-.07-.11-.07-.18l.94-24.48c0-.1.05-.18.14-.23l3.45-2.14,4.35,5.86c.04.06.06.12.06.19ZM629.52,367.11c-6.51,0-11.81-5.3-11.81-11.81s5.3-11.81,11.81-11.81,11.81,5.3,11.81,11.81-5.3,11.81-11.81,11.81Z"/>
  <g>
    <path class="cls-4" d="M416.89,365.47l-1.35.08.15,2.46-.7.04-.39-6.34,2.05-.13c1.47-.09,2.1.69,2.16,1.81.07,1.12-.46,1.97-1.93,2.06ZM416.69,362.28l-1.35.08.15,2.5,1.35-.08c.98-.06,1.3-.64,1.25-1.33-.04-.69-.43-1.23-1.41-1.17Z"/>
    <path class="cls-4" d="M420.96,364.44l-.7.04c.05-1.18.91-1.62,1.73-1.67.87-.05,1.86.34,1.94,1.72l.18,2.97-.68.04-.03-.48c-.27.41-.79.62-1.42.66-.8.05-1.57-.33-1.63-1.29-.03-.47.13-1.12.93-1.4.52-.19,1.19-.28,1.98-.38v-.08c-.05-.78-.62-1.14-1.23-1.1-.54.03-1,.36-1.07.97ZM423.29,365.25c-1.02.13-1.59.23-1.9.43-.33.21-.38.42-.37.7.03.43.37.73,1.06.69.73-.04,1.29-.47,1.24-1.2l-.04-.61Z"/>
    <path class="cls-4" d="M428.58,363.91c-.11-.54-.49-.82-1.07-.78-.51.03-.86.31-.84.73.02.39.3.55.68.61l.89.16c.72.13,1.23.45,1.28,1.31.06.92-.62,1.35-1.57,1.4-.98.06-1.83-.34-1.97-1.47l.7-.04c.1.66.61.9,1.23.86.65-.04.93-.32.92-.73-.02-.3-.17-.55-.69-.65l-.93-.17c-.51-.09-1.18-.39-1.23-1.23-.05-.86.63-1.4,1.49-1.45.94-.06,1.67.35,1.8,1.39l-.7.04Z"/>
    <path class="cls-4" d="M431.96,363.76l-.7.04c.05-1.18.91-1.62,1.73-1.67.87-.05,1.86.34,1.94,1.72l.18,2.97-.68.04-.03-.48c-.27.41-.79.62-1.42.66-.8.05-1.57-.33-1.63-1.29-.03-.47.13-1.12.93-1.4.52-.19,1.19-.28,1.98-.38v-.08c-.05-.78-.62-1.14-1.23-1.1-.53.03-1,.36-1.07.97ZM434.29,364.57c-1.02.13-1.59.23-1.9.43-.33.21-.38.42-.37.7.03.43.37.73,1.06.69.73-.04,1.29-.47,1.24-1.2l-.04-.61Z"/>
    <path class="cls-4" d="M438.86,362.56l-1.96.12-.04-.65,2.64-.16.32,5.22c.05.8-.18,1.13-1.05,1.18l-1.98.12-.04-.65,1.98-.12c.33-.02.43-.14.41-.43l-.28-4.63ZM438.5,360.25l1-.06.06,1-1,.06-.06-1Z"/>
    <path class="cls-4" d="M449.84,360.25l.3,4.96,1.46-.09.04.69-3.61.22-.04-.69,1.46-.09-.3-4.96-1.46.09-.04-.69,3.61-.22.04.69-1.46.09Z"/>
    <path class="cls-4" d="M453.41,363.99l-.18-2.96.68-.04.18,2.92c.05.83.64,1.16,1.2,1.13.57-.03,1.1-.47,1.05-1.24l-.18-2.94.68-.04.29,4.67-.68.04-.03-.48c-.21.39-.69.61-1.09.64-.77.05-1.83-.31-1.91-1.69Z"/>
    <path class="cls-4" d="M458.92,359.01l1.88-.12.35,5.69,1.65-.1.04.65-3.98.24-.04-.65,1.65-.1-.31-5.03-1.2.07-.04-.65Z"/>
    <path class="cls-4" d="M464.55,360.33l1.87-.11.25,4.02,1.65-.1.04.65-3.98.24-.04-.65,1.65-.1-.21-3.37-1.2.07-.04-.65ZM465.42,358.61l1-.06.06,1-1,.06-.06-1Z"/>
    <path class="cls-4" d="M469.92,362.98l-.18-2.96.68-.04.18,2.92c.05.83.64,1.16,1.2,1.13.57-.03,1.1-.47,1.05-1.24l-.18-2.94.68-.04.29,4.67-.68.04-.03-.48c-.21.39-.69.61-1.09.64-.77.05-1.83-.31-1.91-1.69Z"/>
    <path class="cls-4" d="M478.11,360.88c-.11-.54-.5-.82-1.07-.78-.51.03-.86.31-.84.73.02.39.3.55.68.61l.89.16c.72.13,1.23.45,1.28,1.31.06.92-.62,1.35-1.57,1.4-.98.06-1.83-.34-1.97-1.47l.7-.04c.1.66.61.9,1.23.86.65-.04.93-.32.92-.73-.02-.3-.17-.55-.69-.65l-.93-.17c-.51-.09-1.18-.39-1.23-1.23-.05-.86.63-1.4,1.49-1.45.94-.06,1.67.35,1.8,1.39l-.7.04Z"/>
    <path class="cls-4" d="M485.96,358.04l-.04-.69,4.08-.25.04.69-1.69.1.35,5.65-.7.04-.35-5.65-1.69.1Z"/>
    <path class="cls-4" d="M495.58,361.38c.08,1.38-.85,1.89-1.72,1.94s-1.86-.34-1.94-1.72l-.08-1.23c-.08-1.38.85-1.89,1.72-1.94.87-.05,1.86.34,1.94,1.72l.08,1.23ZM494.82,360.18c-.05-.78-.61-1.14-1.22-1.1-.61.04-1.13.46-1.08,1.24l.08,1.25c.05.78.61,1.14,1.22,1.1.61-.04,1.13-.46,1.08-1.24l-.08-1.25Z"/>
    <path class="cls-4" d="M500.4,361.54l.3-3.42.67-.04-.47,4.72-.61.04-1.13-3-.75,3.12-.61.04-1.04-4.63.67-.04.71,3.36.63-2.71.65-.04.96,2.61Z"/>
    <path class="cls-4" d="M506.53,359.48l.18,2.97-.68.04-.18-2.98c-.05-.78-.61-1.14-1.22-1.1-.61.04-1.13.46-1.08,1.24l.18,2.98-.68.04-.29-4.67.68-.04.03.44c.21-.39.69-.61,1.12-.64.87-.05,1.86.34,1.94,1.72Z"/>
  </g>
  <g>
    <path class="cls-4" d="M73.13,210.83l-.41-.57c.64-.55.66-1.26.25-1.84-.44-.61-1.2-.8-1.98-.24l-1.81,1.31c-.78.56-.83,1.34-.39,1.95.42.57,1.1.77,1.82.34l.41.57c-1.03.66-2.11.44-2.79-.5-.71-.98-.54-2.14.54-2.92l1.81-1.31c1.08-.78,2.23-.59,2.94.4.68.94.55,2.03-.4,2.81Z"/>
    <path class="cls-4" d="M73.47,213.39l-.41-.57c1.02-.59,1.85-.1,2.33.56.51.71.71,1.75-.41,2.56l-2.41,1.75-.4-.55.39-.28c-.49-.01-.95-.33-1.32-.85-.47-.65-.56-1.51.21-2.07.38-.28,1.01-.49,1.68.03.44.34.88.86,1.38,1.46l.07-.05c.63-.46.63-1.13.27-1.62-.31-.43-.84-.65-1.39-.38ZM74.03,215.79c-.66-.79-1.05-1.22-1.38-1.38-.36-.17-.56-.1-.78.06-.35.25-.42.71-.01,1.26.43.59,1.09.84,1.68.4l.49-.36Z"/>
    <path class="cls-4" d="M79,215.74l1.1,1.52-4.61,3.34.97,1.34-.53.38-2.34-3.22.53-.38.97,1.34,4.08-2.96-.7-.97.53-.38Z"/>
    <path class="cls-4" d="M79.85,225.22l.41.57c-1.02.59-1.85.1-2.33-.56-.51-.71-.71-1.75.41-2.56l1-.72c1.12-.81,2.05-.3,2.56.41s.71,1.75-.41,2.56l-.64.46-1.75-2.42-.37.27c-.63.46-.63,1.13-.27,1.62.31.43.84.65,1.4.38ZM81.09,224.36c.63-.46.63-1.13.27-1.62s-.99-.7-1.62-.25l-.14.1,1.35,1.87.14-.1Z"/>
    <path class="cls-4" d="M83.17,226.78l-.41-.57c1.02-.59,1.85-.1,2.33.56.51.7.71,1.75-.41,2.56l-2.41,1.75-.4-.55.39-.28c-.49-.01-.95-.33-1.32-.85-.47-.65-.57-1.51.21-2.07.38-.28,1.01-.49,1.68.04.44.34.88.85,1.38,1.46l.07-.05c.63-.46.63-1.13.27-1.62-.31-.43-.84-.65-1.39-.38ZM83.74,229.18c-.66-.79-1.05-1.22-1.38-1.38-.36-.17-.56-.1-.78.06-.35.25-.42.71-.01,1.26.43.59,1.09.84,1.68.4l.49-.36Z"/>
    <path class="cls-4" d="M91.08,233.58l.56-.4,2.4,3.31-.56.4-1-1.37-4.58,3.32-.41-.57,4.58-3.32-1-1.37Z"/>
    <path class="cls-4" d="M93.42,243.48c-1.12.81-2.05.3-2.56-.41-.51-.71-.71-1.75.41-2.56l1-.72c1.12-.81,2.05-.3,2.56.41.51.7.71,1.75-.41,2.56l-1,.72ZM94.03,242.2c.63-.46.63-1.13.27-1.62-.36-.49-.99-.7-1.62-.25l-1.01.73c-.63.46-.63,1.13-.27,1.62.36.49.99.7,1.62.25l1.01-.73Z"/>
    <path class="cls-4" d="M96.94,243.32l1,1.38-.4.29c.45-.03.89.25,1.14.6l.66.91-.53.38-.66-.91c-.36-.49-.99-.7-1.62-.25l-1.85,1.34,1.07,1.48-.53.38-2.34-3.22.53-.38.87,1.2,2.73-1.98-.6-.83.53-.38Z"/>
    <path class="cls-4" d="M99.89,252.41c-1.12.81-2.05.3-2.56-.41-.51-.71-.71-1.75.41-2.56l1-.72c1.12-.81,2.05-.3,2.56.41.51.7.71,1.75-.41,2.56l-1,.72ZM100.5,251.13c.63-.46.63-1.13.27-1.62-.36-.49-.99-.7-1.62-.25l-1.01.73c-.63.46-.63,1.13-.27,1.62.36.49.99.7,1.62.24l1.01-.73Z"/>
    <path class="cls-4" d="M104.14,256.16l-2.41,1.75-.4-.55,2.42-1.75c.63-.46.63-1.13.27-1.62s-.99-.7-1.62-.25l-2.42,1.75-.4-.55,3.79-2.75.4.55-.36.26c.45-.03.89.25,1.14.6.51.71.71,1.75-.41,2.56Z"/>
    <path class="cls-4" d="M104.68,260.17c-.24.18-.27.33-.08.59l.9,1.24-.53.38-.9-1.24c-.51-.7-.4-1.09.25-1.56l2.36-1.71-.78-1.08.53-.38.78,1.08.86-.62.4.55-.86.62,1.16,1.59-.53.38-1.16-1.59-2.4,1.74Z"/>
    <path class="cls-4" d="M109.06,262.49l-.41-.57c1.02-.59,1.85-.1,2.33.56.51.71.71,1.75-.41,2.56l-2.41,1.75-.4-.55.39-.28c-.49-.01-.95-.33-1.32-.85-.47-.65-.57-1.51.21-2.07.38-.28,1.01-.49,1.68.04.44.34.88.85,1.38,1.46l.07-.05c.63-.46.63-1.13.27-1.62-.31-.43-.84-.65-1.39-.38ZM109.62,264.89c-.66-.79-1.05-1.22-1.38-1.38-.36-.17-.56-.1-.78.06-.35.25-.42.71-.01,1.26.43.59,1.09.84,1.68.4l.49-.36Z"/>
    <path class="cls-4" d="M114.59,264.83l1.1,1.52-4.61,3.34.97,1.34-.53.38-2.34-3.23.53-.38.97,1.34,4.08-2.96-.7-.97.53-.38Z"/>
    <path class="cls-4" d="M113.9,271.78l2.4-1.74.4.55-2.36,1.71c-.68.49-.64,1.17-.31,1.61.34.46.98.68,1.61.22l2.39-1.73.4.55-3.79,2.75-.4-.55.39-.28c-.44.03-.89-.25-1.12-.58-.45-.62-.72-1.71.4-2.52Z"/>
    <path class="cls-4" d="M121.06,273.76l1.1,1.52-4.61,3.34.97,1.34-.53.38-2.34-3.23.53-.38.97,1.34,4.08-2.96-.7-.97.53-.38Z"/>
    <path class="cls-4" d="M120.38,280.71l2.4-1.74.4.55-2.36,1.71c-.68.49-.63,1.17-.31,1.61.34.46.98.68,1.61.22l2.39-1.73.4.55-3.79,2.75-.4-.55.39-.28c-.44.03-.89-.25-1.12-.57-.45-.62-.72-1.71.4-2.52Z"/>
    <path class="cls-4" d="M126.2,283.69l1.1,1.52-3.26,2.36.97,1.34-.53.38-2.34-3.23.53-.38.97,1.34,2.73-1.98-.7-.97.53-.38ZM128.12,283.5l.59.81-.81.59-.59-.81.81-.59Z"/>
  </g>
  <g>
    <path class="cls-4" d="M166.89,84.66l-.25-.65c.76-.37.97-1.05.71-1.71-.27-.7-.95-1.08-1.85-.74l-2.08.8c-.9.35-1.15,1.08-.88,1.79.25.66.86,1.03,1.68.79l.25.65c-1.17.37-2.15-.12-2.57-1.2-.44-1.13.03-2.21,1.27-2.69l2.08-.8c1.24-.48,2.31,0,2.74,1.14.42,1.08.01,2.1-1.1,2.61Z"/>
    <path class="cls-4" d="M166.56,87.21l-.25-.65c1.13-.31,1.82.38,2.11,1.14.31.81.23,1.87-1.05,2.37l-2.78,1.07-.24-.64.45-.17c-.47-.14-.83-.57-1.06-1.16-.29-.75-.16-1.6.74-1.95.44-.17,1.1-.21,1.62.47.34.44.63,1.05.96,1.77l.08-.03c.73-.28.9-.93.68-1.49-.19-.5-.64-.84-1.25-.73ZM166.49,89.68c-.44-.93-.7-1.45-.98-1.68-.3-.25-.52-.24-.77-.14-.4.15-.59.57-.34,1.22.26.69.84,1.09,1.52.82l.57-.22Z"/>
    <path class="cls-4" d="M171.31,90.91l.67,1.75-5.32,2.04.59,1.54-.61.23-1.43-3.72.61-.23.59,1.54,4.71-1.81-.43-1.12.61-.23Z"/>
    <path class="cls-4" d="M169.69,100.29l.25.65c-1.14.31-1.82-.38-2.11-1.14-.31-.81-.23-1.87,1.05-2.37l1.15-.44c1.29-.49,2.06.24,2.37,1.05.31.81.23,1.87-1.05,2.37l-.74.28-1.07-2.79-.42.16c-.73.28-.9.93-.68,1.5.19.5.64.84,1.25.72ZM171.11,99.77c.73-.28.9-.93.68-1.5-.22-.57-.78-.93-1.51-.66l-.16.06.83,2.15.16-.06Z"/>
    <path class="cls-4" d="M172.5,102.65l-.25-.65c1.13-.31,1.82.38,2.11,1.14.31.81.23,1.87-1.05,2.37l-2.78,1.07-.24-.64.45-.17c-.47-.14-.83-.57-1.06-1.16-.29-.75-.16-1.6.74-1.95.44-.17,1.1-.21,1.62.47.34.44.63,1.05.96,1.77l.08-.03c.73-.28.9-.93.68-1.49-.19-.5-.64-.84-1.25-.72ZM172.42,105.12c-.44-.93-.7-1.45-.98-1.68-.3-.25-.52-.24-.77-.14-.4.15-.59.57-.34,1.22.26.69.84,1.09,1.52.82l.57-.22Z"/>
    <path class="cls-4" d="M175.92,115.63l-.83-2.15-1.88.1-.25-.66,6.66-.37.29.75-5.2,4.18-.25-.66,1.46-1.18ZM178.86,113.27l-3.09.18.68,1.76,2.41-1.94Z"/>
    <path class="cls-4" d="M179.56,117.03l.61,1.59-.46.18c.44.08.79.47.95.87l.4,1.05-.61.23-.4-1.05c-.22-.57-.78-.94-1.51-.66l-2.13.82.65,1.7-.61.23-1.43-3.72.61-.23.53,1.38,3.15-1.21-.37-.96.61-.23Z"/>
    <path class="cls-4" d="M180.41,123.23l-.25-.65c1.13-.31,1.82.38,2.11,1.14.31.81.23,1.87-1.05,2.37l-2.78,1.07-.24-.64.45-.17c-.47-.14-.83-.57-1.06-1.16-.29-.75-.16-1.6.74-1.95.44-.17,1.1-.21,1.62.47.34.44.63,1.05.96,1.77l.08-.03c.73-.28.9-.93.68-1.49-.19-.5-.64-.84-1.25-.73ZM180.34,125.7c-.44-.93-.7-1.45-.98-1.68-.3-.25-.52-.24-.77-.14-.4.15-.59.57-.34,1.22.26.69.84,1.09,1.52.82l.57-.22Z"/>
    <path class="cls-4" d="M180.73,128.27l1.15-.44c1.29-.49,2.05.24,2.37,1.05.15.4.15.92-.12,1.28l1.97-.76.24.64-5.93,2.28-.24-.64.45-.17c-.44-.08-.79-.47-.95-.87-.31-.81-.23-1.87,1.05-2.37ZM180.97,128.91c-.73.28-.9.93-.68,1.5.22.57.78.94,1.51.66l1.17-.45c.73-.28.9-.93.68-1.5-.22-.57-.78-.94-1.51-.66l-1.17.45Z"/>
    <path class="cls-4" d="M182.7,133.46l2.77-1.06.24.64-2.73,1.05c-.78.3-.91.96-.71,1.48.2.53.78.91,1.5.63l2.75-1.06.24.64-4.37,1.68-.24-.64.45-.17c-.43-.09-.79-.47-.94-.85-.28-.72-.26-1.84,1.04-2.33Z"/>
    <path class="cls-4" d="M189.11,137.22l.67,1.75-5.32,2.04.59,1.54-.61.23-1.43-3.72.61-.23.59,1.54,4.71-1.81-.43-1.12.61-.23Z"/>
    <path class="cls-4" d="M186.66,143.76l2.77-1.06.24.64-2.73,1.05c-.78.3-.91.96-.71,1.48.2.53.78.91,1.5.63l2.75-1.06.24.64-4.37,1.68-.24-.64.45-.17c-.43-.09-.79-.47-.94-.85-.28-.72-.26-1.84,1.04-2.33Z"/>
    <path class="cls-4" d="M191.52,148.13l.67,1.75-3.76,1.45.59,1.54-.61.23-1.43-3.72.61-.23.59,1.54,3.15-1.21-.43-1.12.61-.23ZM193.42,148.44l.36.93-.93.36-.36-.93.93-.36Z"/>
  </g>
  <g>
    <path class="cls-4" d="M546.75,191l.94,1.9c.6,1.21,0,2.04-.75,2.41-.55.27-1.12.23-1.53-.02,0,.65-.42,1.16-.94,1.41-.79.39-1.8.36-2.4-.86l-1-2.03,5.7-2.81ZM543.94,193.17l-1.95.96.69,1.41c.3.62.86.83,1.47.53.61-.3.78-.87.48-1.49l-.69-1.41ZM547.07,193.2l-.63-1.27-1.89.93.63,1.27c.32.64.9.81,1.44.54s.76-.83.45-1.47Z"/>
    <path class="cls-4" d="M545.08,198.1l2.66-1.31.3.61-2.62,1.29c-.75.37-.82,1.04-.58,1.54.25.51.86.83,1.55.49l2.64-1.3.3.61-4.2,2.07-.3-.61.43-.21c-.44-.05-.83-.4-1.01-.76-.34-.69-.43-1.8.82-2.42Z"/>
    <path class="cls-4" d="M551.81,201.25l.83,1.68-5.11,2.52.73,1.48-.59.29-1.76-3.57.59-.29.73,1.48,4.52-2.23-.53-1.08.59-.29Z"/>
    <path class="cls-4" d="M551.05,210.75l.31.63c-1.1.41-1.84-.21-2.21-.95-.39-.78-.4-1.84.83-2.45l1.11-.55c1.24-.61,2.07.05,2.45.83.39.78.4,1.84-.83,2.45l-.71.35-1.32-2.68-.41.2c-.7.35-.81,1.01-.54,1.55.24.48.72.78,1.31.61ZM552.42,210.1c.7-.35.81-1.01.54-1.55s-.86-.86-1.56-.52l-.15.08,1.02,2.07.15-.08Z"/>
    <path class="cls-4" d="M551.84,215.67l-.34-.68,3.45-3.58.32.65-2.82,2.89,4-.48.32.65-4.94.56Z"/>
    <path class="cls-4" d="M556.5,217.78l-.31-.63c1.1-.41,1.84.21,2.21.94.38.78.4,1.84-.83,2.45l-2.67,1.32-.3-.61.43-.21c-.48-.1-.88-.49-1.16-1.06-.35-.72-.3-1.58.56-2,.42-.21,1.08-.31,1.65.32.38.41.72.99,1.12,1.67l.07-.04c.7-.35.81-1.01.54-1.55-.24-.48-.72-.78-1.31-.61ZM556.66,220.25c-.52-.89-.83-1.38-1.13-1.59-.32-.23-.54-.19-.78-.07-.38.19-.53.63-.23,1.24.32.66.93,1.01,1.59.68l.55-.27Z"/>
    <path class="cls-4" d="M559.97,221.57l.75,1.53-.44.22c.45.04.83.4,1.02.78l.5,1.01-.59.29-.5-1.01c-.27-.55-.86-.86-1.56-.52l-2.05,1.01.81,1.64-.59.29-1.76-3.57.59-.29.65,1.33,3.03-1.49-.45-.92.59-.29Z"/>
    <path class="cls-4" d="M559.72,227.71l1.11-.55c1.24-.61,2.07.05,2.45.83.19.38.24.91,0,1.29l1.9-.93.3.61-5.7,2.81-.3-.61.43-.21c-.45-.04-.83-.4-1.02-.78-.38-.78-.4-1.84.83-2.45ZM560.01,228.33c-.7.35-.81,1.01-.54,1.55.27.55.86.86,1.56.52l1.12-.55c.7-.35.81-1.01.54-1.55-.27-.55-.86-.86-1.56-.52l-1.12.55Z"/>
    <path class="cls-4" d="M562.15,232.71l2.66-1.31.3.61-2.62,1.29c-.75.37-.82,1.04-.58,1.54.25.51.86.83,1.55.49l2.64-1.3.3.61-4.2,2.07-.3-.61.43-.21c-.44-.05-.83-.4-1.01-.76-.34-.69-.43-1.8.82-2.42Z"/>
    <path class="cls-4" d="M568.88,235.86l.83,1.68-5.11,2.52.73,1.48-.59.29-1.76-3.57.59-.29.73,1.48,4.52-2.23-.53-1.08.59-.29Z"/>
    <path class="cls-4" d="M570.85,250.18l-1.02-2.07-1.86.27-.31-.63,6.6-.98.35.72-4.79,4.64-.31-.64,1.35-1.31ZM573.56,247.56l-3.06.46.83,1.69,2.23-2.15Z"/>
    <path class="cls-4" d="M574.66,255.22l-2.67,1.32-.3-.61,2.68-1.32c.7-.35.81-1.01.54-1.55-.27-.55-.86-.86-1.56-.51l-2.68,1.32-.3-.61,4.2-2.07.3.61-.4.2c.45.04.83.4,1.02.78.39.78.4,1.84-.83,2.45Z"/>
    <path class="cls-4" d="M574.52,259.26c-.27.13-.32.28-.17.57l.68,1.38-.59.29-.68-1.38c-.39-.78-.21-1.14.51-1.49l2.61-1.29-.59-1.2.59-.29.59,1.2.95-.47.3.61-.95.47.87,1.77-.59.29-.87-1.77-2.66,1.31Z"/>
    <path class="cls-4" d="M577.87,265.13l.31.63c-1.1.41-1.84-.21-2.21-.94-.39-.78-.4-1.85.83-2.46l1.11-.55c1.24-.61,2.07.05,2.45.83.39.78.4,1.84-.83,2.45l-.71.35-1.32-2.68-.41.2c-.7.35-.81,1.01-.54,1.55.24.48.72.78,1.31.61ZM579.24,264.49c.7-.35.81-1.01.54-1.55s-.86-.86-1.56-.52l-.15.08,1.02,2.07.15-.08Z"/>
    <path class="cls-4" d="M581.98,270.06l-2.67,1.32-.3-.61,2.68-1.32c.7-.35.81-1.01.54-1.55s-.86-.86-1.56-.52l-2.68,1.32-.3-.61,4.2-2.07.3.61-.4.2c.45.04.83.4,1.02.78.39.78.4,1.84-.83,2.45Z"/>
    <path class="cls-4" d="M582.75,275.02l.31.63c-1.1.41-1.85-.21-2.21-.94-.39-.78-.4-1.84.83-2.45l1.11-.55c1.24-.61,2.07.05,2.45.83.38.78.4,1.84-.83,2.45l-.71.35-1.32-2.68-.41.2c-.7.35-.81,1.01-.54,1.55.24.48.72.78,1.31.61ZM584.12,274.38c.7-.35.81-1.01.54-1.55-.27-.54-.86-.86-1.56-.52l-.15.08,1.02,2.07.15-.08Z"/>
    <path class="cls-4" d="M586.9,276.18l.83,1.68-3.61,1.78.73,1.48-.59.29-1.76-3.57.59-.29.73,1.48,3.03-1.49-.53-1.07.59-.29ZM588.83,276.31l.44.9-.9.44-.44-.9.9-.44Z"/>
  </g>
  <g>
    <path class="cls-4" d="M323.41,62.15l-.69-.09c.04-.85-.46-1.35-1.16-1.44-.75-.1-1.41.32-1.53,1.27l-.29,2.21c-.13.95.4,1.53,1.15,1.63.7.09,1.32-.26,1.5-1.09l.69.09c-.23,1.2-1.13,1.84-2.28,1.68-1.21-.16-1.93-1.08-1.75-2.4l.29-2.21c.18-1.32,1.11-2.02,2.31-1.86,1.15.15,1.85,1,1.76,2.22Z"/>
    <path class="cls-4" d="M325.5,63.66l-.69-.09c.27-1.14,1.2-1.41,2.01-1.31.86.11,1.76.69,1.57,2.06l-.39,2.95-.67-.09.06-.48c-.35.35-.89.46-1.52.37-.79-.1-1.48-.63-1.36-1.58.06-.47.34-1.07,1.18-1.2.55-.08,1.22-.05,2.01,0v-.08c.11-.77-.37-1.23-.98-1.31-.53-.07-1.05.16-1.23.75ZM327.63,64.9c-1.03-.06-1.61-.08-1.95.05-.37.14-.46.34-.49.61-.06.42.23.79.91.88.73.1,1.35-.21,1.45-.94l.08-.6Z"/>
    <path class="cls-4" d="M331.01,61.26l1.86.25-.75,5.65,1.64.22-.09.65-3.95-.52.09-.65,1.64.22.66-5-1.19-.16.09-.65Z"/>
    <path class="cls-4" d="M338.48,67.17l.69.09c-.27,1.14-1.2,1.41-2.01,1.31-.86-.11-1.76-.69-1.58-2.06l.16-1.22c.18-1.37,1.19-1.69,2.06-1.58.86.11,1.76.69,1.57,2.06l-.1.78-2.96-.39-.06.45c-.1.77.39,1.23.99,1.31.53.07,1.05-.16,1.23-.75ZM338.7,65.68c.1-.77-.39-1.23-.99-1.31-.6-.08-1.19.23-1.3,1.01l-.02.17,2.28.3.02-.17Z"/>
    <path class="cls-4" d="M341.89,65.83l-.69-.09c.27-1.14,1.2-1.41,2.01-1.31.86.11,1.76.69,1.58,2.06l-.39,2.95-.67-.09.06-.48c-.35.35-.89.46-1.52.37-.79-.1-1.48-.63-1.36-1.58.06-.47.34-1.07,1.18-1.2.55-.08,1.22-.05,2.01,0v-.08c.11-.77-.37-1.23-.98-1.31-.53-.07-1.05.16-1.23.75ZM344.03,67.08c-1.03-.06-1.61-.08-1.95.05-.37.14-.46.34-.49.61-.06.42.22.79.91.88.73.1,1.35-.21,1.45-.94l.08-.6Z"/>
    <path class="cls-4" d="M351.77,68.52l.71.09c0,.82.49,1.35,1.16,1.44.71.09,1.25-.17,1.34-.84.08-.57-.19-.95-.87-1.24l-.77-.33c-.9-.39-1.19-1.2-1.08-1.97.14-1.08,1.08-1.56,2.08-1.43,1.09.14,1.68.85,1.68,1.93l-.71-.09c-.06-.62-.38-1.07-1.05-1.16-.76-.1-1.22.29-1.29.84-.08.58.16.97.79,1.24l.71.3c.86.37,1.36.99,1.23,1.99-.13,1.01-.87,1.6-2.13,1.43-1.14-.15-1.85-1.01-1.78-2.22Z"/>
    <path class="cls-4" d="M360.34,70.07l.69.09c-.27,1.14-1.2,1.41-2.01,1.31-.86-.11-1.76-.69-1.58-2.06l.16-1.22c.18-1.37,1.2-1.69,2.06-1.58.86.11,1.76.69,1.58,2.06l-.1.78-2.96-.39-.06.45c-.1.77.39,1.23.99,1.31.53.07,1.05-.16,1.23-.75ZM360.57,68.57c.1-.77-.39-1.23-.99-1.31-.6-.08-1.19.23-1.3,1.01l-.02.17,2.28.3.02-.17Z"/>
    <path class="cls-4" d="M364.86,72.15l-.76-.1-1.06-4.86.72.1.83,3.94,1.83-3.59.72.1-2.29,4.42Z"/>
    <path class="cls-4" d="M371.27,71.52l.69.09c-.27,1.15-1.2,1.41-2.01,1.31-.86-.11-1.76-.69-1.58-2.06l.16-1.22c.18-1.37,1.19-1.69,2.06-1.58.86.12,1.76.69,1.57,2.06l-.1.78-2.96-.39-.06.45c-.1.77.39,1.23.99,1.31.53.07,1.05-.16,1.23-.75ZM371.5,70.02c.1-.77-.39-1.23-.99-1.31-.6-.08-1.19.24-1.3,1.01l-.02.17,2.29.3.02-.17Z"/>
    <path class="cls-4" d="M374.3,68.68l1.69.22-.06.49c.28-.35.79-.47,1.22-.42l1.12.15-.09.65-1.12-.15c-.6-.08-1.19.24-1.3,1.01l-.3,2.27,1.81.24-.09.65-3.95-.52.09-.65,1.47.19.44-3.35-1.02-.13.09-.65Z"/>
    <path class="cls-4" d="M385.26,68.45l2.1.28c1.34.18,1.7,1.13,1.59,1.97-.08.61-.43,1.06-.87,1.26.54.36.73.99.65,1.57-.12.87-.7,1.7-2.05,1.52l-2.25-.3.83-6.3ZM385.49,72l-.29,2.16,1.56.21c.68.09,1.17-.26,1.26-.93s-.29-1.14-.97-1.23l-1.56-.21ZM387.26,69.41l-1.4-.19-.28,2.09,1.4.19c.71.09,1.17-.29,1.25-.9.08-.6-.27-1.1-.98-1.19Z"/>
    <path class="cls-4" d="M393.86,74.24c-.18,1.37-1.19,1.69-2.06,1.58-.86-.11-1.76-.69-1.58-2.06l.16-1.22c.18-1.37,1.19-1.69,2.06-1.58.86.11,1.76.69,1.58,2.06l-.16,1.22ZM393.35,72.92c.1-.77-.39-1.23-.99-1.31-.6-.08-1.19.24-1.3,1.01l-.16,1.24c-.1.77.39,1.23.99,1.31.6.08,1.19-.24,1.3-1.01l.16-1.24Z"/>
    <path class="cls-4" d="M399.53,73.52l-.68-.09c0-.64-.46-1.02-1-1.09-.6-.08-1.19.23-1.3,1.01l-.16,1.24c-.1.77.39,1.23.99,1.31.54.07,1.08-.18,1.25-.8l.68.09c-.26,1.18-1.2,1.46-2.02,1.35-.86-.12-1.76-.68-1.58-2.06l.16-1.22c.18-1.37,1.19-1.69,2.06-1.58.82.11,1.66.62,1.6,1.83Z"/>
    <path class="cls-4" d="M401.16,75.24l.39-2.94.67.09-.38,2.9c-.11.83.41,1.26.96,1.34.57.08,1.17-.25,1.27-1.01l.39-2.92.67.09-.61,4.64-.68-.09.06-.48c-.28.34-.79.47-1.19.42-.76-.1-1.73-.65-1.55-2.03Z"/>
  </g>
  <g>
    <path class="cls-4" d="M263.37,213.27l-.06.7c-.85,0-1.33.53-1.38,1.24-.06.75.39,1.39,1.35,1.46l2.22.18c.96.08,1.5-.48,1.56-1.23.06-.71-.33-1.3-1.17-1.44l.06-.7c1.21.17,1.89,1.03,1.8,2.19-.1,1.21-.98,1.98-2.31,1.87l-2.22-.18c-1.33-.11-2.08-1-1.98-2.21.09-1.16.9-1.9,2.12-1.88Z"/>
    <path class="cls-4" d="M264.77,211.11l-.06.7c-1.16-.21-1.48-1.13-1.41-1.94.07-.87.6-1.79,1.97-1.68l2.97.24-.05.68-.48-.04c.37.33.5.87.45,1.5-.06.8-.55,1.51-1.51,1.44-.47-.04-1.09-.29-1.26-1.12-.11-.55-.11-1.22-.1-2.01h-.08c-.78-.07-1.21.44-1.26,1.05-.04.53.22,1.04.81,1.19ZM265.9,208.91c0,1.03,0,1.61.15,1.94.16.36.37.44.64.46.43.03.78-.27.83-.95.06-.73-.28-1.34-1.02-1.4l-.61-.05Z"/>
    <path class="cls-4" d="M262.08,205.73l.15-1.87,5.68.45.13-1.65.65.05-.32,3.97-.65-.05.13-1.65-5.03-.4-.09,1.19-.65-.05Z"/>
    <path class="cls-4" d="M267.6,197.96l.06-.7c1.16.21,1.48,1.13,1.41,1.94-.07.87-.6,1.79-1.97,1.68l-1.23-.1c-1.37-.11-1.75-1.1-1.68-1.97.07-.87.6-1.79,1.97-1.68l.79.06-.24,2.98.45.04c.78.06,1.21-.45,1.26-1.06.04-.53-.22-1.04-.82-1.19ZM266.09,197.81c-.78-.06-1.21.45-1.26,1.06-.05.61.3,1.18,1.07,1.24h.17s.18-2.28.18-2.28h-.17Z"/>
    <path class="cls-4" d="M266.08,194.62l-.06.7c-1.16-.21-1.48-1.13-1.41-1.94.07-.87.6-1.79,1.97-1.68l2.97.24-.05.68-.48-.04c.36.33.5.87.45,1.5-.06.8-.55,1.51-1.51,1.44-.47-.04-1.09-.29-1.26-1.12-.11-.55-.11-1.22-.1-2.01h-.08c-.78-.07-1.21.44-1.26,1.05-.04.53.22,1.04.81,1.19ZM267.21,192.43c0,1.03,0,1.61.15,1.94.16.36.37.44.64.46.43.03.78-.27.83-.95.06-.73-.28-1.34-1.02-1.4l-.61-.05Z"/>
    <path class="cls-4" d="M268.25,184.61l.06-.71c.82-.04,1.33-.56,1.38-1.24.06-.71-.24-1.24-.91-1.29-.57-.05-.94.23-1.19.93l-.29.79c-.34.92-1.14,1.25-1.91,1.19-1.09-.09-1.61-.99-1.53-2.01.09-1.09.76-1.72,1.84-1.77l-.06.71c-.62.09-1.04.44-1.1,1.11-.06.76.35,1.2.9,1.25.58.05.96-.21,1.2-.85l.27-.73c.33-.88.92-1.41,1.93-1.33,1.01.08,1.64.79,1.54,2.05-.09,1.15-.91,1.9-2.13,1.9Z"/>
    <path class="cls-4" d="M269.35,175.98l.06-.7c1.16.21,1.48,1.13,1.41,1.94-.07.87-.6,1.79-1.97,1.68l-1.23-.1c-1.37-.11-1.75-1.1-1.68-1.97s.6-1.79,1.97-1.68l.79.06-.24,2.98.45.04c.78.06,1.21-.45,1.26-1.06.04-.53-.22-1.04-.82-1.19ZM267.84,175.83c-.78-.06-1.21.45-1.26,1.06s.3,1.18,1.08,1.24h.17s.18-2.28.18-2.28h-.17Z"/>
    <path class="cls-4" d="M271.19,171.35l-.06.76-4.8,1.31.06-.72,3.9-1.04-3.68-1.64.06-.72,4.53,2.05Z"/>
    <path class="cls-4" d="M270.22,164.99l.06-.7c1.16.21,1.48,1.13,1.41,1.94-.07.87-.6,1.79-1.97,1.68l-1.23-.1c-1.37-.11-1.75-1.1-1.68-1.97s.6-1.79,1.97-1.68l.79.06-.24,2.98.45.04c.78.06,1.21-.45,1.26-1.06.04-.53-.22-1.04-.82-1.19ZM268.71,164.84c-.78-.06-1.21.45-1.26,1.06s.3,1.18,1.07,1.24h.17s.18-2.28.18-2.28h-.17Z"/>
    <path class="cls-4" d="M267.23,162.11l.14-1.7.49.04c-.36-.27-.51-.77-.48-1.19l.09-1.12.65.05-.09,1.12c-.05.61.3,1.18,1.08,1.24l2.28.18.14-1.82.65.05-.32,3.97-.65-.05.12-1.47-3.36-.27-.08,1.02-.65-.05Z"/>
    <path class="cls-4" d="M266.42,151.18l.17-2.11c.11-1.35,1.04-1.76,1.88-1.69.62.05,1.08.38,1.3.8.34-.56.95-.78,1.53-.73.88.07,1.73.61,1.63,1.97l-.18,2.26-6.33-.5ZM267.28,149.13l-.11,1.41,2.1.17.11-1.41c.06-.71-.35-1.16-.96-1.2s-1.08.32-1.14,1.04ZM269.95,150.76l2.17.17.12-1.56c.06-.69-.32-1.15-1-1.21-.68-.05-1.12.35-1.18,1.03l-.12,1.56Z"/>
    <path class="cls-4" d="M271.75,142.29c1.37.11,1.75,1.1,1.68,1.97-.07.87-.6,1.79-1.97,1.68l-1.23-.1c-1.37-.11-1.75-1.1-1.68-1.97.07-.87.6-1.79,1.97-1.68l1.23.1ZM270.46,142.87c-.78-.06-1.21.45-1.26,1.06-.05.61.3,1.18,1.08,1.24l1.25.1c.78.06,1.21-.45,1.26-1.06.05-.61-.3-1.18-1.08-1.24l-1.25-.1Z"/>
    <path class="cls-4" d="M270.73,136.66l-.05.69c-.64.04-1,.51-1.04,1.05-.05.61.3,1.18,1.07,1.24l1.25.1c.78.06,1.21-.45,1.26-1.06.04-.54-.23-1.07-.86-1.21l.05-.69c1.19.2,1.52,1.12,1.46,1.95-.07.87-.59,1.79-1.97,1.68l-1.23-.1c-1.37-.11-1.75-1.1-1.68-1.97.07-.82.53-1.69,1.75-1.69Z"/>
    <path class="cls-4" d="M272.36,134.94l-2.96-.23.05-.68,2.91.23c.83.07,1.24-.47,1.28-1.03.04-.57-.31-1.15-1.08-1.21l-2.94-.23.05-.68,4.67.37-.05.68-.48-.04c.35.27.51.77.48,1.17-.06.77-.56,1.77-1.94,1.66Z"/>
  </g>
  <g>
    <path class="cls-4" d="M22.61,460.19l-.59.37c-.51-.68-1.21-.75-1.82-.38-.64.4-.89,1.14-.38,1.95l1.18,1.9c.51.82,1.28.93,1.92.53.6-.37.85-1.04.47-1.79l.59-.37c.58,1.08.29,2.14-.7,2.75-1.03.64-2.17.39-2.88-.75l-1.18-1.9c-.7-1.13-.43-2.27.61-2.91.99-.61,2.06-.41,2.77.6Z"/>
    <path class="cls-4" d="M25.22,460.05l-.6.36c-.5-1.06.07-1.85.77-2.27.75-.45,1.81-.55,2.51.63l1.52,2.55-.58.35-.25-.41c-.06.49-.42.91-.96,1.24-.68.41-1.55.43-2.04-.4-.24-.4-.4-1.05.18-1.67.38-.41.93-.8,1.58-1.25l-.04-.07c-.4-.67-1.07-.73-1.59-.41-.46.27-.72.78-.5,1.35ZM27.66,459.7c-.84.59-1.31.94-1.49,1.25-.2.34-.15.55,0,.79.22.37.67.48,1.26.13.63-.38.93-1.01.55-1.64l-.31-.52Z"/>
    <path class="cls-4" d="M28.14,454.72l1.63-.93,2.83,4.94,1.43-.82.32.57-3.45,1.98-.32-.57,1.43-.82-2.51-4.37-1.04.59-.32-.57Z"/>
    <path class="cls-4" d="M37.69,454.95l.61-.34c.46,1.08-.13,1.85-.85,2.24-.76.42-1.82.49-2.49-.72l-.59-1.08c-.66-1.21-.04-2.07.72-2.49s1.82-.48,2.49.72l.38.69-2.61,1.44.22.4c.38.68,1.04.76,1.57.47.47-.26.75-.75.55-1.34ZM36.99,453.61c-.38-.68-1.04-.76-1.57-.47-.53.29-.82.9-.45,1.58l.08.15,2.02-1.11-.08-.15Z"/>
    <path class="cls-4" d="M39.69,451.86l-.62.33c-.44-1.09.16-1.85.89-2.23.77-.41,1.83-.45,2.48.77l1.39,2.63-.6.32-.22-.43c-.08.48-.46.89-1.03,1.19-.71.37-1.57.35-2.02-.5-.22-.42-.34-1.07.27-1.66.4-.39.97-.75,1.64-1.16l-.04-.07c-.36-.69-1.03-.78-1.56-.5-.47.25-.76.74-.57,1.33ZM42.15,451.64c-.87.54-1.36.87-1.56,1.17-.22.33-.17.54-.05.78.2.38.64.51,1.25.19.65-.34.98-.96.64-1.61l-.28-.54Z"/>
    <path class="cls-4" d="M51.95,444.31l-.63.3c-.43-.73-1.13-.87-1.76-.57-.68.33-1,1.04-.58,1.9l.97,2.01c.42.87,1.17,1.05,1.85.73.64-.31.95-.94.65-1.73l.63-.3c.47,1.13.06,2.15-.98,2.66-1.09.53-2.2.16-2.78-1.04l-.97-2.01c-.58-1.2-.18-2.3.91-2.83,1.04-.5,2.09-.19,2.69.88Z"/>
    <path class="cls-4" d="M53.66,443.28l1.7-.79,1.68,3.66,1.5-.69.27.59-3.61,1.67-.27-.59,1.5-.69-1.41-3.06-1.09.5-.27-.59ZM53.84,441.36l.91-.42.42.91-.91.42-.42-.91Z"/>
    <path class="cls-4" d="M58.51,441.07l1.56-.69.2.45c.06-.44.43-.81.82-.99l1.03-.45.26.6-1.03.45c-.56.24-.9.82-.58,1.53l.92,2.09,1.67-.73.26.6-3.64,1.6-.26-.6,1.35-.59-1.36-3.09-.94.41-.26-.6Z"/>
    <path class="cls-4" d="M67.51,438.82l-.64.27c-.33-.55-.91-.65-1.41-.44-.56.23-.91.8-.61,1.52l.48,1.16c.3.72.95.87,1.51.64.5-.21.84-.7.68-1.32l.64-.27c.37,1.15-.3,1.87-1.06,2.18-.8.34-1.86.3-2.4-.98l-.48-1.14c-.53-1.27.18-2.06.98-2.4.76-.32,1.74-.3,2.3.78Z"/>
    <path class="cls-4" d="M69.79,439.5l-1.1-2.76.63-.25,1.08,2.71c.31.78.97.9,1.49.7.53-.21.9-.79.61-1.5l-1.09-2.74.63-.25,1.73,4.35-.63.25-.18-.45c-.08.43-.46.8-.83.95-.72.28-1.83.28-2.34-1.01Z"/>
    <path class="cls-4" d="M75.68,435.27c-.13-.35-.4-.54-.76-.4s-.45.46-.31.81l1.25,3.28-.64.24-1.66-4.38.64-.24.09.24c.03-.27.22-.49.5-.6.32-.12.64-.09.91.11.11-.32.35-.59.7-.72.77-.29,1.38.07,1.64.76l1.25,3.28-.64.24-1.25-3.28c-.13-.35-.4-.54-.76-.4s-.45.46-.31.81l1.25,3.28-.64.24-1.25-3.28Z"/>
    <path class="cls-4" d="M82.74,436.39l-.72.26-3.19-3.82.68-.25,2.57,3.11-.04-4.03.68-.25.02,4.97Z"/>
    <path class="cls-4" d="M85.36,431.99l-.66.23c-.28-1.14.43-1.81,1.2-2.08.82-.29,1.88-.18,2.34,1.12l.99,2.81-.64.23-.16-.45c-.15.47-.59.81-1.19,1.02-.75.26-1.6.11-1.92-.8-.16-.45-.18-1.11.51-1.6.45-.32,1.07-.6,1.8-.91l-.03-.08c-.26-.74-.9-.92-1.47-.72-.5.18-.86.62-.76,1.23ZM87.83,432.14c-.94.41-1.47.66-1.71.93-.26.29-.25.51-.16.77.14.4.56.6,1.21.37.69-.24,1.11-.8.87-1.5l-.2-.57Z"/>
    <path class="cls-4" d="M89.26,427.35l1.78-.6,1.83,5.39,1.56-.53.21.62-3.77,1.28-.21-.62,1.56-.53-1.62-4.78-1.13.38-.21-.62Z"/>
    <path class="cls-4" d="M95.84,428.42l-.66.22c-.25-1.15.48-1.79,1.25-2.05.83-.27,1.88-.13,2.31,1.18l.92,2.83-.65.21-.15-.46c-.16.46-.61.8-1.21.99-.76.25-1.61.07-1.9-.84-.15-.45-.15-1.11.55-1.59.46-.31,1.08-.57,1.82-.87l-.03-.08c-.24-.74-.88-.95-1.46-.76-.51.17-.87.6-.79,1.21ZM98.3,428.63c-.95.39-1.49.62-1.73.89-.27.29-.27.51-.18.76.13.41.54.62,1.2.4.7-.23,1.13-.78.9-1.48l-.19-.58Z"/>
    <path class="cls-4" d="M102.78,428.5c.09.29.23.36.54.26l1.46-.46.19.62-1.46.46c-.83.26-1.16.03-1.4-.73l-.87-2.78-1.27.4-.19-.62,1.27-.4-.31-1.01.65-.2.31,1.01,1.88-.59.19.62-1.88.59.88,2.83ZM103.94,431.04l-.41-.22.6-1.13.41.21-.6,1.14Z"/>
    <path class="cls-4" d="M105.66,423.82l1.8-.54,1.15,3.86,1.58-.47.19.63-3.81,1.14-.19-.63,1.58-.47-.97-3.23-1.15.34-.19-.63ZM106.11,421.95l.96-.29.29.96-.96.29-.29-.96Z"/>
    <path class="cls-4" d="M111.5,425.19l-.81-2.85.65-.19.8,2.81c.23.8.88.99,1.41.84.55-.16.97-.69.76-1.43l-.81-2.83.65-.19,1.28,4.5-.65.19-.13-.46c-.12.42-.54.75-.92.86-.74.21-1.85.09-2.23-1.24Z"/>
    <path class="cls-4" d="M120.01,421.5l.78,2.87-.66.18-.78-2.88c-.2-.75-.83-.99-1.42-.83-.59.16-1.01.68-.8,1.43l.78,2.88-.66.18-1.23-4.51.66-.18.12.43c.13-.43.55-.74.96-.85.84-.23,1.89-.04,2.25,1.29Z"/>
    <path class="cls-4" d="M121.71,419.29l1.82-.47,1.01,3.9,1.6-.41.16.63-3.86.99-.16-.63,1.6-.41-.84-3.27-1.16.3-.16-.63ZM122.23,417.43l.97-.25.25.97-.97.25-.25-.97Z"/>
    <path class="cls-4" d="M127.09,417.93l1.83-.44.94,3.91,1.6-.39.15.64-3.87.93-.15-.63,1.6-.39-.79-3.28-1.16.28-.15-.63ZM127.65,416.08l.97-.23.23.97-.97.23-.23-.97Z"/>
  </g>
  <g>
    <path class="cls-4" d="M428.46,316.14v4.97h1.46v.69h-3.62v-.69h1.46v-4.97h-1.46v-.69h3.62v.69h-1.46Z"/>
    <path class="cls-4" d="M431.8,320.09v-2.97h.68v2.92c0,.83.57,1.2,1.13,1.2s1.12-.4,1.12-1.17v-2.95h.68v4.68h-.68v-.48c-.24.37-.73.57-1.12.57-.77,0-1.81-.42-1.81-1.81Z"/>
    <path class="cls-4" d="M437.6,315.45h1.88v5.7h1.65v.65h-3.98v-.65h1.65v-5.04h-1.2v-.65Z"/>
    <path class="cls-4" d="M443.14,317.12h1.88v4.03h1.65v.65h-3.98v-.65h1.65v-3.37h-1.2v-.65ZM444.11,315.45h1v1h-1v-1Z"/>
    <path class="cls-4" d="M448.34,320.09v-2.97h.68v2.92c0,.83.57,1.2,1.13,1.2s1.12-.4,1.12-1.17v-2.95h.68v4.68h-.68v-.48c-.24.37-.73.57-1.12.57-.77,0-1.81-.42-1.81-1.81Z"/>
    <path class="cls-4" d="M456.64,318.49c-.08-.54-.44-.84-1.03-.84-.51,0-.88.25-.88.68,0,.39.26.56.64.65l.88.22c.71.17,1.2.53,1.2,1.39,0,.93-.7,1.31-1.65,1.31s-1.81-.45-1.88-1.59h.7c.06.66.55.93,1.18.93s.95-.26.96-.67c0-.3-.14-.56-.65-.69l-.92-.23c-.51-.12-1.15-.46-1.15-1.3s.72-1.36,1.58-1.36c.94,0,1.64.45,1.71,1.5h-.7Z"/>
    <path class="cls-4" d="M427.41,328.21h-.7c-.07-.84-.64-1.28-1.34-1.28-.75,0-1.35.5-1.35,1.46v2.23c0,.96.6,1.46,1.35,1.46s1.35-.5,1.35-1.46v-.63h-1.35v-.69h2.05v1.32c0,1.33-.83,2.15-2.05,2.15s-2.05-.82-2.05-2.15v-2.23c0-1.33.83-2.15,2.05-2.15s1.97.74,2.04,1.97Z"/>
    <path class="cls-4" d="M429.7,329.43h-.7c.12-1.17,1.01-1.56,1.82-1.56.87,0,1.83.45,1.83,1.83v2.98h-.68v-.48c-.3.39-.83.57-1.46.57-.8,0-1.55-.43-1.55-1.39,0-.47.2-1.11,1.02-1.34.54-.15,1.21-.21,2-.26v-.08c0-.78-.54-1.17-1.15-1.17-.54,0-1.02.3-1.13.91ZM431.97,330.39c-1.02.07-1.61.14-1.92.31-.35.19-.41.4-.41.67,0,.43.33.75,1.02.75.73,0,1.31-.39,1.31-1.13v-.61Z"/>
    <path class="cls-4" d="M434.63,328h1.71v.49c.24-.38.73-.57,1.15-.57h1.13v.65h-1.13c-.61,0-1.15.39-1.15,1.17v2.29h1.82v.65h-3.98v-.65h1.48v-3.37h-1.03v-.65Z"/>
    <path class="cls-4" d="M440.02,330.94v-1.23c0-1.38.96-1.83,1.83-1.83.43,0,.92.19,1.15.57v-2.11h.68v6.35h-.68v-.48c-.24.38-.73.57-1.15.57-.87,0-1.83-.45-1.83-1.83ZM440.7,330.95c0,.78.54,1.17,1.15,1.17s1.15-.39,1.15-1.17v-1.25c0-.78-.54-1.17-1.15-1.17s-1.15.39-1.15,1.17v1.25Z"/>
    <path class="cls-4" d="M448.54,331.21h.7c-.12,1.17-1.01,1.56-1.82,1.56-.87,0-1.83-.45-1.83-1.83v-1.23c0-1.38.96-1.83,1.83-1.83s1.83.45,1.83,1.83v.79h-2.98v.45c0,.78.54,1.17,1.15,1.17.54,0,1.02-.3,1.12-.91ZM448.57,329.7c0-.78-.54-1.17-1.15-1.17s-1.15.39-1.15,1.17v.17h2.3v-.17Z"/>
    <path class="cls-4" d="M454.77,329.7v2.98h-.68v-2.98c0-.78-.54-1.17-1.15-1.17s-1.15.39-1.15,1.17v2.98h-.68v-4.68h.68v.44c.24-.38.73-.57,1.15-.57.87,0,1.83.45,1.83,1.83Z"/>
    <path class="cls-4" d="M459.39,329.37c-.08-.54-.44-.84-1.03-.84-.51,0-.88.25-.88.68,0,.39.26.56.64.65l.88.22c.71.17,1.2.53,1.2,1.39,0,.93-.7,1.31-1.65,1.31s-1.81-.45-1.88-1.59h.7c.06.66.55.93,1.18.93s.95-.26.96-.67c0-.3-.14-.56-.65-.69l-.92-.23c-.51-.12-1.15-.46-1.15-1.3s.72-1.36,1.58-1.36c.94,0,1.64.45,1.71,1.5h-.7Z"/>
  </g>
  <g>
    <path class="cls-3" d="M330.86,285.98l-40.98-49.77,2.74-46.56,40.03,1.12.37-8.24h-5.21l6.67-68.83,100.86,8.07s1.34-15.76,1.65-18.75,2.14-6.59,7.69-6.28,16.47,1.4,18.91,1.65c2.44.24,10.37,1.71,15.32,9.27,4.94,7.57,29.73,46.49,31.01,48.44,1.29,1.95,2.36,7.27-1.6,6.97s-24.65-1.83-24.65-1.83l-1.34,13.67,28.01,2.32-1.1,18.12,5.8.37-5.19,74.32-4.94-.37-.61,6.89-16.47-1.4,1.46-21.11-25.08-2.2-1.16,11.72-15.1-.67-117.09,23.09Z"/>
    <path class="cls-9" d="M330.74,286.33l-.12-.15-41.06-49.87v-.13s2.77-46.87,2.77-46.87l40.03,1.12.34-7.58h-5.23l.03-.35,6.71-69.14.32.03,100.54,8.04c.19-2.26,1.34-15.71,1.62-18.43.44-4.37,3.43-6.84,8.03-6.57,2.48.14,7.75.53,18.76,1.63l.17.02c2.36.24,10.45,1.61,15.55,9.42,3.05,4.67,13.79,21.49,21.63,33.77,4.96,7.78,8.89,13.92,9.38,14.66.98,1.49,1.75,4.6.76,6.28-.36.61-1.11,1.3-2.66,1.19-3.68-.28-21.72-1.61-24.33-1.81l-1.28,13.03,27.99,2.32-1.1,18.12,5.8.37-5.23,74.97-4.95-.37-.61,6.9-17.11-1.46,1.46-21.11-24.44-2.14-1.16,11.7-15.37-.68-117.24,23.12ZM290.22,236.1l40.77,49.52,116.94-23.06h.04s14.79.66,14.79.66l1.16-11.73,25.71,2.25-1.46,21.11,15.83,1.35.61-6.89,4.94.37,5.14-73.67-5.79-.37,1.1-18.13-28.02-2.32,1.4-14.31.32.02s20.69,1.52,24.65,1.83c.98.07,1.67-.22,2.05-.87.85-1.44.13-4.28-.74-5.59-.49-.75-4.42-6.89-9.38-14.67-7.84-12.28-18.58-29.1-21.63-33.77-4.94-7.57-12.79-8.9-15.08-9.13l-.17-.02c-11-1.1-16.25-1.49-18.73-1.63-6.05-.33-7.15,4.08-7.35,5.99-.3,2.95-1.63,18.58-1.65,18.74l-.03.32-.32-.03-100.54-8.04-6.61,68.15h5.19l-.39,8.89-40.04-1.12-2.72,46.12Z"/>
  </g>
  <path class="cls-7" d="M447.29,272.18c3.43-2.8,11.86-10.64,11.86-20.16,0-3.52-1.4-6.9-3.89-9.4-2.49-2.49-5.87-3.89-9.4-3.89s-6.9,1.4-9.4,3.89c-2.49,2.49-3.89,5.87-3.89,9.4,0,9.52,8.43,17.36,11.86,20.16.84.69,2.02.69,2.86,0ZM454,252.02c0,4.5-3.64,8.14-8.14,8.14s-8.14-3.64-8.14-8.14,3.64-8.14,8.14-8.14,8.14,3.64,8.14,8.14Z"/>
  <g>
    <path class="cls-4" d="M393.88,227.48v4.97h1.46v.69h-3.62v-.69h1.46v-4.97h-1.46v-.69h3.62v.69h-1.46Z"/>
    <path class="cls-4" d="M397.22,231.43v-2.97h.68v2.92c0,.83.57,1.2,1.13,1.2s1.12-.4,1.12-1.17v-2.95h.68v4.68h-.68v-.48c-.24.37-.73.57-1.12.57-.77,0-1.81-.42-1.81-1.81Z"/>
    <path class="cls-4" d="M403.02,226.79h1.88v5.7h1.65v.65h-3.98v-.65h1.65v-5.04h-1.2v-.65Z"/>
    <path class="cls-4" d="M408.56,228.46h1.88v4.03h1.65v.65h-3.98v-.65h1.65v-3.37h-1.2v-.65ZM409.53,226.79h1v1h-1v-1Z"/>
    <path class="cls-4" d="M413.76,231.43v-2.97h.68v2.92c0,.83.57,1.2,1.13,1.2s1.12-.4,1.12-1.17v-2.95h.68v4.68h-.68v-.48c-.24.37-.73.57-1.12.57-.77,0-1.81-.42-1.81-1.81Z"/>
    <path class="cls-4" d="M422.06,229.83c-.08-.54-.44-.84-1.03-.84-.51,0-.88.25-.88.68,0,.39.26.56.64.65l.88.22c.71.17,1.2.53,1.2,1.39,0,.93-.7,1.31-1.65,1.31s-1.81-.45-1.88-1.59h.7c.06.66.55.93,1.18.93s.95-.26.96-.67c0-.3-.14-.56-.65-.69l-.92-.23c-.51-.12-1.15-.46-1.15-1.3s.72-1.36,1.58-1.36c.94,0,1.64.45,1.71,1.5h-.7Z"/>
    <path class="cls-4" d="M434.2,228.67h-.7c-.07-.84-.64-1.28-1.34-1.28-.75,0-1.35.5-1.35,1.46v2.23c0,.96.6,1.46,1.35,1.46.71,0,1.27-.44,1.34-1.28h.7c-.07,1.22-.88,1.97-2.04,1.97s-2.05-.82-2.05-2.15v-2.23c0-1.33.83-2.15,2.05-2.15s1.97.74,2.04,1.97Z"/>
    <path class="cls-4" d="M439.47,231.4c0,1.38-.96,1.83-1.83,1.83s-1.83-.45-1.83-1.83v-1.23c0-1.38.96-1.83,1.83-1.83s1.83.45,1.83,1.83v1.23ZM438.78,230.16c0-.78-.54-1.17-1.15-1.17s-1.15.39-1.15,1.17v1.25c0,.78.54,1.17,1.15,1.17s1.15-.39,1.15-1.17v-1.25Z"/>
    <path class="cls-4" d="M445,230.17v2.98h-.68v-2.98c0-.78-.54-1.17-1.15-1.17s-1.15.39-1.15,1.17v2.98h-.68v-4.68h.68v.44c.24-.38.73-.57,1.15-.57.87,0,1.83.45,1.83,1.83Z"/>
    <path class="cls-4" d="M449.77,233.08v-.6c-.24.38-.73.57-1.15.57-.87,0-1.83-.45-1.83-1.83v-1.05c0-1.38.96-1.83,1.83-1.83.43,0,.92.19,1.15.57v-.44h.68v4.61c0,1.39-.96,1.83-1.83,1.83-.83,0-1.72-.4-1.82-1.61h.69c.09.64.59.95,1.13.95.61,0,1.15-.39,1.15-1.17ZM447.47,231.23c0,.78.54,1.17,1.15,1.17s1.15-.39,1.15-1.17v-1.07c0-.78-.54-1.17-1.15-1.17s-1.15.39-1.15,1.17v1.07Z"/>
    <path class="cls-4" d="M452.42,228.46h1.71v.49c.24-.38.73-.57,1.15-.57h1.13v.65h-1.13c-.61,0-1.15.39-1.15,1.17v2.29h1.82v.65h-3.98v-.65h1.48v-3.37h-1.03v-.65Z"/>
    <path class="cls-4" d="M460.82,231.68h.7c-.12,1.17-1.01,1.56-1.82,1.56-.87,0-1.83-.45-1.83-1.83v-1.23c0-1.38.96-1.83,1.83-1.83s1.83.45,1.83,1.83v.79h-2.98v.45c0,.78.54,1.17,1.15,1.17.54,0,1.02-.3,1.12-.91ZM460.85,230.16c0-.78-.54-1.17-1.15-1.17s-1.15.39-1.15,1.17v.17h2.3v-.17Z"/>
    <path class="cls-4" d="M466.16,229.83c-.08-.54-.44-.84-1.03-.84-.51,0-.88.25-.88.68,0,.39.26.56.64.65l.88.22c.71.17,1.2.53,1.2,1.39,0,.93-.7,1.31-1.65,1.31s-1.81-.45-1.88-1.59h.7c.06.66.55.93,1.18.93s.95-.26.96-.67c0-.3-.14-.56-.65-.69l-.92-.23c-.51-.12-1.15-.46-1.15-1.3s.72-1.36,1.58-1.36c.94,0,1.64.45,1.71,1.5h-.7Z"/>
    <path class="cls-4" d="M471.67,229.83c-.08-.54-.44-.84-1.03-.84-.51,0-.88.25-.88.68,0,.39.26.56.64.65l.88.22c.71.17,1.2.53,1.2,1.39,0,.93-.7,1.31-1.65,1.31s-1.81-.45-1.88-1.59h.7c.06.66.55.93,1.18.93s.95-.26.96-.67c0-.3-.14-.56-.65-.69l-.92-.23c-.51-.12-1.15-.46-1.15-1.3s.72-1.36,1.58-1.36c.94,0,1.64.45,1.71,1.5h-.7Z"/>
    <path class="cls-4" d="M483.09,226.79h.7v6.35h-.7v-2.87h-2.7v2.87h-.7v-6.35h.7v2.79h2.7v-2.79Z"/>
    <path class="cls-4" d="M486.08,229.9h-.7c.12-1.17,1.01-1.56,1.82-1.56.87,0,1.83.45,1.83,1.83v2.98h-.68v-.48c-.3.39-.83.57-1.46.57-.8,0-1.55-.43-1.55-1.39,0-.47.2-1.11,1.02-1.34.54-.15,1.21-.21,2-.26v-.08c0-.78-.54-1.17-1.15-1.17-.54,0-1.02.3-1.13.91ZM488.35,230.85c-1.02.07-1.61.14-1.92.31-.35.19-.41.4-.41.67,0,.43.33.75,1.02.75.73,0,1.31-.39,1.31-1.13v-.61Z"/>
    <path class="cls-4" d="M491.23,226.79h1.88v5.7h1.65v.65h-3.98v-.65h1.65v-5.04h-1.2v-.65Z"/>
    <path class="cls-4" d="M496.74,226.79h1.88v5.7h1.65v.65h-3.98v-.65h1.65v-5.04h-1.2v-.65Z"/>
  </g>
</svg>