<svg width="30" height="30" viewBox="0 0 30 30" fill="none" xmlns="http://www.w3.org/2000/svg">
<g id="Frame" clip-path="url(#clip0_133_321)">
<path id="Vector" d="M15 26.25C21.2132 26.25 26.25 21.2132 26.25 15C26.25 8.7868 21.2132 3.75 15 3.75C8.7868 3.75 3.75 8.7868 3.75 15C3.75 21.2132 8.7868 26.25 15 26.25Z" stroke="#8E939B" stroke-width="1.5" stroke-linecap="round" stroke-linejoin="round"/>
<path id="Vector_2" d="M19.6875 15C19.6875 22.5 15 26.25 15 26.25C15 26.25 10.3125 22.5 10.3125 15C10.3125 7.5 15 3.75 15 3.75C15 3.75 19.6875 7.5 19.6875 15Z" stroke="#8E939B" stroke-width="1.5" stroke-linecap="round" stroke-linejoin="round"/>
<path id="Vector_3" d="M4.38989 11.25H25.6102" stroke="#8E939B" stroke-width="1.5" stroke-linecap="round" stroke-linejoin="round"/>
<path id="Vector_4" d="M4.38989 18.75H25.6102" stroke="#8E939B" stroke-width="1.5" stroke-linecap="round" stroke-linejoin="round"/>
</g>
<defs>
<clipPath id="clip0_133_321">
<rect width="30" height="30" fill="white"/>
</clipPath>
</defs>
</svg>
