<svg width="213" height="40" viewBox="0 0 213 40" fill="none" xmlns="http://www.w3.org/2000/svg">
<g id="Group">
<g id="Layer_1">
<g id="Group_2">
<path id="Vector" d="M169.495 2.60166V8.45528H168.519V2.60166H166.568V1.62604H171.446V2.60166H169.495Z" fill="white"/>
<path id="Vector_2" d="M173.397 8.45528H172.422V1.62604H173.397V8.45528Z" fill="white"/>
<path id="Vector_3" d="M179.413 1.62604H180.389V8.45528H179.413V3.73984L177.95 6.6667H177.137L175.674 3.73984V8.45528H174.698V1.62604H175.674L177.462 5.36586L179.251 1.62604H179.413Z" fill="white"/>
<path id="Vector_4" d="M182.991 8.45528H182.015V1.62604H182.991V8.45528Z" fill="white"/>
<path id="Vector_5" d="M183.967 6.34152H185.105C185.105 7.15453 185.755 7.47975 186.568 7.47975C187.381 7.47975 187.706 7.15455 187.706 6.66674C187.706 6.17894 187.381 5.85372 186.731 5.69112L185.593 5.3659C184.617 5.2033 184.129 4.39032 184.129 3.41471C184.129 2.4391 185.105 1.46347 186.406 1.46347C187.706 1.46347 188.519 2.2765 188.682 3.41471H187.544C187.544 2.9269 186.893 2.6017 186.243 2.6017C185.593 2.6017 185.105 2.92687 185.105 3.57727C185.105 4.22768 185.43 4.39029 185.918 4.55289L187.056 4.87811C188.194 5.20332 188.682 5.85369 188.682 6.8293C188.682 7.80491 187.869 8.78054 186.406 8.78054C184.942 8.78054 183.967 7.80494 183.967 6.50413V6.34152Z" fill="white"/>
<path id="Vector_6" d="M189.658 3.90249C189.658 2.43908 190.633 1.46347 192.097 1.46347C193.56 1.46347 194.536 2.43908 194.536 3.90249V6.17891C194.536 7.64232 193.56 8.61793 192.097 8.61793C190.633 8.61793 189.658 7.64232 189.658 6.17891V3.90249ZM193.56 3.90249C193.56 2.92689 192.91 2.6017 192.097 2.6017C191.284 2.6017 190.633 3.08949 190.633 3.90249V6.17891C190.633 7.15452 191.284 7.47975 192.097 7.47975C192.91 7.47975 193.56 6.99192 193.56 6.17891V3.90249Z" fill="white"/>
<path id="Vector_7" d="M199.251 6.82926H196.649L195.999 8.45528H194.861L197.3 1.62604H198.438L200.877 8.45528H199.739L199.088 6.82926H199.251ZM198.926 5.85369L197.95 3.08944L196.974 5.85369H198.926Z" fill="white"/>
<path id="Vector_8" d="M202.666 5.52847V8.45528H201.69V1.62604H204.292C205.593 1.62604 206.406 2.43902 206.406 3.57723C206.406 4.71544 205.918 5.20326 204.942 5.52847L206.731 8.45528H205.593L203.804 5.52847H202.666ZM204.292 2.60166H202.666V4.39024H204.292C204.942 4.39024 205.267 4.06507 205.267 3.41467C205.267 2.76426 204.942 2.43905 204.292 2.43905V2.60166Z" fill="white"/>
<path id="Vector_9" d="M211.121 6.82926H208.52L207.869 8.45528H206.731L209.17 1.62604H210.308L212.747 8.45528H211.609L210.959 6.82926H211.121ZM210.796 5.85369L209.82 3.08944L208.845 5.85369H210.796Z" fill="white"/>
</g>
<g id="Group_3">
<path id="Vector_10" d="M70.958 29.756C66.5677 29.756 63.4783 26.9918 63.4783 22.4389V15.7723C63.4783 11.382 66.4051 8.4552 70.958 8.4552C75.5108 8.4552 78.1124 11.0568 78.275 15.1219H75.1856C74.8604 12.6829 72.9092 11.5447 70.958 11.5447C69.0067 11.5447 66.7303 12.8454 66.7303 15.7723V22.4389C66.7303 25.3658 68.8441 26.6666 70.958 26.6666C73.0718 26.6666 74.8604 25.5284 75.1856 23.0893H78.275C77.9498 27.1544 75.1856 29.756 70.958 29.756Z" fill="white"/>
<path id="Vector_11" d="M86.5676 32.8454C86.0798 34.1462 85.1041 34.7966 83.1529 34.7966H81.5269V31.8698H82.1773C83.6407 31.8698 83.8033 31.5446 84.2911 30.4064L84.7789 29.2682L79.4131 14.3088H82.6651L86.405 25.2032L90.1448 14.3088H93.3968L86.5676 33.008V32.8454Z" fill="white"/>
<path id="Vector_12" d="M107.706 23.4146C107.706 28.13 104.291 29.756 101.69 29.756C99.088 29.756 98.6002 28.943 98.1124 27.9674V29.4309H95.0229V8.78043H98.1124V15.6097C98.6002 14.7967 100.064 13.8211 101.69 13.8211C104.291 13.8211 107.706 15.4471 107.706 20.1625V23.4146ZM104.616 20.1625C104.616 17.8861 103.316 16.7479 101.364 16.7479C99.4132 16.7479 98.1124 17.8861 98.1124 20.1625V23.4146C98.1124 25.691 99.4132 26.8292 101.364 26.8292C103.316 26.8292 104.616 25.691 104.616 23.4146V20.1625Z" fill="white"/>
<path id="Vector_13" d="M120.064 24.5529H123.153C122.665 28.6179 119.413 29.7561 116.974 29.7561C114.535 29.7561 110.633 28.4553 110.633 23.4146V20.1626C110.633 15.1219 114.373 13.8211 116.974 13.8211C119.576 13.8211 123.316 15.1219 123.316 20.1626V22.9268H113.722V23.4146C113.722 25.691 115.023 26.8293 116.974 26.8293C118.925 26.8293 119.739 26.1788 120.064 24.7154V24.5529ZM113.722 20H120.226C120.226 17.7236 118.925 16.5853 116.974 16.5853C115.023 16.5853 113.722 17.7235 113.722 19.8374V20Z" fill="white"/>
<path id="Vector_14" d="M132.909 16.9106C130.958 16.9106 129.657 18.0488 129.657 20.3252V29.4309H126.568V14.1463H129.657V15.6098C130.145 14.7968 131.608 13.8211 133.234 13.8211H134.372V16.9106H132.909Z" fill="white"/>
<path id="Vector_15" d="M138.926 29.4309H136.649V8.78043H148.357V11.0568H138.926V17.8861H148.357V20.1625H138.926V29.4309Z" fill="white"/>
<path id="Vector_16" d="M163.479 23.7398C163.479 28.2926 160.389 29.756 157.462 29.756C154.535 29.756 151.446 28.2926 151.446 23.7398V19.6748C151.446 15.1219 154.535 13.6585 157.462 13.6585C160.389 13.6585 163.479 15.1219 163.479 19.6748V23.7398ZM161.202 19.6748C161.202 17.0731 159.414 15.9349 157.462 15.9349C155.511 15.9349 153.722 17.2357 153.722 19.6748V23.7398C153.722 26.3414 155.511 27.4796 157.462 27.4796C159.414 27.4796 161.202 26.1788 161.202 23.7398V19.6748Z" fill="white"/>
<path id="Vector_17" d="M169.332 15.7723C170.145 14.4715 171.771 13.9837 173.072 13.9837H174.048V16.0975H173.072C171.121 16.0975 169.332 17.3983 169.332 19.8373V29.4309H167.056V14.1463H169.332V15.7723Z" fill="white"/>
<path id="Vector_18" d="M176.324 23.7398V14.1463H178.6V23.5772C178.6 26.3414 180.389 27.4796 182.177 27.4796C183.966 27.4796 185.755 26.1788 185.755 23.7398V14.1463H188.031V29.4308H185.755V27.8048C184.942 28.943 183.316 29.5934 182.177 29.5934C179.738 29.5934 176.324 28.2926 176.324 23.7398Z" fill="white"/>
<path id="Vector_19" d="M210.795 29.4309V19.5122C210.795 17.2358 209.007 15.9349 207.218 15.9349C205.43 15.9349 203.641 17.2358 203.641 19.6748V29.4309H201.365V19.5122C201.365 17.2358 199.576 15.9349 197.787 15.9349C195.999 15.9349 194.21 17.2358 194.21 19.6748V29.4309H191.934V14.1463H194.21V15.6098C195.023 14.309 196.649 13.8211 197.787 13.8211C199.576 13.8211 201.364 14.4715 202.34 16.2602C203.316 14.6341 205.267 13.8211 206.893 13.8211C209.657 13.8211 212.584 15.4471 212.584 19.8374V29.5935H210.308L210.795 29.4309Z" fill="white"/>
</g>
<g id="Group_4">
<path id="Vector_20" d="M49.0069 17.0732C48.5191 16.748 48.0313 16.748 47.7061 17.0732C47.3809 17.561 47.3809 18.0488 47.7061 18.374C47.7061 18.374 49.8199 20.1626 51.6085 21.4634H13.3971H3.80363L7.70608 18.374C8.19389 18.0488 8.19389 17.3984 7.70608 17.0732C7.38088 16.5854 6.73047 16.5854 6.40526 17.0732L0.389009 21.9513C0.0638057 22.2765 -0.0988157 22.6016 0.0637859 23.0894C0.0637859 23.4146 0.551601 23.7399 1.03941 23.7399H11.2833C9.6573 26.1789 9.9825 28.7805 9.9825 29.7561V30.0813L10.3077 30.244C10.9581 30.8944 12.9093 32.1951 15.6736 32.1951L17.4622 37.7236L23.1532 36.4228C24.4541 38.6992 26.5679 39.6748 27.3809 40.0001H27.7061H28.0313C28.8443 39.6748 30.9581 38.6992 32.4215 36.4228L38.1126 37.7236L39.9012 32.1951C42.5028 32.1951 44.454 30.8944 45.1045 30.244H45.4297C45.4297 30.0814 45.4297 29.5935 45.4297 29.5935C45.4297 28.7805 45.7549 26.0163 44.1288 23.5773H54.3727C54.8605 23.5773 55.1857 23.2521 55.3483 22.9269C55.4567 22.4933 53.3429 20.4878 49.0069 16.9106V17.0732ZM18.763 35.4472L17.6248 32.0325C18.1126 32.0325 18.763 31.7073 19.2508 31.3821C20.0638 32.0325 21.0394 32.5203 21.8524 32.8455C21.8524 33.4959 21.8524 34.1464 22.1776 34.6342L18.6004 35.4472H18.763ZM36.8118 35.4472L33.2345 34.6342C33.2345 34.1464 33.5597 33.4959 33.5597 32.8455C34.5353 32.3577 35.3484 31.8699 36.1614 31.3821C36.8118 31.7073 37.2996 31.8699 37.95 32.0325L36.8118 35.4472ZM43.641 28.9431C42.3402 29.7561 39.7386 31.057 36.6492 29.2683L35.9988 28.9431L35.5109 29.4309C34.5353 30.244 33.3971 30.8943 32.2589 31.2195H31.6085C31.6085 31.3821 31.6085 32.1951 31.6085 32.1951C31.6085 35.935 29.1695 37.561 27.7061 38.0488C26.4052 37.3984 23.8036 35.7724 23.8036 32.1951V31.5447L23.1532 31.3821C22.015 30.8943 20.8768 30.244 19.9012 29.4309L19.4134 28.9431L18.763 29.2683C15.5109 31.057 12.9093 29.7561 11.7711 28.9431C11.7711 27.8049 11.7711 25.5285 13.7223 23.7399H41.6898C43.641 25.5285 43.641 27.8049 43.641 29.1057V28.9431Z" fill="white"/>
<path id="Vector_21" d="M14.2098 18.6992C14.6976 19.0244 15.348 18.6992 15.5106 18.374C15.8358 17.8862 15.5106 17.2358 15.1854 17.0732C11.9333 15.2846 11.7707 12.1951 11.9333 10.7317C13.2341 9.91871 15.8358 8.45527 18.9252 10.4065L19.5756 10.7317L20.0634 10.2439C21.039 9.43087 22.1772 8.78046 23.3154 8.45525H23.9659C23.9659 8.29265 23.9659 7.47968 23.9659 7.47968C23.9659 3.73985 26.4049 2.11382 27.8683 1.62602C29.1691 2.27642 31.7707 3.90245 31.7707 7.47968V8.13008L32.4211 8.29269C33.5594 8.7805 34.6976 9.43087 35.6732 10.2439L36.161 10.7317L36.8114 10.4065C40.0634 8.61788 42.665 9.91871 43.8033 10.7317C43.8033 12.1951 43.8033 15.122 40.5512 17.0732C40.0634 17.3984 39.9008 17.8862 40.226 18.374C40.3886 18.6992 40.7138 18.8618 41.039 18.8618C41.3642 18.8618 41.3642 18.8618 41.5268 18.8618C46.0797 16.0976 45.7545 11.5447 45.5919 10.2439V9.91871L45.2667 9.7561C44.6163 9.10569 42.665 7.80486 40.0634 7.80486L38.2748 2.27641L32.5837 3.41464C31.2829 1.30082 29.1691 0.325203 28.3561 0H28.0309H27.7057C26.8927 0.325203 24.7789 1.30078 23.3154 3.57721L17.6244 2.27641L15.8358 7.80486C13.2342 7.80486 11.2829 9.10569 10.6325 9.7561H10.3073C10.3073 9.9187 10.3073 10.4065 10.3073 10.4065C10.1447 11.7073 9.81951 16.4227 14.3724 19.0244L14.2098 18.6992ZM36.8114 4.22765L37.9496 7.64225C37.4618 7.64225 36.8114 7.96749 36.161 8.29269C35.348 7.64229 34.3724 7.15444 33.5594 6.82924C33.5594 6.17883 33.3968 5.52846 33.2342 4.87805L36.8114 4.22765ZM18.7626 4.22765L22.3398 5.04066C22.3398 5.52847 22.0146 6.17883 22.0146 6.82924C21.039 7.31704 20.226 7.80489 19.413 8.29269C18.7626 7.96749 18.2748 7.80485 17.6244 7.64225L18.7626 4.22765Z" fill="white"/>
</g>
</g>
</g>
</svg>
