<svg width="311" height="60" viewBox="0 0 311 60" fill="none" xmlns="http://www.w3.org/2000/svg">
<g clip-path="url(#clip0_26_2836)">
<path d="M75.7848 0.629395C72.2415 0.629395 69.0851 1.82271 66.78 3.78983V7.71595C68.743 5.58184 71.9442 3.70431 75.8296 3.70431C82.1464 3.70431 87.0133 8.65675 87.0133 15.3157V24.4915C89.1067 22.2719 90.4303 19.0707 90.4303 15.3157C90.4303 6.86475 83.8977 0.633467 75.7889 0.633467L75.7848 0.629395Z" fill="#2672FB"/>
<path d="M64.6458 15.0591V5.87915C62.5565 8.09879 61.188 11.3 61.188 15.055C61.188 23.5059 67.7207 29.7372 75.8295 29.7372C79.3728 29.7372 82.5291 28.5439 84.8791 26.5768V22.6507C82.8712 24.7848 79.6293 26.6623 75.7888 26.6623C69.472 26.6623 64.6458 21.6691 64.6458 15.0509V15.0591Z" fill="#2672FB"/>
<path d="M109.922 1.09766H100.017V29.2688H103.349V4.00152H109.882C113.596 4.00152 115.518 6.30668 115.518 9.29607C115.518 12.2855 113.596 14.5458 109.882 14.5458H105.442V17.4497H109.922C115.473 17.4497 118.927 14.0327 118.927 9.25534C118.927 4.47803 115.469 1.10173 109.922 1.10173V1.09766Z" fill="#2672FB"/>
<path d="M142.793 7.24758L145.229 5.41078C143.522 2.67798 140.276 0.629395 136.521 0.629395C135.409 0.629395 134.387 0.800449 133.446 1.09776V4.2582C134.387 3.87536 135.495 3.70431 136.436 3.70431C138.997 3.70431 141.303 4.98314 142.797 7.24758H142.793Z" fill="#2672FB"/>
<path d="M138.994 14.0328L135.878 12.5381C133.316 11.3 131.353 10.3633 131.353 7.3739V2.07935C129.305 3.31746 127.895 5.36604 127.895 8.01332C127.895 11.9842 130.97 13.9473 134.257 15.5275L137.417 17.0222C140.191 18.3459 142.113 19.3681 142.113 22.4023V28.1652C144.247 26.8009 145.571 24.6667 145.571 21.8891C145.571 18.0893 143.14 16 138.998 14.0369L138.994 14.0328Z" fill="#2672FB"/>
<path d="M128.579 21.8442L126.103 23.681C128.278 27.3954 132.037 29.7413 136.391 29.7413C137.715 29.7413 138.908 29.5254 140.02 29.1426V26.0269C138.908 26.4098 137.629 26.6664 136.436 26.6664C132.807 26.6664 130.29 24.4467 128.584 21.8442H128.579Z" fill="#2672FB"/>
<path d="M152.063 1.09766L162.774 29.7412H163.972L165.165 26.8373L155.733 1.09766H152.063Z" fill="#2672FB"/>
<path d="M183.35 19.6245L185.142 24.0231L193.678 1.09766H190.053L183.35 19.6245Z" fill="#2672FB"/>
<path d="M172.296 0.629395L164.737 19.5391L166.318 23.8928L172.891 7.41456L181.814 29.7413H183.052L184.034 27.0085L173.49 0.629395H172.296Z" fill="#2672FB"/>
<path d="M203.844 20.7977L208.328 10.3837L206.577 6.2417L196.676 29.5052H200.174L202.565 23.7871H214.091L212.808 20.7977H203.844Z" fill="#2672FB"/>
<path d="M208.881 0.865723L207.688 3.55373L218.786 29.5052H222.33L210.12 0.865723H208.881Z" fill="#2672FB"/>
<path d="M247.255 1.09766H224.077V4.08704H247.255V1.09766Z" fill="#2672FB"/>
<path d="M237.313 6.17651H233.982V29.2689H237.313V6.17651Z" fill="#2672FB"/>
<path d="M247.296 25.4609C246.09 25.4609 245.092 26.4669 245.092 27.7091C245.092 28.9513 246.09 29.9491 247.296 29.9491C248.501 29.9491 249.483 28.9431 249.483 27.7091C249.483 26.475 248.505 25.4609 247.296 25.4609Z" fill="#2672FB"/>
<path d="M4.12504 51.5468H1.62438V56.1124H0.333328V44.3625H4.12504C6.84562 44.3625 7.91675 45.8735 7.91675 47.9547C7.91675 50.0359 6.84155 51.5468 4.12504 51.5468ZM4.12504 45.6373H1.62438V50.2721H4.12504C5.9374 50.2721 6.59311 49.2295 6.59311 47.9547C6.59311 46.6799 5.9374 45.6373 4.12504 45.6373Z" fill="white"/>
<path d="M10.9265 48.3577C11.3623 47.6532 12.2705 47.2988 13.0565 47.2988H13.6104V48.5084H13.0565C11.9325 48.5084 10.9265 49.2293 10.9265 50.6751V56.1122H9.66803V47.4495H10.9265V48.3577Z" fill="white"/>
<path d="M21.6704 52.8906C21.6704 55.4442 19.8906 56.2832 18.2778 56.2832C16.665 56.2832 14.8852 55.4442 14.8852 52.8906V50.6058C14.8852 48.0563 16.665 47.2173 18.2778 47.2173C19.8906 47.2173 21.6704 48.0563 21.6704 50.6058V52.8906ZM20.4119 50.5895C20.4119 49.1478 19.4059 48.4228 18.2818 48.4228C17.1578 48.4228 16.1518 49.1437 16.1518 50.5895V52.9069C16.1518 54.3486 17.1578 55.0736 18.2818 55.0736C19.4059 55.0736 20.4119 54.3527 20.4119 52.9069V50.5895Z" fill="white"/>
<path d="M25.6168 54.1494C25.6168 54.7032 25.8164 54.9069 26.4232 54.9069H27.751V56.1165H26.4232C24.8104 56.1165 24.3584 55.53 24.3584 54.0516V48.6634H23.1325V47.4538H24.3584V45.4907H25.6168V47.4538H27.7469V48.6634H25.6168V54.1534V54.1494Z" fill="white"/>
<path d="M34.9149 53.3956H36.2059C35.986 55.5623 34.3406 56.2832 32.8337 56.2832C31.2209 56.2832 29.4411 55.4442 29.4411 52.8906V50.6058C29.4411 48.0563 31.2209 47.2173 32.8337 47.2173C34.4465 47.2173 36.2263 48.0563 36.2263 50.6058V52.0679H30.7037V52.9069C30.7037 54.3486 31.7096 55.0736 32.8337 55.0736C33.8234 55.0736 34.7153 54.5197 34.9149 53.3956ZM34.9638 50.5936C34.9638 49.1518 33.9578 48.4269 32.8337 48.4269C31.7096 48.4269 30.7037 49.1478 30.7037 50.5936V50.9113H34.9678V50.5936H34.9638Z" fill="white"/>
<path d="M44.9542 50.1905H43.6794C43.5124 49.0134 42.5879 48.427 41.5819 48.427C40.4579 48.427 39.4519 49.1478 39.4519 50.5937V52.911C39.4519 54.3528 40.4579 55.0777 41.5819 55.0777C42.5879 55.0777 43.5124 54.4913 43.6794 53.3142H44.9542C44.7709 55.5461 43.1092 56.2873 41.5819 56.2873C39.9691 56.2873 38.1894 55.4646 38.1894 52.8947V50.6099C38.1894 48.0604 39.9691 47.2214 41.5819 47.2214C43.1092 47.2214 44.7709 47.9586 44.9542 50.1945V50.1905Z" fill="white"/>
<path d="M48.7336 54.1494C48.7336 54.7032 48.9332 54.9069 49.54 54.9069H50.8677V56.1165H49.54C47.9272 56.1165 47.4752 55.53 47.4752 54.0516V48.6634H46.2493V47.4538H47.4752V45.4907H48.7336V47.4538H50.8637V48.6634H48.7336V54.1534V54.1494Z" fill="white"/>
<path d="M54.0527 45.9916H52.7942V44.3625H54.0527V45.9916ZM54.0527 56.1124H52.7942V47.4497H54.0527V56.1124Z" fill="white"/>
<path d="M63.3547 50.6099V56.1162H62.0962V50.5936C62.0962 49.1518 61.0903 48.4269 59.9662 48.4269C58.8421 48.4269 57.8362 49.1478 57.8362 50.5936V56.1162H56.5777V47.4535H57.8362V48.2762C58.272 47.5716 59.1802 47.2173 59.9662 47.2173C61.579 47.2173 63.3588 48.0563 63.3588 50.6058L63.3547 50.6099Z" fill="white"/>
<path d="M71.0237 55.9982V54.8905C70.588 55.595 69.6797 55.9494 68.8937 55.9494C67.2809 55.9494 65.5052 55.1104 65.5052 52.5609V50.6141C65.5052 48.0646 67.285 47.2256 68.8937 47.2256C69.6838 47.2256 70.588 47.5799 71.0237 48.2845V47.4618H72.2822V55.9901C72.2822 58.56 70.5024 59.3827 68.8896 59.3827C67.3624 59.3827 65.7007 58.6455 65.5174 56.4096H66.7922C66.9591 57.5825 67.8837 58.1731 68.8896 58.1731C70.0137 58.1731 71.0197 57.4522 71.0197 56.0064L71.0237 55.9982ZM66.7596 52.5731C66.7596 54.0148 67.7656 54.7398 68.8896 54.7398C70.0137 54.7398 71.0197 54.0189 71.0197 52.5731V50.5937C71.0197 49.152 70.0137 48.427 68.8896 48.427C67.7656 48.427 66.7596 49.1479 66.7596 50.5937V52.5731Z" fill="white"/>
<path d="M80.2403 54.1494C80.2403 54.7032 80.4399 54.9069 81.0467 54.9069H82.3745V56.1165H81.0467C79.4339 56.1165 78.9819 55.53 78.9819 54.0516V48.6634H77.756V47.4538H78.9819V45.4907H80.2403V47.4538H82.3704V48.6634H80.2403V54.1534V54.1494Z" fill="white"/>
<path d="M91.0859 50.61V56.1163H89.8275V50.5937C89.8275 49.1519 88.8215 48.427 87.6974 48.427C86.5734 48.427 85.5674 49.1478 85.5674 50.5937V56.1163H84.3089V44.3665H85.5674V48.2763C86.0032 47.5717 86.9114 47.2174 87.6974 47.2174C89.3102 47.2174 91.09 48.0563 91.09 50.6059L91.0859 50.61Z" fill="white"/>
<path d="M98.7264 53.3956H100.017C99.7976 55.5623 98.1522 56.2832 96.6453 56.2832C95.0325 56.2832 93.2527 55.4442 93.2527 52.8906V50.6058C93.2527 48.0563 95.0325 47.2173 96.6453 47.2173C98.2581 47.2173 100.038 48.0563 100.038 50.6058V52.0679H94.5152V52.9069C94.5152 54.3486 95.5212 55.0736 96.6453 55.0736C97.6349 55.0736 98.5269 54.5197 98.7264 53.3956ZM98.7753 50.5936C98.7753 49.1518 97.7693 48.4269 96.6453 48.4269C95.5212 48.4269 94.5152 49.1478 94.5152 50.5936V50.9113H98.7794V50.5936H98.7753Z" fill="white"/>
<path d="M110.847 48.0728L108.615 56.1124H107.373L105.206 44.3625H106.481L108.143 53.5262L110.224 46.0405H111.466L113.547 53.5262L115.209 44.3625H116.484L114.317 56.1124H113.075L110.843 48.0728H110.847Z" fill="white"/>
<path d="M124.275 52.8906C124.275 55.4442 122.495 56.2832 120.882 56.2832C119.269 56.2832 117.489 55.4442 117.489 52.8906V50.6058C117.489 48.0563 119.269 47.2173 120.882 47.2173C122.495 47.2173 124.275 48.0563 124.275 50.6058V52.8906ZM123.016 50.5895C123.016 49.1478 122.01 48.4228 120.886 48.4228C119.762 48.4228 118.756 49.1437 118.756 50.5895V52.9069C118.756 54.3486 119.762 55.0736 120.886 55.0736C122.01 55.0736 123.016 54.3527 123.016 52.9069V50.5895Z" fill="white"/>
<path d="M127.818 48.3577C128.254 47.6532 129.162 47.2988 129.948 47.2988H130.502V48.5084H129.948C128.824 48.5084 127.818 49.2293 127.818 50.6751V56.1122H126.56V47.4495H127.818V48.3577Z" fill="white"/>
<path d="M133.275 54.1492C133.275 54.703 133.475 54.9067 134.082 54.9067H134.351V56.1163H134.082C132.469 56.1163 132.017 55.5298 132.017 54.0514V44.3665H133.275V54.1532V54.1492Z" fill="white"/>
<path d="M136.077 52.8907V50.6059C136.077 48.0563 137.857 47.2174 139.47 47.2174C140.26 47.2174 141.164 47.5717 141.6 48.2763V44.3665H142.858V56.1163H141.6V55.2284C141.164 55.933 140.256 56.2873 139.47 56.2873C137.857 56.2873 136.077 55.4484 136.077 52.8948V52.8907ZM137.336 52.907C137.336 54.3487 138.342 55.0737 139.466 55.0737C140.59 55.0737 141.596 54.3528 141.596 52.907V50.5896C141.596 49.1478 140.59 48.4229 139.466 48.4229C138.342 48.4229 137.336 49.1438 137.336 50.5896V52.907Z" fill="white"/>
<path d="M145.261 44.3625H147.025V46.126L146.438 47.7022H145.363L145.95 46.126H145.261V44.3625Z" fill="white"/>
<path d="M153.134 49.987C152.983 48.981 152.311 48.4271 151.236 48.4271C150.295 48.4271 149.607 48.8955 149.607 49.6856C149.607 50.4065 150.096 50.7282 150.8 50.8952L152.429 51.2984C153.737 51.6161 154.645 52.2718 154.645 53.8683C154.645 55.5788 153.354 56.2875 151.59 56.2875C149.827 56.2875 148.251 55.4485 148.116 53.3511H149.407C149.526 54.5769 150.43 55.082 151.59 55.082C152.751 55.082 153.354 54.5932 153.37 53.8398C153.37 53.2859 153.118 52.7972 152.161 52.565L150.466 52.1455C149.526 51.9256 148.336 51.2903 148.336 49.7467C148.336 48.2031 149.664 47.2297 151.257 47.2297C153.004 47.2297 154.295 48.0687 154.429 49.9992H153.138L153.134 49.987Z" fill="white"/>
<path d="M167.706 47.8405H166.415C166.281 46.2806 165.242 45.4742 163.931 45.4742C162.538 45.4742 161.43 46.3987 161.43 48.1785V52.3083C161.43 54.0881 162.538 55.0126 163.931 55.0126C165.238 55.0126 166.281 54.2062 166.415 52.6463H167.706C167.572 54.9107 166.077 56.2873 163.931 56.2873C161.784 56.2873 160.139 54.7763 160.139 52.3083V48.1785C160.139 45.7104 161.683 44.1995 163.931 44.1995C166.179 44.1995 167.572 45.576 167.706 47.8405Z" fill="white"/>
<path d="M171.046 48.3577C171.482 47.6532 172.39 47.2988 173.176 47.2988H173.73V48.5084H173.176C172.052 48.5084 171.046 49.2293 171.046 50.6751V56.1122H169.787V47.4495H171.046V48.3577Z" fill="white"/>
<path d="M176.536 45.9916H175.277V44.3625H176.536V45.9916ZM176.536 56.1124H175.277V47.4497H176.536V56.1124Z" fill="white"/>
<path d="M180.719 54.1494C180.719 54.7032 180.918 54.9069 181.525 54.9069H182.853V56.1165H181.525C179.912 56.1165 179.46 55.53 179.46 54.0516V48.6634H178.234V47.4538H179.46V45.4907H180.719V47.4538H182.849V48.6634H180.719V54.1534V54.1494Z" fill="white"/>
<path d="M186.038 45.9916H184.779V44.3625H186.038V45.9916ZM186.038 56.1124H184.779V47.4497H186.038V56.1124Z" fill="white"/>
<path d="M195.087 50.1905H193.812C193.645 49.0134 192.721 48.427 191.715 48.427C190.591 48.427 189.585 49.1478 189.585 50.5937V52.911C189.585 54.3528 190.591 55.0777 191.715 55.0777C192.721 55.0777 193.645 54.4913 193.812 53.3142H195.087C194.904 55.5461 193.242 56.2873 191.715 56.2873C190.102 56.2873 188.322 55.4646 188.322 52.8947V50.6099C188.322 48.0604 190.102 47.2214 191.715 47.2214C193.242 47.2214 194.904 47.9586 195.087 50.1945V50.1905Z" fill="white"/>
<path d="M198.06 50.1049H196.769C196.989 47.9382 198.634 47.2173 200.141 47.2173C201.754 47.2173 203.53 48.0563 203.53 50.6058V56.1121H202.271V55.2243C201.718 55.9451 200.744 56.2832 199.567 56.2832C198.089 56.2832 196.696 55.4931 196.696 53.7133C196.696 52.8417 197.066 51.6647 198.577 51.2289C199.567 50.9438 200.809 50.842 202.271 50.7402V50.5895C202.271 49.1478 201.265 48.4228 200.141 48.4228C199.152 48.4228 198.26 48.9767 198.06 50.1008V50.1049ZM202.275 51.8683C200.378 52.0027 199.302 52.1209 198.716 52.4385C198.077 52.7929 197.958 53.1757 197.958 53.6807C197.958 54.4708 198.561 55.0736 199.84 55.0736C201.2 55.0736 202.275 54.3527 202.275 52.9924V51.8683Z" fill="white"/>
<path d="M207.159 54.1492C207.159 54.703 207.362 54.9067 207.965 54.9067H208.234V56.1163H207.965C206.352 56.1163 205.9 55.5298 205.9 54.0514V44.3665H207.159V54.1532V54.1492Z" fill="white"/>
<path d="M214.058 44.3625H215.349V56.1124H214.058V44.3625Z" fill="white"/>
<path d="M224.733 50.6099V56.1162H223.474V50.5936C223.474 49.1518 222.468 48.4269 221.344 48.4269C220.22 48.4269 219.214 49.1478 219.214 50.5936V56.1162H217.956V47.4535H219.214V48.2762C219.65 47.5716 220.558 47.2173 221.344 47.2173C222.957 47.2173 224.737 48.0563 224.737 50.6058L224.733 50.6099Z" fill="white"/>
<path d="M229.636 45.572C229.034 45.572 228.83 45.7756 228.83 46.3295V47.4536H230.96V48.6632H228.83V56.1163H227.572V48.6632H226.346V47.4536H227.572V46.4313C227.572 44.9529 228.024 44.3665 229.636 44.3665H230.964V45.5761H229.636V45.572Z" fill="white"/>
<path d="M233.717 48.3577C234.153 47.6532 235.061 47.2988 235.847 47.2988H236.401V48.5084H235.847C234.723 48.5084 233.717 49.2293 233.717 50.6751V56.1122H232.459V47.4495H233.717V48.3577Z" fill="white"/>
<path d="M238.804 50.1049H237.513C237.733 47.9382 239.378 47.2173 240.885 47.2173C242.498 47.2173 244.274 48.0563 244.274 50.6058V56.1121H243.015V55.2243C242.461 55.9451 241.488 56.2832 240.311 56.2832C238.833 56.2832 237.44 55.4931 237.44 53.7133C237.44 52.8417 237.81 51.6647 239.321 51.2289C240.311 50.9438 241.553 50.842 243.015 50.7402V50.5895C243.015 49.1478 242.009 48.4228 240.885 48.4228C239.896 48.4228 239.004 48.9767 238.804 50.1008V50.1049ZM243.019 51.8683C241.121 52.0027 240.046 52.1209 239.46 52.4385C238.82 52.7929 238.702 53.1757 238.702 53.6807C238.702 54.4708 239.305 55.0736 240.584 55.0736C241.944 55.0736 243.019 54.3527 243.019 52.9924V51.8683Z" fill="white"/>
<path d="M251.091 49.987C250.941 48.981 250.269 48.4271 249.193 48.4271C248.253 48.4271 247.564 48.8955 247.564 49.6856C247.564 50.4065 248.053 50.7282 248.758 50.8952L250.387 51.2984C251.694 51.6161 252.602 52.2718 252.602 53.8683C252.602 55.5788 251.311 56.2875 249.548 56.2875C247.784 56.2875 246.208 55.4485 246.074 53.3511H247.365C247.483 54.5769 248.387 55.082 249.548 55.082C250.708 55.082 251.311 54.5932 251.328 53.8398C251.328 53.2859 251.075 52.7972 250.118 52.565L248.424 52.1455C247.483 51.9256 246.294 51.2903 246.294 49.7467C246.294 48.2031 247.621 47.2297 249.214 47.2297C250.961 47.2297 252.252 48.0687 252.386 49.9992H251.095L251.091 49.987Z" fill="white"/>
<path d="M256.243 54.1494C256.243 54.7032 256.443 54.9069 257.05 54.9069H258.377V56.1165H257.05C255.437 56.1165 254.985 55.53 254.985 54.0516V48.6634H253.759V47.4538H254.985V45.4907H256.243V47.4538H258.373V48.6634H256.243V54.1534V54.1494Z" fill="white"/>
<path d="M261.566 48.3577C262.002 47.6532 262.91 47.2988 263.696 47.2988H264.25V48.5084H263.696C262.572 48.5084 261.566 49.2293 261.566 50.6751V56.1122H260.308V47.4495H261.566V48.3577Z" fill="white"/>
<path d="M265.68 52.9437V47.4536H266.938V52.8581C266.938 54.4017 267.997 55.0737 269.019 55.0737C270.042 55.0737 271.101 54.3365 271.101 52.907V47.4536H272.359V56.1163H271.101V55.2285C270.665 55.9167 269.757 56.2874 269.019 56.2874C267.594 56.2874 265.68 55.5136 265.68 52.9477V52.9437Z" fill="white"/>
<path d="M281.409 50.1905H280.134C279.967 49.0134 279.042 48.427 278.036 48.427C276.912 48.427 275.906 49.1478 275.906 50.5937V52.911C275.906 54.3528 276.912 55.0777 278.036 55.0777C279.042 55.0777 279.967 54.4913 280.134 53.3142H281.409C281.225 55.5461 279.564 56.2873 278.036 56.2873C276.424 56.2873 274.644 55.4646 274.644 52.8947V50.6099C274.644 48.0604 276.424 47.2214 278.036 47.2214C279.564 47.2214 281.225 47.9586 281.409 50.1945V50.1905Z" fill="white"/>
<path d="M285.188 54.1494C285.188 54.7032 285.388 54.9069 285.995 54.9069H287.323V56.1165H285.995C284.382 56.1165 283.93 55.53 283.93 54.0516V48.6634H282.704V47.4538H283.93V45.4907H285.188V47.4538H287.319V48.6634H285.188V54.1534V54.1494Z" fill="white"/>
<path d="M289.131 52.9437V47.4536H290.389V52.8581C290.389 54.4017 291.448 55.0737 292.471 55.0737C293.493 55.0737 294.552 54.3365 294.552 52.907V47.4536H295.81V56.1163H294.552V55.2285C294.116 55.9167 293.208 56.2874 292.471 56.2874C291.045 56.2874 289.131 55.5136 289.131 52.9477V52.9437Z" fill="white"/>
<path d="M299.589 48.3577C300.025 47.6532 300.933 47.2988 301.719 47.2988H302.273V48.5084H301.719C300.595 48.5084 299.589 49.2293 299.589 50.6751V56.1122H298.331V47.4495H299.589V48.3577Z" fill="white"/>
<path d="M309.026 53.3956H310.317C310.097 55.5623 308.452 56.2832 306.945 56.2832C305.332 56.2832 303.552 55.4442 303.552 52.8906V50.6058C303.552 48.0563 305.332 47.2173 306.945 47.2173C308.558 47.2173 310.338 48.0563 310.338 50.6058V52.0679H304.815V52.9069C304.815 54.3486 305.821 55.0736 306.945 55.0736C307.935 55.0736 308.827 54.5197 309.026 53.3956ZM309.075 50.5936C309.075 49.1518 308.069 48.4269 306.945 48.4269C305.821 48.4269 304.815 49.1478 304.815 50.5936V50.9113H309.079V50.5936H309.075Z" fill="white"/>
</g>
<defs>
<clipPath id="clip0_26_2836">
<rect width="310" height="58.741" fill="white" transform="translate(0.333328 0.629395)"/>
</clipPath>
</defs>
</svg>
