<svg width="42" height="53" viewBox="0 0 42 53" fill="none" xmlns="http://www.w3.org/2000/svg">
<path d="M15.9846 27.5V13.5H21.7846C24.6246 13.5 26.2046 15.1 26.2046 17.52C26.2046 18.68 25.7846 19.7 24.9446 20.34C25.9246 21.08 26.5446 22.16 26.5446 23.4C26.5446 25.88 24.9846 27.5 22.1046 27.5H15.9846ZM18.6646 24.84H22.1846C23.2846 24.84 23.8646 24.28 23.8646 23.3C23.8646 22.3 23.2046 21.76 22.1846 21.76H18.6646V24.84ZM23.5246 17.62C23.5246 16.64 22.8646 16.16 21.8446 16.16H18.6646V19.1H21.8446C22.8646 19.1 23.5246 18.58 23.5246 17.62Z" fill="white"/>
<path fill-rule="evenodd" clip-rule="evenodd" d="M23.2548 52.1476C28.5555 47.8269 41.5662 35.7239 41.5662 21.0188C41.5662 15.5769 39.4044 10.3578 35.5564 6.50982C31.7084 2.6618 26.4893 0.5 21.0474 0.5C15.6055 0.5 10.3864 2.6618 6.53839 6.50982C2.69036 10.3578 0.528564 15.5769 0.528564 21.0188C0.528564 35.7239 13.5392 47.8269 18.8399 52.1476C20.1431 53.2098 21.9517 53.2098 23.2548 52.1476ZM33.6152 21.0188C33.6152 27.9598 27.9884 33.5866 21.0474 33.5866C14.1064 33.5866 8.47961 27.9598 8.47961 21.0188C8.47961 14.0778 14.1064 8.45104 21.0474 8.45104C27.9884 8.45104 33.6152 14.0778 33.6152 21.0188Z" fill="url(#paint0_linear_133_774)"/>
<defs>
<linearGradient id="paint0_linear_133_774" x1="0.528564" y1="52.9443" x2="51.4341" y2="13.1107" gradientUnits="userSpaceOnUse">
<stop stop-color="#E64E05"/>
<stop offset="1" stop-color="#FDBD0D"/>
</linearGradient>
</defs>
</svg>
