<svg width="94" height="32" viewBox="0 0 94 32" xmlns="http://www.w3.org/2000/svg">
    <g fill="#FFF" fill-rule="evenodd">
        <path d="M48.405 18.594a6.448 6.448 0 0 1-6.441-6.441 6.449 6.449 0 0 1 6.44-6.441c3.552 0 6.442 2.89 6.442 6.44 0 3.552-2.89 6.442-6.441 6.442m0-16.594c-5.598 0-10.153 4.554-10.153 10.153 0 5.598 4.555 10.152 10.153 10.152 5.598 0 10.153-4.554 10.153-10.152C58.558 6.554 54.003 2 48.405 2M11.152 18.594a6.448 6.448 0 0 1-6.44-6.441 6.449 6.449 0 0 1 6.44-6.441c3.552 0 6.441 2.89 6.441 6.44 0 3.552-2.889 6.442-6.44 6.442m0-16.594c-2.444 0-4.687.868-6.441 2.311V2.273H1V31h3.712V19.994a10.107 10.107 0 0 0 6.44 2.311c5.598 0 10.153-4.554 10.153-10.152C21.305 6.554 16.75 2 11.152 2M28.308 7.615V2.273h-3.711v19.814h3.711v-9.58h2.447a6.444 6.444 0 0 1 4.336-6.089 6.416 6.416 0 0 1 2.105-.352V2.273c-1.137 0-2.254.269-3.32.638a10.139 10.139 0 0 0-5.568 4.704M88.693 2.273l-3.96 9.851h-3.01l-1.728 4.296-3.498-8.7 2.19-5.447h-4.001L68.998 16.42 63.31 2.273h-4l7.967 19.814h3.443l3.777-9.393 3.776 9.393h3.444l4.005-9.963h3.01l3.962-9.851z"/>
    </g>
</svg>
