<svg width="40" height="40" viewBox="0 0 40 40" fill="none" xmlns="http://www.w3.org/2000/svg">
<g id="Marketing Technologies Multiscanning (1) 1">
<path id="Vector" d="M5.93334 19.1667L3.63334 21.0167C3.01667 21.5167 3.36667 22.5 4.15 22.5H35.8167C36.6 22.5 36.95 21.5167 36.3333 21.0167L34.0333 19.1667" stroke="white" stroke-miterlimit="10"/>
<path id="Vector_2" d="M5.96667 32.5L2.63334 37.9C2.28334 38.45 2.68334 39.1667 3.35 39.1667H36.6833C37.3333 39.1667 37.7333 38.45 37.4 37.9L34.0667 32.5" stroke="white" stroke-miterlimit="10"/>
<path id="Vector_3" d="M34.0333 7.49998L37.3667 2.09998C37.7167 1.54998 37.3167 0.833313 36.65 0.833313H3.33333C2.68333 0.833313 2.28333 1.54998 2.61666 2.09998L5.94999 7.49998" stroke="white" stroke-miterlimit="10"/>
<path id="Vector_4" d="M30.8333 18.2333V12.85C30.8333 12.6333 30.75 12.4166 30.5833 12.2666L24.4 6.08331C24.25 5.93331 24.0333 5.83331 23.8167 5.83331H10C9.53334 5.83331 9.16667 6.19998 9.16667 6.66665V18.3666" stroke="white" stroke-miterlimit="10"/>
<path id="Vector_5" d="M9.16667 26.5667V33.3333C9.16667 33.8 9.53334 34.1667 10 34.1667H30C30.4667 34.1667 30.8333 33.8 30.8333 33.3333V26.5667" stroke="white" stroke-miterlimit="10"/>
</g>
</svg>
