<svg width="408" height="300" viewBox="0 0 408 300" fill="none" xmlns="http://www.w3.org/2000/svg">
<path d="M402.972 164.069L360.233 129.614C357.115 127.153 352.603 127.646 350.142 130.681C347.681 133.798 348.173 138.31 351.209 140.771C359.084 147.088 370.651 156.44 380.085 163.987H99.0348C98.5426 163.987 97.9684 163.987 97.4762 163.987H27.911L56.7871 140.771C59.9044 138.31 60.3966 133.798 57.8535 130.681C55.3925 127.564 50.8806 127.071 47.7633 129.614L3.05454 165.628C0.675539 167.514 -0.226854 170.714 0.757559 173.585C1.74197 176.456 4.44912 178.343 7.48439 178.343H82.4639C70.897 196.226 72.5377 215.586 73.6041 222.149L74.0143 224.856L76.1472 226.579C81.3974 230.845 95.7534 240.853 115.032 241.017L127.829 281.542L169.42 272.436C179.183 289.089 195.015 296.554 201.332 299.016L203.875 300L206.418 299.016C212.735 296.637 228.567 289.171 238.329 272.518L279.757 281.624L293.456 241.099C312.406 240.689 326.516 230.927 331.767 226.743L333.9 225.02L334.31 222.313C335.376 215.833 337.181 196.308 325.45 178.343H400.429C403.465 178.343 406.172 176.456 407.156 173.585C408.879 168.827 405.598 166.202 402.972 164.069ZM137.591 264.807L129.552 239.376C133.571 238.392 137.755 236.915 142.021 234.783C148.091 239.212 154.572 242.986 161.463 246.021C161.791 250.779 162.612 255.045 163.76 259.065L137.591 264.807ZM244.154 259.147C245.302 255.127 246.123 250.779 246.451 246.021C253.342 242.986 259.904 239.212 265.893 234.783C270.323 236.915 274.671 238.474 278.854 239.459L270.323 264.807L244.154 259.065V259.147ZM320.528 217.309C311.504 223.79 292.226 233.47 268.764 220.098L264.498 217.719L260.725 220.755C253.588 226.497 245.548 231.091 236.853 234.454L232.341 236.259V241.099C232.259 248.892 230.7 255.373 228.321 260.87C228.157 261.198 227.993 261.526 227.829 261.854C221.84 274.733 210.93 281.378 203.957 284.577C196.902 281.378 186.073 274.733 180.085 261.854C179.921 261.444 179.757 261.116 179.593 260.705C177.214 255.291 175.737 248.81 175.655 241.099V236.259L171.061 234.454C162.365 231.091 154.326 226.415 147.189 220.673L143.415 217.637L139.15 220.016C132.341 223.872 125.86 225.841 119.954 226.497C119.625 226.497 119.379 226.497 119.051 226.579C104.859 227.81 93.6206 221.739 87.386 217.227C86.4836 208.367 87.1399 191.632 100.922 178.425H306.746C320.774 191.714 321.348 208.532 320.446 217.391L320.528 217.309Z" fill="white"/>
<path d="M103.711 141.263C107.156 143.232 111.504 142.084 113.555 138.72C115.524 135.275 114.375 130.927 111.012 128.876C87.5502 115.176 86.4017 93.6013 87.5502 82.6087C96.574 76.128 115.852 66.4479 139.314 79.8195L143.58 82.1985L147.353 79.1632C154.49 73.4208 162.448 68.8269 171.143 65.4635L175.655 63.6587V58.8187C175.819 31.6653 193.867 19.8523 203.957 15.3404C214.047 19.8523 232.095 31.7473 232.341 58.8187V63.6587L236.935 65.4635C245.631 68.8269 253.67 73.5029 260.807 79.2453L264.581 82.2805L268.846 79.9016C292.39 66.5299 311.668 76.21 320.61 82.6907C321.759 93.7654 320.446 115.34 297.066 128.958C293.621 130.927 292.472 135.357 294.523 138.802C295.836 141.099 298.297 142.33 300.758 142.33C303.219 142.33 303.219 142.002 304.367 141.345C338.412 121.411 336.033 87.6128 334.474 77.6866L334.064 74.9795L331.931 73.2568C326.763 69.073 312.653 59.2289 293.621 58.9007L280.167 18.5398L238.083 26.5792C228.239 10.5824 212.899 3.36341 206.746 0.984411L204.203 0L201.66 0.984411C195.343 3.36341 179.593 10.8285 169.749 27.4815L128.321 18.3757L114.786 58.9007C95.8357 59.3109 81.7258 69.073 76.5576 73.1747L74.4247 74.8974L74.0145 77.6046C72.4558 87.4487 69.8308 121.247 104.039 141.263H103.711ZM270.405 35.0287L278.937 60.5414C274.753 61.5258 270.405 63.0845 265.975 65.2174C259.905 60.7875 253.424 57.0139 246.533 53.9787C246.205 48.8925 245.302 44.2986 243.99 40.0328L270.405 34.9467V35.0287ZM163.842 40.9352C162.694 44.9549 161.873 49.3027 161.545 54.0607C154.654 57.096 148.174 60.7875 142.185 65.2174C137.673 63.0025 133.325 61.5258 129.142 60.4594L137.591 35.1107L163.842 40.8532V40.9352Z" fill="white"/>
</svg>
