<?xml version="1.0" encoding="UTF-8"?>
<svg xmlns="http://www.w3.org/2000/svg" version="1.1" viewBox="0 0 510 380">
  <defs>
    <style>
      .cls-1 {
        fill: #fff;
         stroke: #fff; /* Set stroke color */
        stroke-width: 2; 
      }
    </style>
  </defs>
  <!-- Generator: Adobe Illustrator 28.7.1, SVG Export Plug-In . SVG Version: 1.2.0 Build 142)  -->
  <g>
    <g id="Layer_1">
      <g id="Layer_1-2" data-name="Layer_1">
        <g>
          <path class="cls-1" d="M497.5,207.1l-52.1-42c-3.8-3-9.3-2.4-12.3,1.3-3,3.8-2.4,9.3,1.3,12.3,9.6,7.7,23.7,19.1,35.2,28.3H40.3l35.2-28.3c3.8-3,4.4-8.5,1.3-12.3-3-3.8-8.5-4.4-12.3-1.3l-54.5,43.9c-2.9,2.3-4,6.2-2.8,9.7s4.5,5.8,8.2,5.8h91.4c-14.1,21.8-12.1,45.4-10.8,53.4l.5,3.3,2.6,2.1c6.4,5.2,23.9,17.4,47.4,17.6l15.6,49.4,50.7-11.1c11.9,20.3,31.2,29.4,38.9,32.4l3.1,1.2,3.1-1.2c7.7-2.9,27-12,38.9-32.3l50.5,11.1,16.7-49.4c23.1-.5,40.3-12.4,46.7-17.5l2.6-2.1.5-3.3c1.3-7.9,3.5-31.7-10.8-53.6h91.4c3.7,0,7-2.3,8.2-5.8,2.1-5.8-1.9-9-5.1-11.6h0ZM174,329.9l-9.8-31c4.9-1.2,10-3,15.2-5.6,7.4,5.4,15.3,10,23.7,13.7.4,5.8,1.4,11,2.8,15.9l-31.9,7ZM303.9,323.1c1.4-4.9,2.4-10.2,2.8-16,8.4-3.7,16.4-8.3,23.7-13.7,5.4,2.6,10.7,4.5,15.8,5.7l-10.4,30.9-31.9-7h0ZM397,272c-11,7.9-34.5,19.7-63.1,3.4l-5.2-2.9-4.6,3.7c-8.7,7-18.5,12.6-29.1,16.7l-5.5,2.2v5.9c0,9.5-2,17.4-4.9,24.1-.2.4-.4.8-.6,1.2-7.3,15.7-20.6,23.8-29.1,27.7-8.6-3.9-21.8-12-29.1-27.7-.2-.5-.4-.9-.6-1.4-2.9-6.6-4.7-14.5-4.8-23.9v-5.9l-5.6-2.2c-10.6-4.1-20.4-9.8-29.1-16.8l-4.6-3.7-5.2,2.9c-8.3,4.7-16.2,7.1-23.4,7.9-.4,0-.7,0-1.1.1-17.3,1.5-31-5.9-38.6-11.4-1.1-10.8-.3-31.2,16.5-47.3h250.9c17.1,16.2,17.8,36.7,16.7,47.5h0Z"/>
          <path class="cls-1" d="M132.7,179.3c4.2,2.4,9.5,1,12-3.1,2.4-4.2,1-9.5-3.1-12-28.6-16.7-30-43-28.6-56.4,11-7.9,34.5-19.7,63.1-3.4l5.2,2.9,4.6-3.7c8.7-7,18.4-12.6,29-16.7l5.5-2.2v-5.9c.2-33.1,22.2-47.5,34.5-53,12.3,5.5,34.3,20,34.6,53v5.9l5.6,2.2c10.6,4.1,20.4,9.8,29.1,16.8l4.6,3.7,5.2-2.9c28.7-16.3,52.2-4.5,63.1,3.4,1.4,13.5-.2,39.8-28.7,56.4-4.2,2.4-5.6,7.8-3.1,12,1.6,2.8,4.6,4.3,7.6,4.3s3-.4,4.4-1.2c41.5-24.3,38.6-65.5,36.7-77.6l-.5-3.3-2.6-2.1c-6.3-5.1-23.5-17.1-46.7-17.5l-16.4-49.2-51.3,9.8c-12-19.5-30.7-28.3-38.2-31.2l-3.1-1.2-3.1,1.2c-7.7,2.9-26.9,12-38.9,32.3l-50.5-11.1-16.5,49.4c-23.1.5-40.3,12.4-46.6,17.4l-2.6,2.1-.5,3.3c-1.9,12-5.1,53.2,36.6,77.6h-.4ZM335.9,49.8l10.4,31.1c-5.1,1.2-10.4,3.1-15.8,5.7-7.4-5.4-15.3-10-23.7-13.7-.4-6.2-1.5-11.8-3.1-17l32.2-6.2h0ZM206,57c-1.4,4.9-2.4,10.2-2.8,16-8.4,3.7-16.3,8.2-23.6,13.6-5.5-2.7-10.8-4.5-15.9-5.8l10.3-30.9,32,7h0Z"/>
        </g>
      </g>
    </g>
  </g>
</svg>