<svg width="64" height="64" viewBox="0 0 64 64" fill="none" xmlns="http://www.w3.org/2000/svg">
<g clip-path="url(#clip0_259_722)">
<rect width="64" height="64" rx="4" fill="#313C4E"/>
<rect x="50.6011" y="13" width="57" height="53.1759" transform="rotate(45 50.6011 13)" fill="url(#paint0_linear_259_722)"/>
<g clip-path="url(#clip1_259_722)">
<rect x="12" y="12" width="40" height="40" rx="4" fill="url(#paint1_linear_259_722)"/>
<g clip-path="url(#clip2_259_722)">
<path d="M25.5001 41.75C27.8933 41.75 29.8334 39.8099 29.8334 37.4166C29.8334 35.0234 27.8933 33.0833 25.5001 33.0833C23.1068 33.0833 21.1667 35.0234 21.1667 37.4166C21.1667 39.8099 23.1068 41.75 25.5001 41.75Z" stroke="#080F21" stroke-width="1.5" stroke-miterlimit="10"/>
<path d="M25.5001 27.6667C27.8933 27.6667 29.8334 25.7266 29.8334 23.3333C29.8334 20.9401 27.8933 19 25.5001 19C23.1068 19 21.1667 20.9401 21.1667 23.3333C21.1667 25.7266 23.1068 27.6667 25.5001 27.6667Z" stroke="#080F21" stroke-width="1.5" stroke-miterlimit="10"/>
<path d="M38.5001 41.75C40.8933 41.75 42.8334 39.8099 42.8334 37.4166C42.8334 35.0234 40.8933 33.0833 38.5001 33.0833C36.1068 33.0833 34.1667 35.0234 34.1667 37.4166C34.1667 39.8099 36.1068 41.75 38.5001 41.75Z" stroke="#080F21" stroke-width="1.5" stroke-miterlimit="10"/>
<path d="M19 45C19.7568 43.9909 20.7382 43.1719 21.8664 42.6078C22.9946 42.0437 24.2386 41.75 25.5 41.75C26.7614 41.75 28.0054 42.0437 29.1336 42.6078C30.2618 43.1719 31.2432 43.9909 32 45C32.7568 43.9909 33.7382 43.1719 34.8664 42.6078C35.9946 42.0437 37.2386 41.75 38.5 41.75C39.7614 41.75 41.0054 42.0437 42.1336 42.6078C43.2618 43.1719 44.2432 43.9909 45 45" stroke="#080F21" stroke-width="1.5" stroke-miterlimit="10"/>
<path d="M38.5001 27.6667C40.8933 27.6667 42.8334 25.7266 42.8334 23.3333C42.8334 20.9401 40.8933 19 38.5001 19C36.1068 19 34.1667 20.9401 34.1667 23.3333C34.1667 25.7266 36.1068 27.6667 38.5001 27.6667Z" stroke="#080F21" stroke-width="1.5" stroke-miterlimit="10"/>
<path d="M19 30.9167C19.7568 29.9076 20.7382 29.0886 21.8664 28.5245C22.9946 27.9604 24.2386 27.6667 25.5 27.6667C26.7614 27.6667 28.0054 27.9604 29.1336 28.5245C30.2618 29.0886 31.2432 29.9076 32 30.9167C32.7568 29.9076 33.7382 29.0886 34.8664 28.5245C35.9946 27.9604 37.2386 27.6667 38.5 27.6667C39.7614 27.6667 41.0054 27.9604 42.1336 28.5245C43.2618 29.0886 44.2432 29.9076 45 30.9167" stroke="#080F21" stroke-width="1.5" stroke-miterlimit="10"/>
</g>
</g>
</g>
<defs>
<linearGradient id="paint0_linear_259_722" x1="52.5131" y1="13" x2="105.689" y2="66.1759" gradientUnits="userSpaceOnUse">
<stop stop-color="#141E2F"/>
<stop offset="1" stop-color="#313C4E"/>
</linearGradient>
<linearGradient id="paint1_linear_259_722" x1="12" y1="52" x2="52" y2="12" gradientUnits="userSpaceOnUse">
<stop stop-color="#E64E05"/>
<stop offset="1" stop-color="#FDBD0D"/>
</linearGradient>
<clipPath id="clip0_259_722">
<rect width="64" height="64" rx="4" fill="white"/>
</clipPath>
<clipPath id="clip1_259_722">
<rect x="12" y="12" width="40" height="40" rx="4" fill="white"/>
</clipPath>
<clipPath id="clip2_259_722">
<rect width="40" height="40" fill="white" transform="translate(12 12)"/>
</clipPath>
</defs>
</svg>
