<svg width="30" height="30" viewBox="0 0 30 30" fill="none" xmlns="http://www.w3.org/2000/svg">
<g id="Frame" clip-path="url(#clip0_259_662)">
<path id="Vector" d="M9.84375 18.75C13.2092 18.75 15.9375 16.0217 15.9375 12.6562C15.9375 9.29076 13.2092 6.5625 9.84375 6.5625C6.47826 6.5625 3.75 9.29076 3.75 12.6562C3.75 16.0217 6.47826 18.75 9.84375 18.75Z" stroke="#8E939B" stroke-width="1.5" stroke-linecap="round" stroke-linejoin="round"/>
<path id="Vector_2" d="M1.19873 23.4375C2.13516 21.9977 3.41638 20.8146 4.92607 19.9956C6.43576 19.1765 8.12611 18.7476 9.84365 18.7476C11.5612 18.7476 13.2515 19.1765 14.7612 19.9956C16.2709 20.8146 17.5521 21.9977 18.4886 23.4375" stroke="#8E939B" stroke-width="1.5" stroke-linecap="round" stroke-linejoin="round"/>
<path id="Vector_3" d="M20.1562 18.75C21.8737 18.749 23.5642 19.1773 25.074 19.9959C26.5838 20.8146 27.865 21.9976 28.8012 23.4375" stroke="#8E939B" stroke-width="1.5" stroke-linecap="round" stroke-linejoin="round"/>
<path id="Vector_4" d="M17.8933 6.99609C18.7269 6.66363 19.6236 6.51938 20.5194 6.57366C21.4152 6.62793 22.2879 6.8794 23.0752 7.31008C23.8626 7.74076 24.5451 8.34002 25.0739 9.06505C25.6028 9.79008 25.965 10.623 26.1347 11.5042C26.3044 12.3855 26.2773 13.2933 26.0554 14.1629C25.8335 15.0324 25.4223 15.8423 24.8512 16.5345C24.28 17.2267 23.563 17.7842 22.7514 18.1672C21.9398 18.5502 21.0536 18.7492 20.1562 18.75" stroke="#8E939B" stroke-width="1.5" stroke-linecap="round" stroke-linejoin="round"/>
</g>
<defs>
<clipPath id="clip0_259_662">
<rect width="30" height="30" fill="white"/>
</clipPath>
</defs>
</svg>
